{"glyphs":{"0":{"ha":836,"x_min":54,"x_max":782,"o":"m 568 422 q 527 626 568 557 q 417 694 486 694 q 308 626 347 694 q 268 422 268 557 q 306 216 268 283 q 417 149 344 149 q 528 216 489 149 q 568 422 568 283 m 418 -21 q 270 7 338 -21 q 155 90 203 35 q 81 228 107 146 q 54 422 54 311 q 81 615 54 532 q 157 753 108 697 q 272 836 206 808 q 418 864 339 864 q 563 836 496 864 q 678 753 629 808 q 754 615 726 697 q 782 422 782 532 q 755 228 782 311 q 680 90 728 146 q 565 7 632 35 q 418 -21 497 -21 z "},"1":{"ha":536,"x_min":15,"x_max":433,"o":"m 74 590 q 35 626 54 603 q 15 689 15 649 q 107 796 15 764 l 269 854 l 317 854 q 401 822 369 854 q 433 738 433 790 l 433 1 q 393 -7 418 -3 q 338 -11 368 -11 q 247 10 275 -11 q 219 89 219 31 l 219 642 l 74 590 z "},"2":{"ha":721,"x_min":50,"x_max":664,"o":"m 82 729 q 151 829 82 794 q 331 864 219 864 q 471 844 410 864 q 572 791 532 825 q 633 710 613 757 q 654 610 654 664 q 613 465 654 535 q 485 324 572 396 l 294 165 l 643 165 q 657 131 650 153 q 664 85 664 108 q 644 20 664 40 q 592 0 625 0 l 107 0 q 50 117 50 39 q 67 188 50 158 q 107 238 85 218 l 310 415 q 411 520 383 479 q 439 597 439 561 q 406 667 439 642 q 310 693 372 693 q 208 676 251 693 q 133 638 164 658 q 97 675 113 653 q 82 729 82 697 z "},"3":{"ha":717,"x_min":36,"x_max":661,"o":"m 319 865 q 557 801 474 865 q 640 624 640 736 q 603 506 640 553 q 518 440 565 460 q 572 414 546 431 q 617 372 597 397 q 649 313 638 347 q 661 233 661 278 q 636 126 661 174 q 566 47 611 79 q 459 -3 521 14 q 322 -21 397 -21 q 110 18 183 -21 q 36 115 36 57 q 53 174 36 150 q 94 214 71 199 q 170 171 122 193 q 296 149 218 149 q 409 176 371 149 q 447 253 447 204 q 415 323 447 297 q 310 349 383 349 l 182 349 q 167 383 174 363 q 161 431 161 403 q 167 481 161 460 q 182 515 172 501 l 308 515 q 397 538 369 515 q 425 603 425 561 q 390 669 425 644 q 286 694 354 694 q 183 680 228 694 q 110 646 139 665 q 74 683 89 661 q 60 736 60 706 q 131 833 60 800 q 319 865 203 865 z "},"4":{"ha":822,"x_min":42,"x_max":800,"o":"m 403 838 q 458 849 426 844 q 513 854 489 854 q 569 849 542 854 q 617 830 596 843 q 650 794 638 817 q 663 736 663 771 l 663 344 l 776 344 q 792 309 785 332 q 800 261 800 286 q 778 194 800 214 q 724 174 757 174 l 663 174 l 663 0 q 622 -7 649 -3 q 568 -11 594 -11 q 484 4 514 -11 q 454 78 454 19 l 454 174 l 111 174 q 63 218 83 189 q 42 290 42 247 q 47 342 42 314 q 68 390 53 369 l 403 838 m 465 639 l 461 639 l 264 344 l 465 344 l 465 639 z "},"5":{"ha":729,"x_min":68,"x_max":690,"o":"m 626 844 q 642 810 635 831 q 649 761 649 789 q 628 694 649 717 q 574 672 608 672 l 289 672 l 278 519 q 333 534 303 528 q 406 540 363 540 q 529 519 476 540 q 618 463 582 499 q 672 376 654 426 q 690 267 690 325 q 670 156 690 208 q 608 65 650 104 q 502 2 567 25 q 350 -21 438 -21 q 235 -11 288 -21 q 146 17 183 -1 q 88 63 108 36 q 68 124 68 90 q 89 184 68 160 q 135 222 110 208 q 219 171 172 193 q 336 149 265 149 q 441 182 407 149 q 475 265 475 215 q 444 344 475 314 q 347 375 413 375 q 279 365 307 375 q 219 339 251 354 q 121 374 157 342 q 85 468 85 406 q 85 481 85 474 q 86 507 85 488 l 104 728 q 138 813 108 782 q 221 844 168 844 l 626 844 l 626 844 z "},"6":{"ha":772,"x_min":54,"x_max":724,"o":"m 664 749 q 651 697 664 721 q 621 660 639 672 q 544 686 585 676 q 468 696 504 696 q 329 645 381 696 q 265 497 278 594 q 341 537 293 518 q 444 556 389 556 q 647 483 571 556 q 724 274 724 411 q 703 159 724 213 q 641 65 682 106 q 540 2 600 25 q 400 -21 479 -21 q 147 85 240 -21 q 54 399 54 192 q 83 605 54 517 q 165 750 113 693 q 288 835 217 807 q 443 864 360 864 q 606 835 547 864 q 664 749 664 807 m 401 149 q 482 182 454 149 q 510 272 510 215 q 481 361 510 331 q 400 392 451 392 q 328 376 364 392 q 274 338 293 361 l 274 311 q 310 188 274 228 q 401 149 346 149 z "},"7":{"ha":663,"x_min":29,"x_max":647,"o":"m 592 844 q 630 805 613 829 q 647 744 647 781 q 629 661 647 701 l 329 -8 q 297 -10 311 -10 q 267 -10 282 -10 q 175 12 210 -10 q 140 85 140 33 q 153 142 140 113 q 186 215 165 172 l 411 672 l 51 672 q 37 708 44 686 q 29 756 29 731 q 50 824 29 803 q 104 844 71 844 l 592 844 z "},"8":{"ha":781,"x_min":50,"x_max":736,"o":"m 50 232 q 91 363 50 311 q 190 443 132 415 q 103 516 133 471 q 72 625 72 561 q 95 726 72 681 q 160 802 118 771 q 262 850 203 833 q 392 867 321 867 q 629 803 543 867 q 715 626 715 739 q 680 510 715 556 q 590 440 644 465 q 646 410 619 428 q 692 366 672 392 q 724 306 713 340 q 736 229 736 272 q 711 124 736 171 q 641 44 686 76 q 533 -6 596 11 q 392 -24 469 -24 q 253 -6 315 -24 q 145 44 190 11 q 75 125 100 78 q 50 232 50 172 m 524 243 q 486 323 524 290 q 378 369 449 356 q 291 318 319 351 q 263 243 263 285 q 298 165 263 193 q 392 138 333 138 q 488 164 451 138 q 524 243 524 190 m 282 615 q 315 542 282 567 q 401 507 349 517 q 478 549 451 522 q 506 615 506 575 q 476 682 506 658 q 392 706 446 706 q 312 681 342 706 q 282 615 282 656 z "},"9":{"ha":774,"x_min":50,"x_max":719,"o":"m 99 94 q 112 147 99 122 q 142 185 125 172 q 218 158 178 168 q 299 147 258 147 q 450 200 393 147 q 507 349 507 253 q 437 310 481 326 q 336 294 393 294 q 222 311 274 294 q 131 363 169 328 q 72 449 93 397 q 50 569 50 500 q 72 684 50 631 q 134 778 93 738 q 235 841 175 818 q 372 864 294 864 q 626 757 533 864 q 719 444 719 650 q 691 239 719 326 q 611 94 663 151 q 488 8 560 36 q 331 -21 417 -21 q 162 8 225 -21 q 99 94 99 36 m 383 456 q 450 472 418 456 q 500 511 482 488 l 500 522 q 467 650 500 606 q 372 694 435 694 q 290 663 319 694 q 261 575 261 631 q 296 486 261 517 q 383 456 331 456 z "},"\u0000":{"ha":0,"x_min":0,"x_max":0,"o":""},"\r":{"ha":310,"x_min":0,"x_max":0,"o":""}," ":{"ha":278,"x_min":0,"x_max":0,"o":""},"!":{"ha":401,"x_min":76,"x_max":322,"o":"m 310 782 q 308 690 310 749 q 303 565 307 632 q 294 430 300 497 q 279 310 288 363 q 243 295 268 300 q 200 290 218 290 q 140 302 164 290 q 108 346 115 314 q 98 442 103 379 q 90 578 93 506 q 85 722 88 650 q 83 849 83 794 q 140 872 108 864 q 203 879 171 879 q 281 855 253 879 q 310 782 310 831 m 76 97 q 109 184 76 150 q 200 218 142 218 q 290 184 257 218 q 322 97 322 150 q 290 10 322 44 q 200 -24 257 -24 q 109 10 142 -24 q 76 97 76 44 z "},"\"":{"ha":532,"x_min":36,"x_max":493,"o":"m 204 536 q 172 525 189 528 q 131 522 154 522 q 77 535 99 522 q 53 581 56 549 l 36 850 q 136 879 76 879 q 208 861 183 879 q 232 801 232 843 q 229 749 232 782 q 222 676 226 715 q 213 600 218 638 q 204 536 208 563 m 465 536 q 433 525 450 528 q 392 522 415 522 q 338 535 360 522 q 314 581 317 549 l 297 850 q 397 879 338 879 q 469 861 444 879 q 493 801 493 843 q 491 749 493 782 q 485 676 489 715 q 476 600 481 638 q 465 536 471 563 z "},"#":{"ha":979,"x_min":44,"x_max":936,"o":"m 764 506 l 729 347 l 875 347 q 890 314 882 335 q 897 269 897 293 q 877 207 897 226 q 825 188 857 188 l 694 188 l 653 -1 q 622 -5 636 -4 q 592 -6 607 -6 q 518 13 546 -6 q 490 81 490 32 q 496 133 490 104 q 507 188 501 163 l 367 188 l 326 -1 q 294 -5 310 -4 q 265 -6 279 -6 q 192 13 219 -6 q 164 81 164 32 q 169 133 164 104 q 181 188 175 163 l 67 188 q 51 221 58 200 q 44 265 44 242 q 65 328 44 308 q 118 347 85 347 l 215 347 l 249 506 l 106 506 q 90 539 97 518 q 83 583 83 560 q 103 647 83 628 q 156 665 124 665 l 283 665 l 325 853 q 359 856 343 856 q 388 856 375 856 q 460 838 432 856 q 489 772 489 821 q 483 719 489 747 q 471 665 478 692 l 611 665 l 653 853 q 685 856 669 856 q 714 856 701 856 q 788 838 760 856 q 817 772 817 821 q 811 719 817 747 q 799 665 806 692 l 914 665 q 928 632 921 653 q 936 588 936 611 q 916 525 936 544 q 863 506 896 506 l 764 506 m 401 347 l 543 347 l 576 506 l 436 506 l 401 347 z "},"$":{"ha":774,"x_min":64,"x_max":715,"o":"m 354 154 q 459 180 428 154 q 490 242 490 206 q 466 295 490 275 q 393 331 442 315 l 322 353 q 217 392 264 371 q 136 444 169 414 q 84 515 103 474 q 65 614 65 556 q 124 771 65 708 q 290 856 182 833 l 290 965 q 325 973 303 969 q 374 976 347 976 q 453 958 428 976 q 478 888 478 939 l 478 863 q 619 819 565 851 q 674 732 674 788 q 658 676 674 700 q 621 635 642 651 q 536 672 589 657 q 421 688 483 688 q 322 667 354 688 q 290 614 290 646 q 311 572 290 586 q 376 542 332 557 l 451 517 q 566 469 517 494 q 649 410 615 443 q 699 335 682 378 q 715 239 715 293 q 656 77 715 143 q 478 -12 596 11 l 478 -121 q 444 -127 467 -124 q 394 -131 421 -131 q 315 -112 340 -131 q 290 -42 290 -93 l 290 -19 q 127 29 190 -8 q 64 129 64 67 q 85 192 64 167 q 133 232 107 217 q 227 178 171 201 q 354 154 283 154 z "},"%":{"ha":1103,"x_min":47,"x_max":1056,"o":"m 483 640 q 467 550 483 590 q 422 481 451 510 q 353 438 393 453 q 265 424 313 424 q 108 481 169 424 q 47 640 47 539 q 108 798 47 740 q 265 856 169 856 q 353 841 313 856 q 422 798 393 826 q 467 730 451 769 q 483 640 483 690 m 201 640 q 219 574 201 596 q 265 553 238 553 q 310 574 293 553 q 328 640 328 596 q 310 706 328 685 q 265 726 293 726 q 219 706 238 726 q 201 640 201 685 m 756 857 q 835 833 800 850 q 869 786 869 817 q 859 744 869 765 q 832 699 849 722 l 346 -10 q 265 13 297 -6 q 233 61 233 32 q 243 101 233 81 q 269 146 253 122 l 756 857 m 1056 206 q 1040 115 1056 156 q 994 47 1024 75 q 925 3 965 18 q 838 -11 885 -11 q 681 47 742 -11 q 619 206 619 104 q 681 363 619 306 q 838 421 742 421 q 925 406 885 421 q 994 363 965 392 q 1040 295 1024 335 q 1056 206 1056 256 m 774 206 q 792 139 774 161 q 838 117 810 117 q 883 139 865 117 q 901 206 901 161 q 883 270 901 249 q 838 292 865 292 q 792 270 810 292 q 774 206 774 249 z "},"&":{"ha":925,"x_min":54,"x_max":890,"o":"m 786 -19 q 735 -8 758 -19 q 688 29 713 4 l 653 64 q 526 -2 597 18 q 388 -22 456 -22 q 246 -1 308 -22 q 141 57 183 19 q 76 146 99 94 q 54 257 54 197 q 69 346 54 306 q 108 417 83 386 q 165 472 132 449 q 233 510 197 494 q 185 590 196 556 q 175 657 175 625 q 192 738 175 700 q 240 804 208 776 q 319 849 272 832 q 426 865 365 865 q 549 835 513 865 q 585 761 585 806 q 576 719 585 740 q 550 682 567 697 q 511 694 533 689 q 465 700 489 700 q 401 682 425 700 q 376 629 376 664 q 393 582 376 604 q 443 528 410 560 l 636 338 q 651 427 647 379 q 656 518 656 475 q 743 538 700 538 q 821 505 801 538 q 840 421 840 472 q 826 310 840 368 q 781 196 813 253 l 890 89 q 858 10 888 40 q 786 -19 828 -19 m 399 142 q 459 150 422 142 q 532 185 496 158 l 336 383 q 278 340 301 369 q 256 269 256 310 q 292 178 256 215 q 399 142 328 142 z "},"'":{"ha":283,"x_min":36,"x_max":243,"o":"m 217 540 q 182 528 203 533 q 136 522 161 522 q 78 538 101 522 q 53 585 56 553 l 36 846 q 82 869 56 860 q 143 879 108 879 q 217 860 190 879 q 243 797 243 840 q 241 745 243 778 q 235 676 239 713 q 226 603 231 640 q 217 540 221 567 z "},"(":{"ha":410,"x_min":61,"x_max":406,"o":"m 304 -183 q 221 -152 256 -183 q 161 -76 186 -121 q 89 113 117 1 q 61 372 61 225 q 90 631 61 519 q 161 818 119 743 q 220 894 185 863 q 304 925 256 925 q 365 906 339 925 q 406 865 390 888 q 300 647 336 764 q 264 372 264 531 q 273 225 264 293 q 300 97 282 157 q 344 -18 318 36 q 406 -124 371 -72 q 365 -165 390 -146 q 304 -183 339 -183 z "},")":{"ha":410,"x_min":6,"x_max":350,"o":"m 107 -183 q 47 -165 72 -183 q 6 -124 21 -146 q 67 -18 40 -72 q 111 97 93 36 q 138 225 129 157 q 147 372 147 293 q 138 519 147 451 q 111 647 129 588 q 67 761 93 707 q 6 865 40 815 q 47 906 21 888 q 107 925 72 925 q 191 894 156 925 q 250 818 226 863 q 321 631 292 743 q 350 372 350 519 q 322 113 350 225 q 250 -76 294 0 q 190 -152 225 -121 q 107 -183 156 -183 z "},"*":{"ha":474,"x_min":28,"x_max":440,"o":"m 97 794 q 140 785 114 794 l 171 772 l 171 878 q 198 893 181 885 q 239 901 215 901 q 286 887 268 901 q 304 840 304 872 q 303 813 304 833 q 301 769 303 793 l 388 808 q 424 780 408 799 q 440 733 440 761 q 424 691 440 703 q 381 668 408 679 l 344 653 l 414 558 q 385 512 406 531 q 335 493 364 493 q 289 510 304 493 q 258 551 274 528 l 240 581 l 183 497 q 154 493 168 493 q 91 510 113 493 q 69 556 69 528 q 76 585 69 571 q 97 617 83 600 l 126 653 l 35 679 q 28 726 28 704 q 46 776 28 758 q 97 794 64 794 z "},"+":{"ha":758,"x_min":47,"x_max":711,"o":"m 478 488 l 689 488 q 704 452 697 475 q 711 404 711 429 q 690 339 711 358 q 633 319 668 319 l 478 319 l 478 75 q 438 67 464 71 q 389 64 413 64 q 311 81 338 64 q 285 154 285 99 l 285 319 l 68 319 q 53 354 60 333 q 47 400 47 375 q 69 467 47 446 q 125 488 90 488 l 285 488 l 285 728 q 324 735 299 731 q 374 740 349 740 q 450 722 422 740 q 478 649 478 704 l 478 488 z "},",":{"ha":311,"x_min":-12,"x_max":279,"o":"m 186 -107 q 81 -161 146 -161 q -12 -129 26 -161 q 14 -47 1 -90 q 37 40 26 -3 q 56 124 47 83 q 72 200 65 165 q 122 219 93 211 q 182 228 151 228 q 251 210 222 228 q 279 146 279 192 q 271 83 279 118 q 249 13 263 49 q 219 -54 235 -22 q 186 -107 203 -86 z "},"-":{"ha":501,"x_min":49,"x_max":453,"o":"m 71 269 q 56 306 63 283 q 49 353 49 328 q 69 419 49 399 q 126 440 90 440 l 429 440 q 444 405 436 428 q 453 357 453 382 q 431 290 453 311 q 375 269 410 269 l 71 269 z "},".":{"ha":306,"x_min":29,"x_max":276,"o":"m 29 103 q 62 192 29 156 q 153 228 94 228 q 243 192 210 228 q 276 103 276 156 q 243 14 276 50 q 153 -22 210 -22 q 62 14 94 -22 q 29 103 29 50 z "},"/":{"ha":467,"x_min":10,"x_max":457,"o":"m 182 -147 q 118 -151 146 -151 q 38 -128 67 -151 q 10 -56 10 -106 q 20 13 10 -22 q 38 74 31 47 l 283 979 q 319 983 303 982 q 349 983 335 983 q 428 963 399 983 q 457 893 457 942 q 447 824 457 857 q 429 758 438 790 l 182 -147 z "},":":{"ha":340,"x_min":47,"x_max":300,"o":"m 53 547 q 86 636 53 600 q 176 672 119 672 q 267 636 235 672 q 300 547 300 600 q 267 459 300 494 q 176 424 235 424 q 86 459 119 424 q 53 547 53 494 m 47 103 q 80 192 47 156 q 169 228 113 228 q 260 192 228 228 q 293 103 293 156 q 260 14 293 50 q 169 -22 228 -22 q 80 14 113 -22 q 47 103 47 50 z "},";":{"ha":353,"x_min":8,"x_max":301,"o":"m 56 547 q 88 636 56 600 q 178 672 121 672 q 269 636 236 672 q 301 547 301 600 q 269 459 301 494 q 178 424 236 424 q 88 459 121 424 q 56 547 56 494 m 207 -107 q 101 -161 167 -161 q 8 -129 47 -161 q 35 -47 22 -90 q 58 40 47 -3 q 77 124 68 83 q 93 200 86 165 q 143 219 114 211 q 203 228 172 228 q 272 210 243 228 q 300 146 300 192 q 292 83 300 118 q 269 13 283 49 q 240 -54 256 -22 q 207 -107 224 -86 z "},"<":{"ha":676,"x_min":49,"x_max":633,"o":"m 631 211 q 633 192 633 203 q 633 174 633 182 q 612 97 633 129 q 538 64 590 64 q 486 74 511 64 q 425 104 461 85 l 81 282 q 49 392 49 325 q 63 472 49 443 q 106 515 78 500 l 531 729 q 611 685 589 714 q 633 625 633 657 q 611 557 633 581 q 546 510 589 533 l 250 389 l 631 211 z "},"=":{"ha":710,"x_min":50,"x_max":660,"o":"m 71 471 q 56 505 63 485 q 50 550 50 525 q 71 617 50 596 q 128 639 92 639 l 639 639 q 653 603 646 625 q 660 554 660 581 q 638 490 660 510 q 582 471 617 471 l 71 471 m 71 182 q 56 216 63 196 q 50 263 50 236 q 71 329 50 308 q 128 350 92 350 l 639 350 q 653 314 646 336 q 660 267 660 292 q 638 201 660 221 q 582 182 617 182 l 71 182 z "},">":{"ha":674,"x_min":42,"x_max":625,"o":"m 46 578 q 42 597 43 586 q 42 615 42 607 q 63 692 42 660 q 139 725 85 725 q 192 713 164 725 q 251 686 219 701 l 593 510 q 617 461 608 490 q 625 400 625 432 q 610 319 625 349 q 568 276 594 290 l 151 63 q 69 106 90 78 q 47 167 47 135 q 69 235 47 211 q 135 282 92 260 l 424 404 l 46 578 z "},"?":{"ha":682,"x_min":35,"x_max":632,"o":"m 183 289 q 143 332 161 304 q 125 400 125 360 q 146 458 125 439 q 208 488 167 476 l 314 514 q 383 550 361 529 q 406 611 406 571 q 376 674 406 646 q 276 701 346 701 q 169 687 219 701 q 86 650 118 672 q 49 690 64 667 q 35 746 35 714 q 55 805 35 779 q 110 847 75 831 q 196 872 146 864 q 304 881 246 881 q 444 860 383 881 q 547 805 506 840 q 610 719 589 769 q 632 611 632 669 q 555 420 632 490 q 322 318 478 350 l 183 289 m 143 99 q 176 185 143 151 q 267 219 208 219 q 356 185 324 219 q 389 99 389 151 q 356 12 389 46 q 267 -22 324 -22 q 176 12 208 -22 q 143 99 143 46 z "},"@":{"ha":1467,"x_min":69,"x_max":1404,"o":"m 1015 165 q 1036 159 1024 163 q 1060 156 1049 156 q 1166 219 1128 156 q 1204 382 1204 282 q 1172 534 1204 465 q 1083 653 1140 603 q 944 730 1025 703 q 768 757 864 757 q 566 722 657 757 q 410 623 475 686 q 308 473 344 560 q 272 283 272 386 q 304 105 272 185 q 393 -31 336 25 q 528 -117 450 -87 q 701 -147 607 -147 q 802 -142 761 -147 q 871 -131 843 -136 q 888 -165 881 -146 q 894 -203 894 -185 q 885 -249 894 -229 q 851 -284 875 -269 q 788 -306 828 -299 q 686 -314 747 -314 q 463 -279 574 -314 q 265 -172 353 -244 q 124 14 178 -99 q 69 283 69 126 q 122 547 69 429 q 269 747 175 665 q 490 874 363 829 q 767 918 618 918 q 1026 880 908 918 q 1227 772 1143 842 q 1358 602 1311 701 q 1404 381 1404 503 q 1315 94 1404 194 q 1060 -7 1226 -7 q 969 6 1018 -7 q 881 43 921 18 q 806 12 849 24 q 710 0 763 0 q 596 18 647 0 q 507 72 544 36 q 449 158 469 107 q 429 275 429 210 q 454 412 429 350 q 524 518 479 474 q 633 587 569 563 q 774 611 696 611 q 902 592 849 611 q 993 550 956 574 q 1034 510 1019 533 q 1049 463 1049 488 q 1048 447 1049 454 q 1046 432 1047 439 l 1015 165 m 640 275 q 671 187 640 213 q 744 161 701 161 q 824 186 790 161 l 847 428 q 816 439 833 435 q 771 443 799 443 q 678 400 715 443 q 640 275 640 357 z "},"A":{"ha":861,"x_min":33,"x_max":835,"o":"m 565 185 l 293 185 q 265 86 278 135 q 242 0 251 38 q 204 -10 224 -6 q 157 -14 185 -14 q 65 8 96 -14 q 33 69 33 29 q 39 107 33 89 q 51 149 44 125 q 79 242 61 186 q 119 362 97 297 q 164 494 140 426 q 210 624 188 563 q 250 738 232 686 q 281 819 268 789 q 345 843 301 832 q 432 854 389 854 q 542 837 494 854 q 604 779 590 819 q 661 608 631 706 q 723 408 692 511 q 783 206 754 306 q 835 26 813 106 q 790 -3 819 8 q 718 -14 760 -14 q 634 7 658 -14 q 599 72 610 28 l 565 185 m 431 660 q 383 517 411 597 q 329 354 354 438 l 528 354 q 480 522 504 442 q 439 660 456 601 l 431 660 z "},"B":{"ha":854,"x_min":97,"x_max":800,"o":"m 771 624 q 737 516 771 561 q 639 446 703 471 q 760 368 719 419 q 800 244 800 317 q 701 44 800 110 q 414 -21 601 -21 q 358 -19 389 -21 q 294 -15 326 -18 q 228 -5 261 -11 q 169 11 196 1 q 97 106 97 38 l 97 767 q 112 810 97 794 q 154 833 126 825 q 268 856 200 849 q 408 864 336 864 q 676 805 582 864 q 771 624 771 746 m 578 254 q 451 353 578 353 l 308 353 l 308 158 q 364 150 331 153 q 428 147 397 147 q 536 173 494 147 q 578 254 578 199 m 308 507 l 438 507 q 522 532 492 507 q 553 606 553 557 q 517 674 553 650 q 411 699 482 699 q 356 697 385 699 q 308 692 326 694 l 308 507 z "},"C":{"ha":797,"x_min":54,"x_max":753,"o":"m 749 725 q 732 669 749 693 q 693 631 715 644 q 615 672 657 654 q 514 690 572 690 q 340 620 403 690 q 278 421 278 550 q 344 220 278 288 q 525 153 410 153 q 627 169 585 153 q 706 207 669 185 q 740 165 726 190 q 753 107 753 139 q 738 55 753 79 q 688 14 724 31 q 613 -12 660 0 q 496 -24 565 -24 q 322 3 403 -24 q 182 83 242 29 q 88 222 122 138 q 54 421 54 306 q 88 613 54 529 q 181 752 122 696 q 317 838 239 808 q 483 867 394 867 q 679 826 610 867 q 749 725 749 786 z "},"D":{"ha":921,"x_min":97,"x_max":868,"o":"m 643 421 q 577 622 643 556 q 406 688 511 688 q 358 686 381 688 q 314 681 336 685 l 314 164 q 358 158 332 160 q 407 156 383 156 q 579 222 515 156 q 643 421 643 288 m 868 424 q 835 229 868 313 q 741 90 801 146 q 595 7 681 35 q 406 -21 510 -21 q 352 -19 382 -21 q 291 -15 322 -18 q 228 -5 260 -11 q 169 11 196 1 q 97 106 97 38 l 97 767 q 112 810 97 794 q 154 835 126 825 q 275 858 211 853 q 392 864 339 864 q 586 838 499 864 q 736 756 674 811 q 833 619 799 701 q 868 424 868 536 z "},"E":{"ha":757,"x_min":97,"x_max":700,"o":"m 213 -3 q 128 28 160 -3 q 97 113 97 60 l 97 726 q 128 810 97 779 q 213 842 160 842 l 672 842 q 688 807 681 828 q 694 760 694 786 q 674 692 694 714 q 618 669 654 669 l 310 669 l 310 514 l 632 514 q 647 479 640 500 q 654 432 654 458 q 635 365 654 386 q 579 343 615 343 l 310 343 l 310 169 l 678 169 q 693 133 686 156 q 700 85 700 111 q 680 18 700 39 q 625 -3 660 -3 l 213 -3 l 213 -3 z "},"F":{"ha":733,"x_min":97,"x_max":697,"o":"m 675 842 q 690 806 683 828 q 697 757 697 783 q 677 689 697 711 q 621 667 657 667 l 313 667 l 313 485 l 628 485 q 644 449 636 469 q 651 400 651 428 q 631 333 651 354 q 575 311 610 311 l 315 311 l 315 1 q 272 -6 300 -3 q 214 -10 244 -10 q 123 13 149 -10 q 97 93 97 35 l 97 726 q 128 810 97 779 q 213 842 160 842 l 675 842 z "},"G":{"ha":915,"x_min":54,"x_max":842,"o":"m 842 128 q 826 68 842 88 q 778 29 811 49 q 731 8 758 18 q 669 -8 703 -1 q 598 -19 635 -15 q 525 -24 561 -24 q 340 2 425 -24 q 190 82 254 28 q 90 219 126 136 q 54 419 54 303 q 91 613 54 529 q 191 753 128 697 q 340 838 254 810 q 524 867 425 867 q 729 826 653 867 q 806 724 806 786 q 789 667 806 692 q 750 629 772 643 q 663 671 715 651 q 540 690 611 690 q 434 672 482 690 q 351 618 386 653 q 297 533 317 583 q 278 421 278 483 q 297 302 278 353 q 349 218 315 251 q 428 168 382 185 q 529 151 475 151 q 590 158 563 151 q 632 172 617 165 l 632 329 l 472 329 q 457 365 464 343 q 450 413 450 388 q 471 478 450 457 q 525 499 492 499 l 758 499 q 819 477 797 499 q 842 417 842 456 l 842 128 z "},"H":{"ha":929,"x_min":97,"x_max":832,"o":"m 315 1 q 272 -6 300 -3 q 214 -10 244 -10 q 123 13 149 -10 q 97 93 97 35 l 97 844 q 141 851 113 847 q 197 856 169 856 q 288 835 260 856 q 315 753 315 814 l 315 508 l 614 508 l 614 844 q 658 851 629 847 q 715 856 686 856 q 804 833 776 856 q 832 750 832 811 l 832 1 q 789 -6 817 -3 q 731 -10 761 -10 q 640 13 665 -10 q 614 93 614 35 l 614 336 l 315 336 l 315 1 l 315 1 z "},"I":{"ha":413,"x_min":97,"x_max":315,"o":"m 214 -10 q 123 13 149 -10 q 97 93 97 35 l 97 844 q 141 851 113 847 q 199 856 169 856 q 288 835 261 856 q 315 753 315 814 l 315 1 q 272 -6 300 -3 q 214 -10 244 -10 z "},"J":{"ha":565,"x_min":31,"x_max":472,"o":"m 472 242 q 402 49 472 117 q 203 -19 332 -19 q 79 6 128 -19 q 31 93 31 31 q 38 139 31 119 q 56 169 46 158 q 102 160 81 164 q 147 157 124 157 q 254 268 254 157 l 254 844 q 298 851 269 847 q 354 856 326 856 q 444 835 417 856 q 472 753 472 814 l 472 242 l 472 242 z "},"K":{"ha":842,"x_min":97,"x_max":813,"o":"m 315 1 q 272 -7 300 -3 q 214 -11 244 -11 q 123 12 149 -11 q 97 93 97 35 l 97 844 q 141 851 113 847 q 197 856 169 856 q 288 835 260 856 q 315 753 315 814 l 315 503 l 622 850 q 742 819 706 850 q 778 743 778 788 q 762 681 778 710 q 710 617 746 653 l 513 419 q 685 233 608 315 q 813 101 763 151 q 776 17 811 47 q 693 -14 740 -14 q 609 12 642 -14 q 546 72 576 38 l 315 333 l 315 1 l 315 1 z "},"L":{"ha":710,"x_min":97,"x_max":672,"o":"m 213 -3 q 128 28 160 -3 q 97 113 97 60 l 97 844 q 141 851 113 847 q 197 856 169 856 q 288 835 260 856 q 315 753 315 814 l 315 174 l 649 174 q 665 138 657 160 q 672 89 672 115 q 652 20 672 43 q 597 -3 632 -3 l 213 -3 l 213 -3 z "},"M":{"ha":1103,"x_min":79,"x_max":1031,"o":"m 660 210 q 617 188 643 196 q 557 179 590 179 q 483 190 513 179 q 443 229 453 201 q 367 444 399 358 q 318 592 336 529 l 313 592 q 306 434 308 506 q 301 294 303 363 q 296 157 299 226 q 289 4 293 88 q 248 -6 274 -1 q 194 -11 222 -11 q 110 8 140 -11 q 79 72 79 26 q 81 145 79 99 q 87 252 83 192 q 95 382 90 313 q 105 523 100 451 q 114 665 110 594 q 122 794 118 735 q 167 828 133 810 q 263 847 201 847 q 365 826 328 847 q 422 758 403 806 q 454 674 438 721 q 488 579 471 628 q 520 483 504 531 q 550 394 536 435 l 557 394 q 635 631 596 517 q 703 824 674 746 q 752 840 722 833 q 818 847 782 847 q 918 829 881 847 q 963 776 956 811 q 975 692 968 749 q 989 561 982 635 q 1003 406 996 488 q 1015 249 1010 325 q 1025 111 1021 174 q 1031 14 1029 49 q 986 -5 1010 1 q 926 -11 963 -11 q 848 6 881 -11 q 813 71 815 22 q 799 366 803 232 q 792 586 796 500 l 785 586 q 737 439 768 528 q 660 210 706 350 z "},"N":{"ha":938,"x_min":97,"x_max":842,"o":"m 842 26 q 789 -1 822 10 q 710 -11 756 -11 q 621 4 663 -11 q 551 74 579 19 l 390 385 q 347 474 367 429 q 307 567 326 518 l 297 564 q 306 405 304 481 q 307 258 307 329 l 307 0 q 266 -6 293 -3 q 210 -10 239 -10 q 122 12 147 -10 q 97 89 97 33 l 97 804 q 151 841 114 828 q 229 854 188 854 q 319 839 278 854 q 388 771 360 824 l 550 458 q 594 369 574 414 q 633 276 614 325 l 639 278 q 631 454 632 371 q 631 614 631 538 l 631 844 q 672 851 644 847 q 729 856 699 856 q 817 834 792 856 q 842 757 842 813 l 842 26 l 842 26 z "},"O":{"ha":972,"x_min":54,"x_max":919,"o":"m 919 422 q 887 231 919 314 q 796 91 854 147 q 658 6 738 35 q 486 -24 579 -24 q 314 6 393 -24 q 177 91 235 35 q 87 231 119 147 q 54 422 54 314 q 88 613 54 531 q 179 752 121 696 q 316 838 238 808 q 486 867 394 867 q 657 838 578 867 q 794 752 736 808 q 886 613 853 696 q 919 422 919 531 m 694 422 q 638 623 694 556 q 486 690 582 690 q 335 623 392 690 q 278 422 278 556 q 334 220 278 288 q 486 153 390 153 q 638 220 582 153 q 694 422 694 288 z "},"P":{"ha":803,"x_min":97,"x_max":763,"o":"m 315 269 l 315 1 q 272 -6 300 -3 q 214 -10 244 -10 q 123 13 149 -10 q 97 93 97 35 l 97 767 q 112 810 97 794 q 154 833 126 825 q 205 847 176 842 q 263 857 233 853 q 323 863 293 861 q 379 864 353 864 q 665 784 568 864 q 763 565 763 704 q 738 444 763 499 q 668 350 714 389 q 556 290 622 311 q 407 269 490 269 l 315 269 m 393 440 q 501 472 461 440 q 542 565 542 503 q 394 689 542 689 q 351 688 369 689 q 314 683 332 686 l 314 440 l 393 440 z "},"Q":{"ha":975,"x_min":54,"x_max":967,"o":"m 919 424 q 865 183 919 281 q 717 33 810 86 q 847 -19 783 3 q 965 -60 910 -40 q 967 -74 967 -68 q 967 -86 967 -81 q 931 -187 967 -156 q 835 -219 896 -219 q 706 -184 775 -219 q 563 -82 638 -149 l 493 -21 l 486 -21 q 314 8 393 -21 q 177 92 235 36 q 87 232 119 149 q 54 424 54 315 q 88 615 54 532 q 179 753 121 697 q 316 838 238 810 q 486 867 394 867 q 657 838 578 867 q 794 753 736 810 q 886 615 853 697 q 919 424 919 532 m 694 424 q 638 623 694 556 q 486 690 582 690 q 335 624 392 690 q 278 424 278 557 q 334 222 278 289 q 486 156 390 156 q 638 222 582 156 q 694 424 694 289 z "},"R":{"ha":840,"x_min":97,"x_max":799,"o":"m 769 571 q 727 426 769 490 q 613 325 685 363 q 722 184 669 250 q 799 78 774 118 q 752 10 786 33 q 678 -12 718 -12 q 597 10 625 -12 q 544 74 569 33 l 411 281 l 315 281 l 315 1 q 272 -6 300 -3 q 214 -10 244 -10 q 123 13 149 -10 q 97 93 97 35 l 97 767 q 112 810 97 794 q 154 833 126 825 q 261 857 199 850 q 392 864 324 864 q 675 785 581 864 q 769 571 769 707 m 399 449 q 507 478 465 449 q 549 569 549 508 q 389 689 549 689 q 349 687 367 689 q 313 682 331 685 l 313 449 l 399 449 z "},"S":{"ha":758,"x_min":60,"x_max":711,"o":"m 350 154 q 455 180 424 154 q 486 242 486 206 q 462 295 486 275 q 389 331 438 315 l 318 353 q 213 392 260 371 q 132 444 165 414 q 80 515 99 474 q 61 614 61 556 q 149 799 61 731 q 394 867 238 867 q 505 858 454 867 q 592 833 556 850 q 649 790 628 815 q 669 732 669 765 q 653 676 669 700 q 617 635 638 651 q 532 672 585 657 q 417 688 479 688 q 318 667 350 688 q 286 614 286 646 q 307 572 286 586 q 372 542 328 557 l 447 517 q 562 469 513 494 q 644 410 611 443 q 694 335 678 378 q 711 239 711 293 q 688 133 711 181 q 620 50 665 85 q 509 -4 575 15 q 357 -24 443 -24 q 239 -13 293 -24 q 145 17 185 -3 q 83 65 106 36 q 60 129 60 93 q 81 192 60 167 q 129 232 103 217 q 223 178 167 201 q 350 154 279 154 z "},"T":{"ha":764,"x_min":26,"x_max":735,"o":"m 488 667 l 488 1 q 444 -6 472 -3 q 386 -10 417 -10 q 294 13 321 -10 q 268 93 268 35 l 268 667 l 50 667 q 34 703 42 681 q 26 751 26 725 q 47 820 26 799 q 104 842 68 842 l 711 842 q 728 806 721 828 q 735 757 735 783 q 714 689 735 711 q 657 667 693 667 l 488 667 z "},"U":{"ha":918,"x_min":93,"x_max":825,"o":"m 458 -24 q 305 0 372 -24 q 190 67 238 24 q 118 170 143 110 q 93 306 93 231 l 93 844 q 137 851 108 847 q 194 856 165 856 q 284 835 257 856 q 311 753 311 814 l 311 310 q 352 194 311 235 q 458 153 393 153 q 566 194 525 153 q 607 310 607 235 l 607 844 q 651 851 622 847 q 708 856 679 856 q 798 835 771 856 q 825 753 825 814 l 825 306 q 800 170 825 231 q 728 67 775 110 q 613 0 681 24 q 458 -24 544 -24 z "},"V":{"ha":867,"x_min":28,"x_max":832,"o":"m 574 25 q 519 -1 556 10 q 439 -12 482 -12 q 349 3 386 -12 q 297 46 311 18 q 258 131 281 79 q 212 247 236 183 q 161 382 188 310 q 110 527 135 454 q 65 670 86 600 q 28 800 43 740 q 78 832 46 817 q 149 847 111 847 q 223 827 194 847 q 267 756 251 807 q 350 478 308 611 q 439 203 392 344 l 447 203 q 533 500 489 338 q 617 822 578 663 q 664 840 639 833 q 721 847 689 847 q 799 826 767 847 q 832 758 832 806 q 817 671 832 729 q 779 539 803 613 q 726 385 756 465 q 669 232 697 304 q 615 104 640 160 q 574 25 589 49 z "},"W":{"ha":1183,"x_min":39,"x_max":1136,"o":"m 483 636 q 527 651 499 643 q 588 658 556 658 q 675 643 640 658 q 718 597 710 628 q 750 484 735 536 q 779 383 765 432 q 806 288 793 335 q 832 189 819 240 l 839 189 q 864 355 853 275 q 885 512 875 435 q 906 665 896 589 q 925 822 915 742 q 1024 849 969 849 q 1103 828 1069 849 q 1136 761 1136 808 q 1130 676 1136 732 q 1113 549 1124 619 q 1087 403 1101 479 q 1056 255 1072 326 q 1024 124 1040 183 q 992 31 1007 65 q 931 2 972 14 q 844 -10 889 -10 q 745 6 786 -10 q 694 51 704 22 q 649 198 675 110 q 596 388 624 286 q 572 288 585 338 q 547 190 560 238 q 523 102 535 143 q 501 29 511 61 q 445 2 482 14 q 363 -10 408 -10 q 262 7 307 -10 q 203 51 217 24 q 176 128 190 78 q 145 242 161 178 q 113 381 129 307 q 83 530 97 456 q 57 675 68 604 q 39 804 46 746 q 88 834 57 819 q 156 849 118 849 q 233 827 203 849 q 271 757 263 806 q 308 535 293 626 q 333 378 322 443 q 351 268 343 313 q 365 189 358 224 l 372 189 q 399 294 386 246 q 424 394 411 343 q 452 502 438 444 q 483 636 467 560 z "},"X":{"ha":832,"x_min":39,"x_max":796,"o":"m 410 276 l 219 -8 q 200 -10 210 -10 q 181 -11 190 -11 q 78 17 111 -11 q 44 89 44 46 q 60 152 44 125 q 104 215 76 179 l 269 426 l 39 750 q 56 785 44 768 q 85 817 68 803 q 124 841 101 832 q 174 850 146 850 q 238 831 210 850 q 294 769 265 813 l 421 578 l 599 839 q 626 845 610 842 q 661 849 642 849 q 749 821 717 849 q 781 753 781 793 q 763 692 781 719 q 714 626 744 664 q 635 526 674 576 q 556 426 596 476 l 796 89 q 753 16 786 43 q 665 -11 719 -11 q 602 7 629 -11 q 547 69 575 25 l 410 276 z "},"Y":{"ha":790,"x_min":11,"x_max":771,"o":"m 771 756 q 759 708 771 739 q 718 624 747 678 q 640 486 689 569 q 515 282 590 403 l 515 1 q 473 -6 500 -3 q 417 -10 446 -10 q 326 13 351 -10 q 301 90 301 35 l 301 283 q 224 402 265 336 q 142 535 182 468 q 67 668 101 603 q 11 785 32 733 q 55 828 26 808 q 125 847 83 847 q 204 827 174 847 q 263 751 235 807 q 276 726 265 747 q 302 676 288 704 q 333 614 317 647 q 365 552 350 581 q 390 503 379 524 q 404 478 401 482 l 411 478 q 452 565 433 524 q 489 648 471 607 q 526 731 507 689 q 565 824 544 774 q 615 841 588 835 q 665 847 642 847 q 740 824 710 847 q 771 756 771 800 z "},"Z":{"ha":776,"x_min":51,"x_max":731,"o":"m 456 667 l 88 667 q 71 703 78 682 q 64 753 64 725 q 85 824 64 801 q 143 846 106 846 l 667 846 q 721 728 721 800 q 707 665 721 696 q 669 607 693 635 l 322 179 l 707 179 q 723 142 715 164 q 731 92 731 119 q 710 22 731 43 q 653 0 689 0 l 100 0 q 65 47 79 18 q 51 115 51 76 q 67 179 51 147 q 107 239 83 211 l 456 667 z "},"[":{"ha":411,"x_min":69,"x_max":403,"o":"m 382 913 q 397 879 390 900 q 403 836 403 858 q 383 773 403 792 q 332 754 364 754 l 267 754 l 267 -18 l 382 -18 q 397 -51 390 -31 q 403 -94 403 -71 q 383 -157 403 -137 q 332 -176 364 -176 l 167 -176 q 93 -148 117 -176 q 69 -81 69 -119 l 69 817 q 93 884 69 856 q 167 913 117 913 l 382 913 z "},"\\":{"ha":494,"x_min":19,"x_max":468,"o":"m 468 -35 q 419 -67 450 -54 q 360 -81 388 -81 q 301 -66 325 -81 q 265 -14 276 -51 l 19 883 q 69 916 39 903 q 129 929 100 929 q 187 915 163 929 q 222 861 211 900 l 468 -35 z "},"]":{"ha":428,"x_min":8,"x_max":342,"o":"m 29 -176 q 15 -144 21 -164 q 8 -100 8 -124 q 28 -37 8 -56 q 81 -18 49 -18 l 144 -18 l 144 754 l 29 754 q 15 787 21 767 q 8 831 8 807 q 28 893 8 874 q 81 913 49 913 l 246 913 q 319 884 296 913 q 342 817 342 856 l 342 -81 q 319 -148 342 -119 q 246 -176 296 -176 l 29 -176 z "},"^":{"ha":671,"x_min":54,"x_max":618,"o":"m 224 893 q 268 913 239 904 q 335 922 297 922 q 406 910 375 922 q 449 875 436 899 q 490 801 465 850 q 538 695 514 753 q 584 578 563 638 q 618 476 606 519 q 576 448 603 461 q 519 435 550 435 q 458 451 481 435 q 419 511 436 467 l 331 746 l 325 746 q 301 683 314 718 q 276 608 289 647 q 252 531 264 569 q 232 456 240 492 q 189 439 213 444 q 143 433 165 433 q 80 451 106 433 q 54 508 54 468 q 63 553 54 524 q 86 617 72 582 q 118 692 100 653 q 155 769 136 732 q 192 840 174 807 q 224 893 210 872 z "},"_":{"ha":696,"x_min":0,"x_max":696,"o":"m 21 -244 q 6 -210 13 -231 q 0 -164 0 -189 q 22 -97 0 -118 q 78 -76 43 -76 l 675 -76 q 689 -112 682 -90 q 696 -160 696 -135 q 674 -225 696 -206 q 618 -244 653 -244 l 21 -244 z "},"`":{"ha":419,"x_min":33,"x_max":342,"o":"m 36 894 q 34 909 35 900 q 33 924 33 918 q 60 994 33 968 q 125 1021 86 1021 q 174 1010 150 1021 q 218 975 199 999 l 342 819 q 310 754 336 775 q 253 733 283 733 q 208 741 226 733 q 171 767 190 749 l 36 894 z "},"a":{"ha":743,"x_min":43,"x_max":667,"o":"m 356 135 q 416 141 386 135 q 461 157 446 147 l 461 285 l 347 275 q 276 255 303 271 q 249 207 249 239 q 274 154 249 174 q 356 135 299 135 m 347 689 q 478 674 419 689 q 579 629 538 660 q 644 551 621 599 q 667 440 667 504 l 667 126 q 648 69 667 90 q 603 32 629 47 q 497 -8 560 6 q 356 -22 435 -22 q 128 33 213 -22 q 43 200 43 88 q 100 346 43 296 q 275 408 157 396 l 460 428 l 460 443 q 424 508 460 488 q 319 529 388 529 q 216 517 267 529 q 125 488 165 504 q 97 522 108 499 q 85 571 85 544 q 149 658 85 632 q 242 681 189 674 q 347 689 296 689 z "},"b":{"ha":808,"x_min":81,"x_max":761,"o":"m 436 689 q 564 667 504 689 q 667 600 624 644 q 736 490 711 556 q 761 336 761 424 q 735 182 761 249 q 660 70 708 115 q 545 2 613 25 q 394 -21 478 -21 q 244 0 307 -21 q 140 50 182 21 q 81 156 81 90 l 81 904 q 121 913 96 908 q 176 917 146 917 q 266 896 239 917 q 293 817 293 875 l 293 658 q 357 680 321 671 q 436 689 393 689 m 397 522 q 340 513 365 522 q 292 490 314 504 l 292 172 q 333 154 308 161 q 392 147 358 147 q 502 194 461 147 q 543 336 543 242 q 503 478 543 433 q 397 522 464 522 z "},"c":{"ha":676,"x_min":47,"x_max":628,"o":"m 443 521 q 315 473 368 521 q 263 332 263 425 q 313 193 263 239 q 442 147 364 147 q 520 159 486 147 q 578 183 554 171 q 615 145 601 165 q 628 96 628 125 q 572 11 628 43 q 418 -21 517 -21 q 266 1 335 -21 q 149 68 197 24 q 74 178 100 113 q 47 332 47 244 q 76 489 47 422 q 156 600 106 556 q 272 667 206 644 q 413 689 339 689 q 563 654 508 689 q 618 567 618 619 q 606 521 618 542 q 578 485 594 500 q 519 510 553 499 q 443 521 485 521 z "},"d":{"ha":804,"x_min":47,"x_max":722,"o":"m 397 689 q 458 684 429 689 q 510 671 486 679 l 510 904 q 550 913 525 908 q 606 917 575 917 q 695 896 668 917 q 722 817 722 875 l 722 140 q 708 84 722 107 q 664 42 694 61 q 564 -1 625 18 q 424 -21 503 -21 q 148 67 249 -21 q 47 332 47 156 q 74 490 47 424 q 149 601 101 557 q 260 667 196 646 q 397 689 324 689 m 511 501 q 472 516 493 510 q 426 522 450 522 q 307 476 351 522 q 263 331 263 431 q 305 191 263 235 q 422 147 347 147 q 474 153 451 147 q 511 168 497 160 l 511 501 z "},"e":{"ha":754,"x_min":47,"x_max":710,"o":"m 258 246 q 326 163 278 188 q 439 139 375 139 q 549 155 497 139 q 632 190 600 171 q 667 154 653 176 q 681 106 681 132 q 661 50 681 74 q 608 10 642 26 q 527 -13 574 -6 q 425 -21 481 -21 q 274 2 343 -21 q 154 70 204 25 q 76 183 104 115 q 47 343 47 251 q 76 497 47 432 q 152 606 104 563 q 262 669 200 649 q 389 689 324 689 q 519 667 460 689 q 620 607 578 646 q 686 514 663 568 q 710 396 710 460 q 686 329 710 351 q 619 300 663 307 l 258 246 m 390 532 q 291 495 331 532 q 244 389 251 458 l 510 432 q 478 500 507 468 q 390 532 449 532 z "},"f":{"ha":589,"x_min":81,"x_max":572,"o":"m 283 619 l 519 619 q 534 585 526 606 q 542 539 542 564 q 522 475 542 494 q 469 456 501 456 l 293 456 l 293 1 q 254 -6 279 -3 q 199 -10 229 -10 q 108 10 136 -10 q 81 89 81 31 l 81 679 q 103 797 81 747 q 167 878 126 847 q 261 925 207 910 q 378 940 315 940 q 524 915 476 940 q 572 831 572 889 q 562 784 572 804 q 538 753 551 764 q 481 767 511 761 q 414 772 451 772 q 317 749 350 772 q 283 672 283 726 l 283 619 z "},"g":{"ha":778,"x_min":47,"x_max":699,"o":"m 497 54 q 435 34 469 42 q 356 26 400 26 q 237 44 293 26 q 139 100 181 61 q 72 201 97 139 q 47 354 47 264 q 72 499 47 436 q 144 603 97 561 q 255 667 190 646 q 399 689 319 689 q 541 669 476 689 q 642 625 606 649 q 683 584 668 607 q 699 526 699 561 l 699 3 q 672 -122 699 -69 q 599 -209 646 -175 q 490 -260 553 -243 q 356 -276 428 -276 q 226 -264 281 -276 q 139 -232 171 -251 q 92 -143 92 -199 q 104 -90 92 -114 q 132 -54 117 -65 q 222 -92 171 -76 q 329 -108 272 -108 q 452 -81 407 -108 q 497 8 497 -54 l 497 54 m 393 186 q 451 194 426 186 q 494 217 475 203 l 494 501 q 458 515 478 508 q 407 522 438 522 q 299 481 340 522 q 258 353 258 440 q 269 274 258 306 q 297 222 279 242 q 340 194 315 203 q 393 186 364 186 z "},"h":{"ha":804,"x_min":81,"x_max":724,"o":"m 293 1 q 254 -6 279 -3 q 199 -10 229 -10 q 108 10 136 -10 q 81 89 81 31 l 81 904 q 121 913 96 908 q 176 917 146 917 q 266 896 239 917 q 293 817 293 875 l 293 657 q 359 680 322 671 q 439 689 396 689 q 648 622 572 689 q 724 419 724 554 l 724 1 q 685 -6 710 -3 q 629 -10 660 -10 q 539 10 567 -10 q 511 89 511 31 l 511 407 q 480 496 511 469 q 400 522 449 522 q 342 513 368 522 q 293 492 315 504 l 293 1 l 293 1 z "},"i":{"ha":381,"x_min":72,"x_max":308,"o":"m 296 1 q 257 -6 282 -3 q 201 -10 232 -10 q 112 10 139 -10 q 85 89 85 31 l 85 660 q 124 668 99 664 q 179 672 149 672 q 269 651 242 672 q 296 572 296 631 l 296 1 m 72 860 q 105 940 72 907 q 190 974 138 974 q 276 940 243 974 q 308 860 308 907 q 276 778 308 811 q 190 744 243 744 q 105 778 138 744 q 72 860 72 811 z "},"j":{"ha":388,"x_min":-7,"x_max":310,"o":"m 303 -22 q 287 -135 303 -89 q 244 -212 271 -182 q 184 -257 218 -243 q 113 -271 150 -271 q 26 -237 57 -271 q -7 -153 -4 -203 q 67 -95 43 -129 q 90 0 90 -61 l 90 660 q 131 668 106 664 q 186 672 156 672 q 276 651 249 672 q 303 572 303 631 l 303 -22 m 72 860 q 106 940 72 907 q 192 974 139 974 q 277 940 244 974 q 310 860 310 907 q 277 778 310 811 q 192 744 244 744 q 106 778 139 744 q 72 860 72 811 z "},"k":{"ha":753,"x_min":81,"x_max":714,"o":"m 474 343 l 714 110 q 678 20 707 51 q 597 -11 650 -11 q 526 8 557 -11 q 458 72 496 28 l 293 268 l 293 1 q 254 -6 279 -3 q 199 -10 229 -10 q 108 10 136 -10 q 81 89 81 31 l 81 904 q 121 913 96 908 q 176 917 146 917 q 266 896 239 917 q 293 817 293 875 l 293 424 l 544 679 q 649 650 610 679 q 688 578 688 621 q 662 512 688 540 q 582 436 636 483 l 474 343 z "},"l":{"ha":385,"x_min":86,"x_max":299,"o":"m 203 -10 q 113 10 140 -10 q 86 89 86 31 l 86 904 q 126 913 100 908 q 182 917 151 917 q 271 896 243 917 q 299 817 299 875 l 299 1 q 258 -6 283 -3 q 203 -10 233 -10 z "},"m":{"ha":1168,"x_min":78,"x_max":1089,"o":"m 1089 1 q 1049 -6 1074 -3 q 993 -10 1024 -10 q 903 10 931 -10 q 876 89 876 31 l 876 433 q 851 501 876 479 q 783 522 826 522 q 731 513 756 522 q 688 488 707 503 q 690 474 689 481 q 690 460 690 467 l 690 1 q 650 -6 675 -3 q 594 -10 625 -10 q 505 10 532 -10 q 478 89 478 31 l 478 433 q 450 501 478 479 q 382 522 422 522 q 329 513 353 522 q 290 496 306 504 l 290 1 q 251 -6 276 -3 q 196 -10 226 -10 q 106 10 133 -10 q 78 89 78 31 l 78 518 q 93 576 78 554 q 136 618 108 599 q 249 669 182 650 q 390 689 317 689 q 501 673 449 689 q 596 624 553 657 q 690 670 638 651 q 815 689 743 689 q 919 676 869 689 q 1006 633 968 663 q 1066 555 1043 603 q 1089 439 1089 507 l 1089 1 z "},"n":{"ha":801,"x_min":78,"x_max":722,"o":"m 510 426 q 481 499 510 475 q 403 522 451 522 q 342 514 369 522 q 290 493 314 506 l 290 1 q 251 -6 276 -3 q 196 -10 226 -10 q 106 10 133 -10 q 78 89 78 31 l 78 518 q 93 576 78 554 q 136 618 108 599 q 251 669 181 650 q 406 689 321 689 q 640 622 557 689 q 722 432 722 556 l 722 1 q 682 -6 707 -3 q 626 -10 657 -10 q 537 10 564 -10 q 510 89 510 31 l 510 426 l 510 426 z "},"o":{"ha":806,"x_min":47,"x_max":757,"o":"m 757 335 q 732 187 757 253 q 660 75 707 121 q 549 4 614 29 q 403 -21 483 -21 q 256 3 322 -21 q 144 74 190 28 q 72 185 97 119 q 47 335 47 251 q 73 481 47 415 q 145 593 99 547 q 258 664 192 639 q 403 689 324 689 q 547 664 482 689 q 659 592 613 639 q 731 481 706 546 q 757 335 757 415 m 403 522 q 301 474 338 522 q 265 335 265 425 q 301 194 265 242 q 403 146 336 146 q 505 194 469 146 q 540 335 540 243 q 504 473 540 424 q 403 522 468 522 z "},"p":{"ha":803,"x_min":78,"x_max":754,"o":"m 413 -21 q 346 -15 376 -21 q 290 1 315 -8 l 290 -247 q 251 -256 276 -251 q 196 -260 226 -260 q 106 -239 133 -260 q 78 -160 78 -218 l 78 528 q 93 587 78 564 q 136 628 108 610 q 243 672 178 654 q 388 689 308 689 q 535 669 468 689 q 651 606 603 649 q 727 496 700 563 q 754 338 754 429 q 728 183 754 250 q 657 70 703 115 q 549 2 611 25 q 413 -21 486 -21 m 381 147 q 497 194 456 147 q 538 338 538 242 q 498 479 538 436 q 388 522 458 522 q 332 515 356 522 q 289 497 308 507 l 289 171 q 331 153 308 160 q 381 147 353 147 z "},"q":{"ha":804,"x_min":47,"x_max":724,"o":"m 724 -251 q 684 -260 710 -256 q 629 -264 658 -264 q 539 -243 567 -264 q 511 -164 511 -222 l 511 -1 q 456 -15 488 -10 q 390 -21 425 -21 q 253 1 315 -21 q 144 67 190 24 q 73 178 99 111 q 47 332 47 244 q 74 488 47 421 q 151 599 101 554 q 269 666 200 643 q 422 689 338 689 q 565 670 499 689 q 667 628 631 651 q 709 587 694 610 q 724 528 724 564 l 724 -251 m 421 147 q 471 153 449 147 q 513 171 493 160 l 513 501 q 476 515 499 508 q 426 522 454 522 q 307 476 351 522 q 263 332 263 429 q 304 192 263 236 q 421 147 346 147 z "},"r":{"ha":563,"x_min":78,"x_max":542,"o":"m 290 1 q 251 -6 276 -3 q 196 -10 226 -10 q 106 10 133 -10 q 78 89 78 31 l 78 513 q 97 579 78 551 q 151 628 117 607 q 262 672 197 656 q 397 688 326 688 q 542 590 542 688 q 535 547 542 567 q 519 514 528 528 q 442 521 488 521 q 361 511 401 521 q 290 485 321 501 l 290 1 z "},"s":{"ha":671,"x_min":58,"x_max":625,"o":"m 625 196 q 549 35 625 93 q 324 -22 472 -22 q 217 -14 265 -22 q 135 11 169 -6 q 81 53 100 28 q 61 111 61 78 q 74 163 61 142 q 106 199 86 185 q 197 157 146 175 q 317 139 249 139 q 415 194 415 139 q 398 231 415 218 q 339 253 381 243 l 283 265 q 114 338 169 289 q 58 476 58 388 q 138 633 58 575 q 353 690 218 690 q 447 683 403 690 q 524 660 492 675 q 574 622 556 644 q 593 568 593 599 q 582 519 593 540 q 553 483 571 497 q 520 499 542 490 q 474 514 499 507 q 421 525 449 521 q 369 529 393 529 q 294 516 321 529 q 267 476 267 503 q 282 446 267 457 q 338 425 297 435 l 390 413 q 571 332 517 385 q 625 196 625 279 z "},"t":{"ha":544,"x_min":81,"x_max":503,"o":"m 290 221 q 315 165 290 182 q 385 147 340 147 q 429 152 406 147 q 469 164 453 157 q 490 132 482 150 q 499 90 499 114 q 460 10 499 42 q 328 -21 422 -21 q 146 33 211 -21 q 81 207 81 86 l 81 831 q 121 840 96 835 q 175 844 146 844 q 263 823 236 844 q 290 744 290 801 l 290 654 l 482 654 q 496 619 489 640 q 503 574 503 597 q 483 510 503 529 q 431 490 463 490 l 290 490 l 290 221 l 290 221 z "},"u":{"ha":800,"x_min":78,"x_max":722,"o":"m 722 139 q 665 39 722 74 q 556 -5 621 11 q 411 -21 490 -21 q 275 -5 336 -21 q 170 46 214 11 q 102 133 126 81 q 78 261 78 186 l 78 665 q 118 674 93 669 q 174 678 143 678 q 263 657 236 678 q 290 578 290 636 l 290 263 q 322 173 290 200 q 413 146 354 146 q 473 152 449 146 q 510 165 497 158 l 510 665 q 549 674 524 669 q 604 678 574 678 q 694 657 667 678 q 722 578 722 636 l 722 139 l 722 139 z "},"v":{"ha":743,"x_min":31,"x_max":707,"o":"m 604 682 q 677 663 647 682 q 707 597 707 643 q 697 535 707 576 q 669 440 686 493 q 631 327 653 388 q 587 209 610 267 q 542 101 564 151 q 501 18 519 51 q 451 -3 485 6 q 375 -12 417 -12 q 292 0 326 -12 q 242 40 257 13 q 212 106 229 64 q 174 199 194 147 q 133 310 154 251 q 93 428 113 369 q 57 541 74 488 q 31 638 40 594 q 77 669 47 656 q 142 682 107 682 q 214 663 186 682 q 256 594 242 644 l 317 375 q 350 260 333 317 q 375 172 367 204 l 382 172 q 446 408 414 281 q 506 658 478 536 q 604 682 549 682 z "},"w":{"ha":1082,"x_min":36,"x_max":1043,"o":"m 547 397 q 519 292 535 346 q 489 186 504 238 q 460 92 474 135 q 438 21 446 49 q 318 -12 400 -12 q 231 1 268 -12 q 181 43 193 15 q 144 149 165 76 q 103 307 124 221 q 65 482 83 393 q 36 638 47 571 q 83 669 53 656 q 147 682 113 682 q 219 662 192 682 q 254 593 247 642 q 278 426 268 496 q 297 308 289 357 q 312 230 306 260 q 321 183 318 200 l 326 183 q 343 250 332 206 q 369 351 354 294 q 402 472 385 407 q 436 601 419 536 q 485 623 460 615 q 547 631 511 631 q 623 616 592 631 q 663 572 654 601 q 697 449 681 510 q 728 338 714 389 q 752 246 742 286 q 768 183 763 206 l 775 183 q 813 413 794 293 q 846 657 831 533 q 893 676 868 669 q 943 682 918 682 q 1015 663 986 682 q 1043 599 1043 644 q 1035 533 1043 578 q 1016 433 1028 489 q 989 316 1004 378 q 958 197 974 254 q 928 93 943 140 q 904 21 914 46 q 853 -3 889 6 q 775 -12 817 -12 q 651 39 669 -12 q 628 107 642 67 q 599 195 614 147 q 571 295 585 243 q 547 397 557 347 z "},"x":{"ha":715,"x_min":39,"x_max":683,"o":"m 106 196 q 167 269 136 232 q 229 342 197 306 l 39 571 q 78 649 49 619 q 151 678 108 678 q 188 673 172 678 q 216 658 203 668 q 241 634 229 649 q 267 601 253 619 l 367 467 l 525 676 q 536 678 531 678 q 546 678 542 678 q 639 653 604 678 q 674 588 674 628 q 658 531 674 556 q 603 461 643 506 l 494 338 l 683 89 q 646 13 676 40 q 571 -14 615 -14 q 497 13 525 -12 q 440 78 468 39 l 351 206 l 199 -10 q 185 -10 193 -10 q 171 -11 176 -11 q 75 15 108 -11 q 42 81 42 42 q 56 133 42 110 q 106 196 69 156 z "},"y":{"ha":749,"x_min":31,"x_max":713,"o":"m 189 167 q 116 348 157 236 q 31 638 75 460 q 77 669 47 656 q 142 682 107 682 q 214 663 186 682 q 257 594 242 644 q 319 394 288 493 q 382 196 350 296 l 388 196 q 422 299 404 243 q 457 416 440 356 q 488 538 474 476 q 514 658 503 600 q 604 682 557 682 q 681 663 649 682 q 713 599 713 643 q 695 472 713 549 q 649 310 678 394 q 585 144 621 226 q 513 -1 550 61 q 372 -198 435 -133 q 246 -262 310 -262 q 161 -231 194 -262 q 121 -151 128 -200 q 213 -60 165 -112 q 294 44 261 -8 q 245 76 271 51 q 189 167 219 100 z "},"z":{"ha":665,"x_min":50,"x_max":626,"o":"m 93 0 q 62 42 74 18 q 50 94 50 65 q 62 145 50 121 q 92 192 74 169 l 353 503 l 78 503 q 63 538 71 517 q 56 585 56 560 q 76 649 56 629 q 128 668 96 668 l 567 668 q 599 626 586 650 q 611 572 611 603 q 599 523 611 547 q 569 476 588 499 l 313 164 l 604 164 q 619 129 613 151 q 626 83 626 107 q 606 19 626 39 q 554 0 586 0 l 93 0 l 93 0 z "},"{":{"ha":453,"x_min":36,"x_max":415,"o":"m 256 372 q 335 211 335 335 l 335 51 q 358 -16 335 4 q 413 -43 381 -36 q 415 -62 415 -53 q 415 -79 415 -71 q 385 -158 415 -133 q 307 -182 356 -182 q 188 -135 235 -182 q 140 8 140 -87 l 140 157 q 117 254 140 221 q 46 300 94 288 q 39 334 42 315 q 36 372 36 353 q 39 410 36 392 q 46 444 42 429 q 117 490 94 456 q 140 586 140 524 l 140 731 q 189 873 140 826 q 311 919 238 919 q 388 897 360 919 q 415 817 415 874 q 415 800 415 808 q 413 781 415 792 q 358 753 381 774 q 335 686 335 733 l 335 532 q 256 372 335 410 z "},"|":{"ha":382,"x_min":97,"x_max":286,"o":"m 286 -237 q 249 -244 272 -240 q 201 -247 225 -247 q 124 -231 151 -247 q 97 -158 97 -214 l 97 939 q 133 945 110 942 q 181 949 157 949 q 258 931 231 949 q 286 858 286 914 l 286 -237 z "},"}":{"ha":453,"x_min":38,"x_max":417,"o":"m 197 372 q 118 532 118 410 l 118 686 q 95 753 118 733 q 40 781 72 774 q 38 800 38 792 q 38 817 38 808 q 65 897 38 874 q 142 919 93 919 q 264 873 215 919 q 313 731 313 826 l 313 586 q 335 490 313 524 q 407 444 358 456 q 414 410 411 429 q 417 372 417 392 q 414 334 417 353 q 407 300 411 315 q 335 254 358 288 q 313 157 313 221 l 313 8 q 265 -135 313 -87 q 146 -182 218 -182 q 67 -158 97 -182 q 38 -79 38 -133 q 38 -62 38 -71 q 40 -43 38 -53 q 95 -16 72 -36 q 118 51 118 4 l 118 211 q 197 372 118 335 z "},"~":{"ha":685,"x_min":26,"x_max":660,"o":"m 449 426 q 500 445 482 426 q 531 485 518 464 q 580 476 557 485 q 621 452 603 468 q 649 415 639 436 q 660 367 660 393 q 647 308 660 333 q 612 267 633 283 q 561 242 590 250 q 499 233 532 233 q 431 241 464 233 q 367 258 399 249 q 303 274 335 267 q 238 282 271 282 q 183 262 201 282 q 154 225 165 242 q 106 233 129 225 q 65 258 82 242 q 37 295 47 274 q 26 343 26 317 q 40 401 26 376 q 77 443 54 426 q 128 467 100 460 q 186 475 157 475 q 257 467 224 475 q 323 451 290 460 q 386 434 356 442 q 449 426 417 426 z "}," ":{"ha":278,"x_min":0,"x_max":0,"o":""},"¡":{"ha":401,"x_min":79,"x_max":325,"o":"m 92 -133 q 93 -42 92 -100 q 98 84 94 17 q 108 219 101 151 q 122 339 114 286 q 158 353 133 349 q 201 358 183 358 q 262 347 238 358 q 293 303 286 335 q 303 206 299 269 q 311 71 308 143 q 316 -74 314 -1 q 318 -200 318 -146 q 262 -223 293 -215 q 199 -231 231 -231 q 120 -206 149 -231 q 92 -133 92 -182 m 325 551 q 292 465 325 499 q 201 431 260 431 q 112 465 144 431 q 79 551 79 499 q 112 638 79 604 q 201 672 144 672 q 292 638 260 672 q 325 551 325 604 z "},"¢":{"ha":679,"x_min":46,"x_max":625,"o":"m 440 521 q 370 509 403 521 q 313 473 338 497 q 275 413 289 449 q 261 332 261 378 q 312 193 261 239 q 440 147 363 147 q 518 159 485 147 q 576 183 551 171 q 613 145 600 165 q 625 96 625 125 q 581 19 625 49 q 458 -18 538 -11 l 458 -125 q 424 -133 447 -129 q 375 -136 401 -136 q 296 -117 321 -136 q 271 -47 271 -97 l 271 0 q 106 115 165 32 q 46 332 46 197 q 63 454 46 400 q 109 550 79 508 q 181 621 139 592 q 271 667 222 650 l 271 796 q 306 803 283 800 q 354 807 328 807 q 433 788 408 807 q 458 718 458 769 l 458 686 q 575 644 533 676 q 617 567 617 611 q 604 521 617 542 q 576 485 592 500 q 517 510 551 499 q 440 521 483 521 z "},"£":{"ha":700,"x_min":54,"x_max":674,"o":"m 169 315 q 169 326 169 321 q 168 339 169 332 l 129 339 q 78 358 97 339 q 58 425 58 378 q 65 469 58 449 q 79 504 72 490 l 151 504 q 149 540 150 522 q 149 572 149 557 q 174 705 149 649 q 241 797 199 761 q 340 849 283 832 q 461 867 397 867 q 603 836 554 867 q 651 749 651 806 q 640 701 651 725 q 613 665 628 676 q 560 688 588 681 q 494 696 533 696 q 392 665 428 696 q 357 563 357 633 q 358 535 357 550 q 360 504 358 519 l 558 504 q 572 469 565 490 q 579 425 579 449 q 559 358 579 378 q 507 339 539 339 l 374 339 q 375 325 375 332 q 375 313 375 318 q 326 165 375 225 l 653 165 q 667 130 660 151 q 674 85 674 108 q 653 20 674 40 q 601 0 633 0 l 139 0 q 79 26 104 0 q 54 101 54 53 q 54 112 54 108 q 56 122 54 115 q 140 191 111 149 q 169 315 169 233 z "},"¤":{"ha":774,"x_min":78,"x_max":692,"o":"m 672 406 q 658 308 672 351 q 617 231 643 264 l 692 140 q 655 90 676 107 q 608 74 633 74 q 565 92 585 74 q 528 133 546 111 l 511 154 q 451 136 483 142 q 385 131 419 131 q 256 154 311 131 l 189 68 q 125 92 153 75 q 97 140 97 110 q 108 179 97 160 q 138 222 118 199 l 147 235 q 93 406 93 301 q 108 502 93 458 q 149 579 122 546 l 78 665 q 115 715 93 699 q 161 731 136 731 q 204 712 185 731 q 242 671 224 693 l 253 657 q 382 682 311 682 q 521 653 458 682 l 585 738 q 648 713 621 731 q 675 665 675 696 q 665 626 675 646 q 636 583 654 607 l 625 568 q 660 495 647 536 q 672 406 672 454 m 494 406 q 463 506 494 472 q 383 540 432 540 q 302 506 333 540 q 271 406 271 472 q 302 306 271 340 q 383 272 333 272 q 463 306 432 272 q 494 406 494 340 z "},"¥":{"ha":815,"x_min":47,"x_max":761,"o":"m 99 360 q 86 388 92 371 q 81 425 81 406 q 97 478 81 463 q 139 494 114 494 l 207 494 q 115 651 158 574 q 47 789 72 728 q 90 830 63 811 q 157 849 117 849 q 233 828 204 849 q 290 756 263 808 l 417 514 l 425 514 q 463 594 446 558 q 494 666 479 631 q 525 740 508 701 q 563 826 542 778 q 612 843 585 838 q 663 849 639 849 q 733 826 706 849 q 761 760 761 803 q 755 728 761 747 q 733 677 749 708 q 693 601 718 646 q 631 494 668 557 l 733 494 q 745 464 739 481 q 751 428 751 447 q 734 376 751 392 q 692 360 717 360 l 99 360 m 522 154 l 522 1 q 480 -6 507 -3 q 424 -10 453 -10 q 334 13 360 -10 q 308 90 308 35 l 308 154 l 99 154 q 86 183 92 165 q 81 219 81 200 q 97 273 81 257 q 139 289 114 289 l 732 289 q 744 258 739 276 q 750 221 750 240 q 733 169 750 185 q 692 154 717 154 l 522 154 z "},"¦":{"ha":407,"x_min":97,"x_max":286,"o":"m 286 433 q 249 427 272 431 q 201 424 225 424 q 124 440 151 424 q 97 514 97 457 l 97 939 q 133 945 110 942 q 181 949 157 949 q 258 931 231 949 q 286 858 286 914 l 286 433 m 286 -237 q 249 -244 272 -240 q 201 -247 225 -247 q 124 -231 151 -247 q 97 -158 97 -214 l 97 267 q 133 273 110 269 q 181 276 157 276 q 258 259 231 276 q 286 186 286 242 l 286 -237 z "},"§":{"ha":747,"x_min":72,"x_max":675,"o":"m 675 388 q 658 313 675 347 q 615 254 642 278 q 675 124 675 207 q 592 -32 675 25 q 347 -89 510 -89 q 239 -81 289 -89 q 152 -56 189 -72 q 95 -14 115 -39 q 75 44 75 11 q 88 97 75 76 q 121 132 101 118 q 215 90 161 108 q 340 72 269 72 q 437 87 408 72 q 465 126 465 101 q 447 160 465 150 q 385 179 429 171 l 294 194 q 127 262 182 213 q 72 399 72 311 q 135 528 72 481 q 78 663 78 576 q 158 813 78 760 q 372 867 239 867 q 470 859 424 867 q 552 837 517 851 q 608 799 588 822 q 628 746 628 776 q 617 697 628 718 q 589 661 606 675 q 553 677 576 669 q 501 691 529 685 q 444 701 474 697 q 389 706 415 706 q 313 693 340 706 q 285 654 285 681 q 301 625 285 635 q 354 610 318 615 l 440 596 q 675 388 675 558 m 271 404 q 288 366 271 385 q 343 340 304 347 l 453 318 q 470 345 464 332 q 476 376 476 358 q 456 418 476 400 q 394 443 436 436 l 294 461 q 271 404 271 438 z "},"¨":{"ha":519,"x_min":8,"x_max":511,"o":"m 224 868 q 194 794 224 824 q 115 764 164 764 q 38 794 67 764 q 8 868 8 824 q 38 944 8 913 q 115 975 67 975 q 194 944 164 975 q 224 868 224 913 m 511 868 q 482 794 511 824 q 404 764 453 764 q 326 794 356 764 q 296 868 296 824 q 326 944 296 913 q 404 975 356 975 q 482 944 453 975 q 511 868 511 913 z "},"©":{"ha":990,"x_min":54,"x_max":936,"o":"m 54 425 q 85 594 54 515 q 174 732 117 674 q 313 824 232 790 q 493 857 394 857 q 673 824 592 857 q 813 732 754 790 q 903 594 871 674 q 936 425 936 515 q 903 256 936 335 q 813 120 871 178 q 673 30 754 63 q 493 -3 592 -3 q 313 30 394 -3 q 174 120 232 63 q 85 256 117 178 q 54 425 54 335 m 493 742 q 367 718 422 742 q 272 652 311 694 q 211 551 232 610 q 190 425 190 493 q 211 300 190 357 q 272 202 232 243 q 367 138 311 161 q 493 115 422 115 q 620 138 564 115 q 715 202 676 161 q 775 300 754 243 q 796 425 796 357 q 775 551 796 493 q 715 652 754 610 q 620 718 676 694 q 493 742 564 742 m 543 531 q 472 505 501 531 q 442 431 442 479 q 470 355 442 382 q 543 328 499 328 q 590 335 571 328 q 625 350 610 342 q 656 285 656 326 q 618 232 656 256 q 517 208 581 208 q 429 223 469 208 q 359 266 389 238 q 312 336 329 294 q 294 432 294 378 q 315 529 294 488 q 367 598 335 571 q 440 638 400 625 q 518 651 479 651 q 613 628 576 651 q 649 571 649 606 q 621 508 649 533 q 588 524 607 517 q 543 531 568 531 z "},"ª":{"ha":492,"x_min":26,"x_max":433,"o":"m 231 507 q 269 510 250 507 q 299 519 288 514 l 299 601 l 228 594 q 180 582 197 592 q 163 553 163 572 q 178 519 163 532 q 231 507 194 507 m 224 864 q 376 826 319 864 q 433 701 433 788 l 433 496 q 421 462 433 475 q 392 438 408 449 q 231 403 336 403 q 82 439 138 403 q 26 547 26 475 q 64 643 26 610 q 181 685 101 676 l 297 696 l 297 703 q 274 746 297 733 q 206 758 250 758 q 138 750 172 758 q 79 729 104 742 q 60 753 68 738 q 53 786 53 769 q 63 821 53 808 q 94 843 72 833 q 156 859 119 854 q 224 864 192 864 z "},"«":{"ha":769,"x_min":42,"x_max":724,"o":"m 393 128 q 369 62 393 92 q 294 32 344 32 q 244 47 267 32 q 200 86 222 63 l 61 228 q 48 263 54 242 q 42 304 42 283 q 52 368 42 344 q 78 407 63 392 l 281 606 q 353 567 329 593 q 378 511 378 542 q 367 462 378 483 q 319 406 356 440 l 217 308 l 393 128 m 724 128 q 699 62 724 92 q 625 32 675 32 q 575 47 597 32 q 531 86 553 63 l 392 228 q 378 263 383 242 q 372 304 372 283 q 382 368 372 344 q 407 407 392 392 l 611 606 q 684 567 660 593 q 708 511 708 542 q 697 462 708 483 q 649 406 685 440 l 547 308 l 724 128 z "},"¬":{"ha":738,"x_min":47,"x_max":689,"o":"m 596 606 q 664 581 639 606 q 689 511 689 556 l 689 253 q 649 245 676 249 q 599 242 622 242 q 519 260 546 242 q 492 338 492 279 l 492 442 l 68 442 q 54 476 61 456 q 47 522 47 497 q 67 586 47 567 q 121 606 88 606 l 596 606 z "},"­":{"ha":501,"x_min":49,"x_max":453,"o":"m 71 269 q 56 306 63 283 q 49 353 49 328 q 69 419 49 399 q 126 440 90 440 l 429 440 q 444 405 436 428 q 453 357 453 382 q 431 290 453 311 q 375 269 410 269 l 71 269 z "},"®":{"ha":860,"x_min":57,"x_max":803,"o":"m 57 518 q 83 659 57 593 q 159 774 110 725 q 277 851 208 824 q 429 879 346 879 q 580 851 511 879 q 698 774 649 824 q 775 659 747 725 q 803 518 803 593 q 775 377 803 443 q 698 263 747 311 q 580 186 649 214 q 429 158 511 158 q 277 186 346 158 q 159 263 208 214 q 83 377 110 311 q 57 518 57 443 m 172 518 q 190 413 172 461 q 242 331 208 365 q 323 278 275 297 q 429 258 371 258 q 535 278 488 258 q 615 331 582 297 q 666 413 649 365 q 683 518 683 461 q 666 623 683 575 q 615 706 649 671 q 535 761 582 742 q 429 781 488 781 q 323 761 371 781 q 242 706 275 742 q 190 623 208 671 q 172 518 172 575 m 400 471 l 400 364 q 379 361 392 363 q 350 360 367 360 q 315 367 328 360 q 303 401 303 375 l 303 661 q 326 688 303 679 q 419 699 368 699 q 532 668 494 699 q 569 583 569 638 q 552 524 569 547 q 508 489 535 501 l 579 394 q 560 367 575 376 q 526 357 544 357 q 490 367 503 357 q 465 397 478 378 l 418 471 l 400 471 m 425 542 q 472 583 472 542 q 422 624 472 624 q 409 623 415 624 q 400 622 403 622 l 400 542 l 425 542 z "},"¯":{"ha":496,"x_min":24,"x_max":472,"o":"m 44 785 q 31 819 38 799 q 24 863 24 840 q 42 927 24 908 q 93 946 61 946 l 451 946 q 467 912 463 932 q 472 868 472 892 q 453 803 472 822 q 403 785 435 785 l 44 785 z "},"°":{"ha":501,"x_min":28,"x_max":472,"o":"m 472 664 q 456 578 472 615 q 409 515 439 540 q 339 475 379 489 q 251 461 299 461 q 162 475 203 461 q 91 515 121 489 q 44 578 61 540 q 28 664 28 615 q 44 749 28 711 q 92 812 61 786 q 163 851 122 838 q 251 864 203 864 q 339 851 299 864 q 409 812 379 838 q 456 749 439 786 q 472 664 472 711 m 251 740 q 201 722 224 740 q 179 664 179 704 q 201 603 179 622 q 251 583 222 583 q 301 603 279 583 q 322 664 322 622 q 301 722 322 704 q 251 740 279 740 z "},"±":{"ha":704,"x_min":47,"x_max":657,"o":"m 450 606 l 636 606 q 650 569 643 592 q 657 521 657 547 q 636 457 657 476 q 579 438 615 438 l 450 438 l 450 254 q 412 247 438 251 q 363 243 386 243 q 285 260 311 243 q 258 335 258 278 l 258 438 l 68 438 q 53 472 60 451 q 47 517 47 492 q 69 584 47 563 q 125 606 90 606 l 258 606 l 258 782 q 297 790 271 785 q 346 794 322 794 q 423 776 396 794 q 450 703 450 758 l 450 606 m 68 0 q 53 35 60 14 q 47 81 47 56 q 69 147 47 126 q 125 168 90 168 l 636 168 q 650 132 643 154 q 657 85 657 110 q 636 19 657 39 q 579 0 615 0 l 68 0 z "},"²":{"ha":388,"x_min":31,"x_max":354,"o":"m 174 972 q 301 933 256 972 q 347 828 347 894 q 321 745 347 785 q 249 669 294 706 l 186 619 l 342 619 q 350 597 346 610 q 354 569 354 585 q 308 518 354 518 l 61 518 q 39 543 47 528 q 31 579 31 558 q 51 643 31 626 l 156 735 q 208 789 196 771 q 221 824 221 807 q 205 858 221 844 q 163 871 189 871 q 110 862 132 871 q 74 842 89 853 q 54 865 63 850 q 46 900 46 879 q 81 954 46 936 q 174 972 115 972 z "},"³":{"ha":393,"x_min":21,"x_max":357,"o":"m 172 793 q 222 829 222 793 q 157 871 222 871 q 106 863 129 871 q 64 846 82 856 q 33 903 33 865 q 73 956 33 939 q 176 974 113 974 q 304 938 260 974 q 349 843 349 901 q 331 788 349 813 q 289 750 314 763 q 338 710 318 738 q 357 642 357 683 q 306 542 357 578 q 175 506 256 506 q 61 528 101 506 q 21 585 21 551 q 31 619 21 604 q 56 642 40 635 q 101 619 76 629 q 161 610 126 610 q 231 653 231 610 q 175 696 231 696 l 107 696 q 97 717 101 704 q 93 744 93 729 q 107 793 93 775 l 172 793 z "},"´":{"ha":414,"x_min":79,"x_max":378,"o":"m 249 1028 q 345 999 313 1026 q 378 936 378 972 q 365 888 378 907 q 322 842 353 868 l 192 731 q 108 756 136 731 q 79 814 79 782 q 85 843 79 829 q 110 876 92 857 l 249 1028 z "},"µ":{"ha":800,"x_min":79,"x_max":722,"o":"m 722 139 q 708 82 722 106 q 667 39 694 58 q 576 -3 629 15 q 443 -21 522 -21 q 344 -8 385 -21 q 275 29 303 6 q 287 -70 282 -22 q 292 -172 292 -118 l 292 -229 q 251 -242 275 -236 q 196 -249 226 -249 q 106 -228 133 -249 q 79 -149 79 -207 l 79 665 q 119 674 93 669 q 174 678 144 678 q 264 657 236 678 q 292 578 292 636 l 292 263 q 323 173 292 200 q 413 146 354 146 q 473 152 449 146 q 510 165 497 158 l 510 665 q 550 674 525 669 q 606 678 575 678 q 694 657 667 678 q 722 578 722 636 l 722 139 l 722 139 z "},"¶":{"ha":735,"x_min":22,"x_max":654,"o":"m 538 851 q 624 833 593 851 q 654 751 654 814 l 654 -96 q 615 -103 642 -99 q 560 -107 588 -107 q 474 -88 504 -107 q 443 -8 443 -69 l 443 672 l 347 672 l 347 328 q 327 299 347 310 q 263 288 307 288 q 176 303 218 288 q 99 353 133 319 q 43 438 64 386 q 22 560 22 489 q 48 688 22 633 q 117 779 74 743 q 219 833 161 815 q 340 851 276 851 l 538 851 z "},"·":{"ha":306,"x_min":29,"x_max":276,"o":"m 29 372 q 62 461 29 425 q 153 497 94 497 q 243 461 210 497 q 276 372 276 425 q 243 283 276 319 q 153 247 210 247 q 62 283 94 247 q 29 372 29 319 z "},"¸":{"ha":271,"x_min":-22,"x_max":261,"o":"m 171 47 q 241 -25 221 18 q 261 -117 261 -68 q 217 -233 261 -187 q 97 -278 174 -278 q 10 -252 43 -278 q -22 -179 -22 -226 q -15 -139 -22 -160 l 0 -139 q 64 -118 44 -139 q 83 -65 83 -97 q 77 -30 83 -50 q 56 6 71 -10 l 171 47 z "},"¹":{"ha":306,"x_min":13,"x_max":244,"o":"m 118 828 l 57 807 q 27 832 42 814 q 13 875 13 850 q 24 911 13 897 q 54 932 35 925 l 156 971 l 176 971 q 226 952 208 971 q 244 901 244 933 l 244 519 q 219 514 236 517 q 186 511 203 511 q 136 523 154 511 q 118 571 118 535 l 118 828 z "},"º":{"ha":546,"x_min":40,"x_max":499,"o":"m 499 635 q 435 463 499 522 q 269 404 372 404 q 103 465 165 404 q 40 635 40 526 q 103 803 40 743 q 269 864 165 864 q 435 802 372 864 q 499 635 499 740 m 269 754 q 206 724 229 754 q 183 635 183 693 q 206 546 183 576 q 269 515 229 515 q 332 546 310 515 q 354 635 354 576 q 332 723 354 692 q 269 754 310 754 z "},"»":{"ha":769,"x_min":47,"x_max":728,"o":"m 376 511 q 401 576 376 547 q 475 606 425 606 q 525 591 503 606 q 569 553 547 576 l 708 410 q 722 376 715 397 q 728 335 728 356 q 717 271 728 294 q 692 232 707 247 l 489 32 q 416 72 440 46 q 392 128 392 97 q 403 177 392 156 q 450 233 414 199 l 553 331 l 376 511 m 47 511 q 71 576 47 547 q 144 606 94 606 q 194 591 172 606 q 239 553 217 576 l 378 410 q 392 376 386 397 q 397 335 397 356 q 387 271 397 294 q 361 232 376 247 l 158 32 q 85 72 110 46 q 61 128 61 97 q 64 153 61 142 q 73 177 67 165 q 91 202 79 189 q 121 233 103 215 l 222 331 l 47 511 z "},"¿":{"ha":682,"x_min":38,"x_max":635,"o":"m 486 361 q 526 318 508 346 q 544 250 544 290 q 524 192 544 211 q 461 163 503 174 l 356 136 q 286 100 308 121 q 264 39 264 79 q 294 -24 264 4 q 393 -51 324 -51 q 501 -37 450 -51 q 583 0 551 -22 q 620 -40 606 -17 q 635 -96 635 -64 q 615 -155 635 -129 q 559 -197 594 -181 q 474 -222 524 -214 q 365 -231 424 -231 q 225 -210 286 -231 q 122 -155 164 -190 q 59 -69 81 -119 q 38 39 38 -19 q 115 230 38 160 q 347 332 192 300 l 486 361 m 526 551 q 494 465 526 499 q 403 431 461 431 q 313 465 346 431 q 281 551 281 499 q 313 638 281 604 q 403 672 346 672 q 494 638 461 672 q 526 551 526 604 z "},"À":{"ha":861,"x_min":33,"x_max":835,"o":"m 565 185 l 293 185 q 265 86 278 135 q 242 0 251 38 q 204 -10 224 -6 q 157 -14 185 -14 q 65 8 96 -14 q 33 69 33 29 q 39 107 33 89 q 51 149 44 125 q 79 242 61 186 q 119 362 97 297 q 164 494 140 426 q 210 624 188 563 q 250 738 232 686 q 281 819 268 789 q 345 843 301 832 q 432 854 389 854 q 542 837 494 854 q 604 779 590 819 q 661 608 631 706 q 723 408 692 511 q 783 206 754 306 q 835 26 813 106 q 790 -3 819 8 q 718 -14 760 -14 q 634 7 658 -14 q 599 72 610 28 l 565 185 m 431 660 q 383 517 411 597 q 329 354 354 438 l 528 354 q 480 522 504 442 q 439 660 456 601 l 431 660 m 217 1035 q 215 1049 215 1040 q 215 1063 215 1058 q 241 1135 215 1108 q 306 1161 267 1161 q 353 1149 331 1161 q 399 1114 375 1138 l 518 992 q 486 926 513 947 q 429 906 460 906 q 383 915 403 906 q 344 939 364 924 l 217 1035 z "},"Á":{"ha":861,"x_min":33,"x_max":835,"o":"m 565 185 l 293 185 q 265 86 278 135 q 242 0 251 38 q 204 -10 224 -6 q 157 -14 185 -14 q 65 8 96 -14 q 33 69 33 29 q 39 107 33 89 q 51 149 44 125 q 79 242 61 186 q 119 362 97 297 q 164 494 140 426 q 210 624 188 563 q 250 738 232 686 q 281 819 268 789 q 345 843 301 832 q 432 854 389 854 q 542 837 494 854 q 604 779 590 819 q 661 608 631 706 q 723 408 692 511 q 783 206 754 306 q 835 26 813 106 q 790 -3 819 8 q 718 -14 760 -14 q 634 7 658 -14 q 599 72 610 28 l 565 185 m 431 660 q 383 517 411 597 q 329 354 354 438 l 528 354 q 480 522 504 442 q 439 660 456 601 l 431 660 m 535 1168 q 617 1142 588 1168 q 647 1079 647 1117 q 635 1032 647 1053 q 588 989 622 1011 l 453 904 q 376 926 403 904 q 350 979 350 949 q 356 1010 350 996 q 381 1042 361 1025 l 535 1168 z "},"Â":{"ha":861,"x_min":33,"x_max":835,"o":"m 443 1024 q 378 963 411 994 q 313 904 344 932 q 247 926 274 904 q 221 983 221 949 q 234 1030 221 1011 q 281 1075 247 1049 l 329 1115 q 392 1156 365 1143 q 446 1168 419 1168 q 506 1155 479 1168 q 561 1114 533 1142 l 674 997 q 651 931 674 953 q 588 908 628 908 q 540 924 561 908 q 488 974 519 940 l 443 1024 m 565 185 l 293 185 q 265 86 278 135 q 242 0 251 38 q 204 -10 224 -6 q 157 -14 185 -14 q 65 8 96 -14 q 33 69 33 29 q 39 107 33 89 q 51 149 44 125 q 79 242 61 186 q 119 362 97 297 q 164 494 140 426 q 210 624 188 563 q 250 738 232 686 q 281 819 268 789 q 345 843 301 832 q 432 854 389 854 q 542 837 494 854 q 604 779 590 819 q 661 608 631 706 q 723 408 692 511 q 783 206 754 306 q 835 26 813 106 q 790 -3 819 8 q 718 -14 760 -14 q 634 7 658 -14 q 599 72 610 28 l 565 185 m 431 660 q 383 517 411 597 q 329 354 354 438 l 528 354 q 480 522 504 442 q 439 660 456 601 l 431 660 z "},"Ã":{"ha":861,"x_min":33,"x_max":835,"o":"m 565 185 l 293 185 q 265 86 278 135 q 242 0 251 38 q 204 -10 224 -6 q 157 -14 185 -14 q 65 8 96 -14 q 33 69 33 29 q 39 107 33 89 q 51 149 44 125 q 79 242 61 186 q 119 362 97 297 q 164 494 140 426 q 210 624 188 563 q 250 738 232 686 q 281 819 268 789 q 345 843 301 832 q 432 854 389 854 q 542 837 494 854 q 604 779 590 819 q 661 608 631 706 q 723 408 692 511 q 783 206 754 306 q 835 26 813 106 q 790 -3 819 8 q 718 -14 760 -14 q 634 7 658 -14 q 599 72 610 28 l 565 185 m 431 660 q 383 517 411 597 q 329 354 354 438 l 528 354 q 480 522 504 442 q 439 660 456 601 l 431 660 m 321 1156 q 377 1149 350 1156 q 429 1135 404 1143 q 476 1120 454 1126 q 514 1114 497 1114 q 558 1131 543 1114 q 581 1163 574 1149 l 588 1163 q 658 1135 628 1163 q 688 1063 688 1107 q 651 976 688 1004 q 558 949 614 949 q 497 955 525 949 q 445 969 469 961 q 401 984 421 978 q 364 990 381 990 q 319 974 335 990 q 297 942 304 957 l 292 942 q 221 969 251 942 q 190 1042 190 996 q 202 1092 190 1071 q 233 1128 214 1114 q 274 1149 251 1142 q 321 1156 297 1156 z "},"Ä":{"ha":861,"x_min":33,"x_max":835,"o":"m 565 185 l 293 185 q 265 86 278 135 q 242 0 251 38 q 204 -10 224 -6 q 157 -14 185 -14 q 65 8 96 -14 q 33 69 33 29 q 39 107 33 89 q 51 149 44 125 q 79 242 61 186 q 119 362 97 297 q 164 494 140 426 q 210 624 188 563 q 250 738 232 686 q 281 819 268 789 q 345 843 301 832 q 432 854 389 854 q 542 837 494 854 q 604 779 590 819 q 661 608 631 706 q 723 408 692 511 q 783 206 754 306 q 835 26 813 106 q 790 -3 819 8 q 718 -14 760 -14 q 634 7 658 -14 q 599 72 610 28 l 565 185 m 431 660 q 383 517 411 597 q 329 354 354 438 l 528 354 q 480 522 504 442 q 439 660 456 601 l 431 660 m 399 1036 q 369 962 399 992 q 290 932 339 932 q 213 962 242 932 q 183 1036 183 992 q 213 1112 183 1081 q 290 1143 242 1143 q 369 1112 339 1143 q 399 1036 399 1081 m 686 1036 q 657 962 686 992 q 579 932 628 932 q 501 962 531 932 q 471 1036 471 992 q 501 1112 471 1081 q 579 1143 531 1143 q 657 1112 628 1143 q 686 1036 686 1081 z "},"Å":{"ha":861,"x_min":33,"x_max":835,"o":"m 565 185 l 293 185 q 265 86 278 135 q 242 0 251 38 q 204 -10 224 -6 q 157 -14 185 -14 q 65 8 96 -14 q 33 69 33 29 q 39 107 33 89 q 51 149 44 125 q 79 242 61 186 q 119 362 97 297 q 164 494 140 426 q 210 624 188 563 q 250 738 232 686 q 281 819 268 789 q 345 843 301 832 q 432 854 389 854 q 542 837 494 854 q 604 779 590 819 q 661 608 631 706 q 723 408 692 511 q 783 206 754 306 q 835 26 813 106 q 790 -3 819 8 q 718 -14 760 -14 q 634 7 658 -14 q 599 72 610 28 l 565 185 m 431 660 q 383 517 411 597 q 329 354 354 438 l 528 354 q 480 522 504 442 q 439 660 456 601 l 431 660 m 263 1044 q 310 1149 263 1107 q 439 1192 357 1192 q 574 1149 526 1192 q 622 1044 622 1107 q 574 941 622 982 q 439 900 526 900 q 310 941 357 900 q 263 1044 263 982 m 393 1044 q 407 1011 393 1024 q 440 999 421 999 q 478 1011 464 999 q 492 1044 492 1024 q 478 1078 492 1065 q 440 1090 464 1090 q 407 1078 421 1090 q 393 1044 393 1065 z "},"Æ":{"ha":1207,"x_min":42,"x_max":1151,"o":"m 664 -3 q 579 28 611 -3 q 547 113 547 60 l 547 185 l 317 185 l 233 1 q 199 -9 215 -4 q 154 -14 182 -14 q 69 8 96 -14 q 42 69 42 31 q 47 107 42 89 q 63 149 51 125 q 106 238 79 185 q 163 354 132 292 q 226 483 193 417 q 292 610 260 549 q 351 725 324 672 q 397 813 378 778 q 451 837 415 825 q 531 849 486 849 q 590 843 557 849 q 650 824 622 838 q 717 842 682 842 l 1122 842 q 1138 807 1131 828 q 1144 760 1144 786 q 1125 692 1144 714 q 1069 669 1106 669 l 760 669 l 760 514 l 1082 514 q 1099 479 1092 500 q 1106 432 1106 458 q 1085 365 1106 386 q 1029 343 1065 343 l 760 343 l 760 169 l 1128 169 q 1144 133 1136 156 q 1151 85 1151 111 q 1131 18 1151 39 q 1075 -3 1111 -3 l 664 -3 m 396 354 l 547 354 l 547 660 l 539 660 l 396 354 z "},"Ç":{"ha":797,"x_min":54,"x_max":753,"o":"m 749 725 q 732 669 749 693 q 693 631 715 644 q 615 672 657 654 q 514 690 572 690 q 340 620 403 690 q 278 421 278 550 q 344 220 278 288 q 525 153 410 153 q 627 169 585 153 q 706 207 669 185 q 740 165 726 190 q 753 107 753 139 q 738 55 753 79 q 688 14 724 31 q 643 -3 669 4 q 581 -17 617 -11 q 600 -65 594 -40 q 606 -117 606 -89 q 562 -233 606 -187 q 442 -278 518 -278 q 355 -252 388 -278 q 322 -179 322 -226 q 329 -139 322 -160 l 344 -139 q 408 -118 389 -139 q 428 -65 428 -97 q 417 -18 428 -44 q 272 23 339 -8 q 157 108 206 54 q 81 240 108 163 q 54 421 54 318 q 88 613 54 529 q 181 752 122 696 q 317 838 239 808 q 483 867 394 867 q 679 826 610 867 q 749 725 749 786 z "},"È":{"ha":760,"x_min":100,"x_max":703,"o":"m 215 -3 q 131 28 163 -3 q 100 113 100 60 l 100 726 q 131 810 100 779 q 215 842 163 842 l 675 842 q 690 807 683 828 q 697 760 697 786 q 677 692 697 714 q 621 669 657 669 l 313 669 l 313 514 l 635 514 q 650 479 643 500 q 657 432 657 458 q 638 365 657 386 q 582 343 618 343 l 313 343 l 313 169 l 681 169 q 696 133 689 156 q 703 85 703 111 q 683 18 703 39 q 628 -3 663 -3 l 215 -3 m 214 1035 q 213 1049 213 1040 q 213 1063 213 1058 q 238 1135 213 1108 q 303 1161 264 1161 q 350 1149 328 1161 q 396 1114 372 1138 l 515 992 q 483 926 510 947 q 426 906 457 906 q 381 915 400 906 q 342 939 361 924 l 214 1035 z "},"É":{"ha":760,"x_min":100,"x_max":703,"o":"m 215 -3 q 131 28 163 -3 q 100 113 100 60 l 100 726 q 131 810 100 779 q 215 842 163 842 l 675 842 q 690 807 683 828 q 697 760 697 786 q 677 692 697 714 q 621 669 657 669 l 313 669 l 313 514 l 635 514 q 650 479 643 500 q 657 432 657 458 q 638 365 657 386 q 582 343 618 343 l 313 343 l 313 169 l 681 169 q 696 133 689 156 q 703 85 703 111 q 683 18 703 39 q 628 -3 663 -3 l 215 -3 m 519 1168 q 602 1142 572 1168 q 632 1079 632 1117 q 619 1032 632 1053 q 572 989 607 1011 l 438 904 q 361 926 388 904 q 335 979 335 949 q 340 1010 335 996 q 365 1042 346 1025 l 519 1168 z "},"Ê":{"ha":760,"x_min":100,"x_max":703,"o":"m 215 -3 q 131 28 163 -3 q 100 113 100 60 l 100 726 q 131 810 100 779 q 215 842 163 842 l 675 842 q 690 807 683 828 q 697 760 697 786 q 677 692 697 714 q 621 669 657 669 l 313 669 l 313 514 l 635 514 q 650 479 643 500 q 657 432 657 458 q 638 365 657 386 q 582 343 618 343 l 313 343 l 313 169 l 681 169 q 696 133 689 156 q 703 85 703 111 q 683 18 703 39 q 628 -3 663 -3 l 215 -3 m 407 1024 q 342 963 375 994 q 278 904 310 932 q 211 926 238 904 q 185 983 185 949 q 198 1030 185 1011 q 244 1075 211 1049 l 293 1115 q 356 1156 329 1143 q 410 1168 383 1168 q 470 1155 443 1168 q 525 1114 497 1142 l 638 997 q 615 931 638 953 q 551 908 592 908 q 504 924 525 908 q 451 974 483 940 l 407 1024 z "},"Ë":{"ha":760,"x_min":100,"x_max":703,"o":"m 215 -3 q 131 28 163 -3 q 100 113 100 60 l 100 726 q 131 810 100 779 q 215 842 163 842 l 675 842 q 690 807 683 828 q 697 760 697 786 q 677 692 697 714 q 621 669 657 669 l 313 669 l 313 514 l 635 514 q 650 479 643 500 q 657 432 657 458 q 638 365 657 386 q 582 343 618 343 l 313 343 l 313 169 l 681 169 q 696 133 689 156 q 703 85 703 111 q 683 18 703 39 q 628 -3 663 -3 l 215 -3 m 368 1033 q 338 959 368 989 q 260 929 308 929 q 182 959 211 929 q 153 1033 153 989 q 182 1109 153 1078 q 260 1140 211 1140 q 338 1109 308 1140 q 368 1033 368 1078 m 656 1033 q 626 959 656 989 q 549 929 597 929 q 470 959 500 929 q 440 1033 440 989 q 470 1109 440 1078 q 549 1140 500 1140 q 626 1109 597 1140 q 656 1033 656 1078 z "},"Ì":{"ha":413,"x_min":-24,"x_max":315,"o":"m 214 -10 q 123 13 149 -10 q 97 93 97 35 l 97 844 q 141 851 113 847 q 199 856 169 856 q 288 835 261 856 q 315 753 315 814 l 315 1 q 272 -6 300 -3 q 214 -10 244 -10 m -22 1035 q -24 1049 -24 1040 q -24 1063 -24 1058 q 2 1135 -24 1108 q 67 1161 28 1161 q 114 1149 92 1161 q 160 1114 136 1138 l 279 992 q 247 926 274 947 q 190 906 221 906 q 144 915 164 906 q 106 939 125 924 l -22 1035 z "},"Í":{"ha":413,"x_min":97,"x_max":411,"o":"m 214 -10 q 123 13 149 -10 q 97 93 97 35 l 97 844 q 141 851 113 847 q 199 856 169 856 q 288 835 261 856 q 315 753 315 814 l 315 1 q 272 -6 300 -3 q 214 -10 244 -10 m 299 1168 q 381 1142 351 1168 q 411 1079 411 1117 q 399 1032 411 1053 q 351 989 386 1011 l 217 904 q 140 926 167 904 q 114 979 114 949 q 119 1010 114 996 q 144 1042 125 1025 l 299 1168 z "},"Î":{"ha":413,"x_min":-17,"x_max":436,"o":"m 214 -10 q 123 13 149 -10 q 97 93 97 35 l 97 844 q 141 851 113 847 q 199 856 169 856 q 288 835 261 856 q 315 753 315 814 l 315 1 q 272 -6 300 -3 q 214 -10 244 -10 m 206 1024 q 141 963 174 994 q 76 904 108 932 q 10 926 36 904 q -17 983 -17 949 q -3 1030 -17 1011 q 43 1075 10 1049 l 92 1115 q 155 1156 128 1143 q 208 1168 182 1168 q 269 1155 242 1168 q 324 1114 296 1142 l 436 997 q 413 931 436 953 q 350 908 390 908 q 303 924 324 908 q 250 974 282 940 l 206 1024 z "},"Ï":{"ha":413,"x_min":-51,"x_max":451,"o":"m 214 -10 q 123 13 149 -10 q 97 93 97 35 l 97 844 q 141 851 113 847 q 199 856 169 856 q 288 835 261 856 q 315 753 315 814 l 315 1 q 272 -6 300 -3 q 214 -10 244 -10 m 164 1033 q 134 959 164 989 q 56 929 104 929 q -22 959 7 929 q -51 1033 -51 989 q -22 1109 -51 1078 q 56 1140 7 1140 q 134 1109 104 1140 q 164 1033 164 1078 m 451 1033 q 422 959 451 989 q 344 929 393 929 q 266 959 296 929 q 236 1033 236 989 q 266 1109 236 1078 q 344 1140 296 1140 q 422 1109 393 1140 q 451 1033 451 1078 z "},"Ð":{"ha":968,"x_min":25,"x_max":914,"o":"m 914 424 q 881 229 914 313 q 787 90 847 146 q 641 7 726 35 q 451 -21 556 -21 q 398 -19 428 -21 q 337 -15 368 -18 q 274 -5 306 -11 q 215 11 242 1 q 143 106 143 38 l 143 339 l 49 339 q 32 374 39 353 q 25 422 25 394 q 45 488 25 467 q 101 510 65 510 l 143 510 l 143 767 q 158 810 143 794 q 200 835 172 825 q 321 858 257 853 q 438 864 385 864 q 632 838 544 864 q 782 756 719 811 q 879 619 844 701 q 914 424 914 536 m 689 421 q 623 622 689 556 q 451 688 557 688 q 404 686 426 688 q 360 681 382 685 l 360 510 l 507 510 q 522 475 515 496 q 529 428 529 454 q 510 360 529 382 q 454 339 490 339 l 360 339 l 360 164 q 403 158 378 160 q 453 156 429 156 q 625 222 561 156 q 689 421 689 288 z "},"Ñ":{"ha":938,"x_min":97,"x_max":842,"o":"m 842 26 q 789 -1 822 10 q 710 -11 756 -11 q 621 4 663 -11 q 551 74 579 19 l 390 385 q 347 474 367 429 q 307 567 326 518 l 297 564 q 306 405 304 481 q 307 258 307 329 l 307 0 q 266 -6 293 -3 q 210 -10 239 -10 q 122 12 147 -10 q 97 89 97 33 l 97 804 q 151 841 114 828 q 229 854 188 854 q 319 839 278 854 q 388 771 360 824 l 550 458 q 594 369 574 414 q 633 276 614 325 l 639 278 q 631 454 632 371 q 631 614 631 538 l 631 844 q 672 851 644 847 q 729 856 699 856 q 817 834 792 856 q 842 757 842 813 l 842 26 m 344 1156 q 401 1149 374 1156 q 453 1135 428 1143 q 499 1120 478 1126 q 538 1114 521 1114 q 582 1131 567 1114 q 604 1163 597 1149 l 611 1163 q 681 1135 651 1163 q 711 1063 711 1107 q 674 976 711 1004 q 582 949 638 949 q 521 955 549 949 q 469 969 493 961 q 424 984 444 978 q 388 990 404 990 q 343 974 358 990 q 321 942 328 957 l 315 942 q 244 969 275 942 q 214 1042 214 996 q 226 1092 214 1071 q 256 1128 238 1114 q 298 1149 275 1142 q 344 1156 321 1156 z "},"Ò":{"ha":972,"x_min":54,"x_max":919,"o":"m 919 422 q 887 231 919 314 q 796 91 854 147 q 658 6 738 35 q 486 -24 579 -24 q 314 6 393 -24 q 177 91 235 35 q 87 231 119 147 q 54 422 54 314 q 88 613 54 531 q 179 752 121 696 q 316 838 238 808 q 486 867 394 867 q 657 838 578 867 q 794 752 736 808 q 886 613 853 696 q 919 422 919 531 m 694 422 q 638 623 694 556 q 486 690 582 690 q 335 623 392 690 q 278 422 278 556 q 334 220 278 288 q 486 153 390 153 q 638 220 582 153 q 694 422 694 288 m 275 1035 q 274 1049 274 1040 q 274 1063 274 1058 q 299 1135 274 1108 q 364 1161 325 1161 q 411 1149 389 1161 q 457 1114 433 1138 l 576 992 q 544 926 571 947 q 488 906 518 906 q 442 915 461 906 q 403 939 422 924 l 275 1035 z "},"Ó":{"ha":972,"x_min":54,"x_max":919,"o":"m 919 422 q 887 231 919 314 q 796 91 854 147 q 658 6 738 35 q 486 -24 579 -24 q 314 6 393 -24 q 177 91 235 35 q 87 231 119 147 q 54 422 54 314 q 88 613 54 531 q 179 752 121 696 q 316 838 238 808 q 486 867 394 867 q 657 838 578 867 q 794 752 736 808 q 886 613 853 696 q 919 422 919 531 m 694 422 q 638 623 694 556 q 486 690 582 690 q 335 623 392 690 q 278 422 278 556 q 334 220 278 288 q 486 153 390 153 q 638 220 582 153 q 694 422 694 288 m 597 1168 q 680 1142 650 1168 q 710 1079 710 1117 q 697 1032 710 1053 q 650 989 685 1011 l 515 904 q 439 926 465 904 q 413 979 413 949 q 418 1010 413 996 q 443 1042 424 1025 l 597 1168 z "},"Ô":{"ha":972,"x_min":54,"x_max":919,"o":"m 919 422 q 887 231 919 314 q 796 91 854 147 q 658 6 738 35 q 486 -24 579 -24 q 314 6 393 -24 q 177 91 235 35 q 87 231 119 147 q 54 422 54 314 q 88 613 54 531 q 179 752 121 696 q 316 838 238 808 q 486 867 394 867 q 657 838 578 867 q 794 752 736 808 q 886 613 853 696 q 919 422 919 531 m 694 422 q 638 623 694 556 q 486 690 582 690 q 335 623 392 690 q 278 422 278 556 q 334 220 278 288 q 486 153 390 153 q 638 220 582 153 q 694 422 694 288 m 489 1024 q 424 963 457 994 q 360 904 392 932 q 293 926 319 904 q 267 983 267 949 q 280 1030 267 1011 q 326 1075 293 1049 l 375 1115 q 438 1156 411 1143 q 492 1168 465 1168 q 552 1155 525 1168 q 607 1114 579 1142 l 719 997 q 697 931 719 953 q 633 908 674 908 q 586 924 607 908 q 533 974 565 940 l 489 1024 z "},"Õ":{"ha":972,"x_min":54,"x_max":919,"o":"m 919 422 q 887 231 919 314 q 796 91 854 147 q 658 6 738 35 q 486 -24 579 -24 q 314 6 393 -24 q 177 91 235 35 q 87 231 119 147 q 54 422 54 314 q 88 613 54 531 q 179 752 121 696 q 316 838 238 808 q 486 867 394 867 q 657 838 578 867 q 794 752 736 808 q 886 613 853 696 q 919 422 919 531 m 694 422 q 638 623 694 556 q 486 690 582 690 q 335 623 392 690 q 278 422 278 556 q 334 220 278 288 q 486 153 390 153 q 638 220 582 153 q 694 422 694 288 m 369 1156 q 426 1149 399 1156 q 478 1135 453 1143 q 524 1120 503 1126 q 563 1114 546 1114 q 607 1131 592 1114 q 629 1163 622 1149 l 636 1163 q 706 1135 676 1163 q 736 1063 736 1107 q 699 976 736 1004 q 607 949 663 949 q 546 955 574 949 q 494 969 518 961 q 449 984 469 978 q 413 990 429 990 q 368 974 383 990 q 346 942 353 957 l 340 942 q 269 969 300 942 q 239 1042 239 996 q 251 1092 239 1071 q 281 1128 263 1114 q 323 1149 300 1142 q 369 1156 346 1156 z "},"Ö":{"ha":972,"x_min":54,"x_max":919,"o":"m 919 422 q 887 231 919 314 q 796 91 854 147 q 658 6 738 35 q 486 -24 579 -24 q 314 6 393 -24 q 177 91 235 35 q 87 231 119 147 q 54 422 54 314 q 88 613 54 531 q 179 752 121 696 q 316 838 238 808 q 486 867 394 867 q 657 838 578 867 q 794 752 736 808 q 886 613 853 696 q 919 422 919 531 m 694 422 q 638 623 694 556 q 486 690 582 690 q 335 623 392 690 q 278 422 278 556 q 334 220 278 288 q 486 153 390 153 q 638 220 582 153 q 694 422 694 288 m 449 1033 q 419 959 449 989 q 340 929 389 929 q 263 959 292 929 q 233 1033 233 989 q 263 1109 233 1078 q 340 1140 292 1140 q 419 1109 389 1140 q 449 1033 449 1078 m 736 1033 q 707 959 736 989 q 629 929 678 929 q 551 959 581 929 q 521 1033 521 989 q 551 1109 521 1078 q 629 1140 581 1140 q 707 1109 678 1140 q 736 1033 736 1078 z "},"×":{"ha":697,"x_min":47,"x_max":650,"o":"m 475 397 l 650 199 q 608 128 638 154 q 539 103 579 103 q 505 111 524 103 q 471 138 486 119 l 347 285 l 168 94 q 86 133 119 103 q 53 199 53 164 q 88 261 53 226 l 225 404 l 47 588 q 64 624 53 606 q 90 657 75 643 q 122 680 104 671 q 157 689 139 689 q 217 660 192 689 l 354 511 l 529 694 q 598 653 568 683 q 628 585 628 624 q 594 521 628 554 l 475 397 z "},"Ø":{"ha":972,"x_min":53,"x_max":919,"o":"m 919 422 q 887 231 919 314 q 796 91 854 147 q 658 6 738 35 q 486 -24 579 -24 q 345 -3 411 -24 q 225 54 279 17 l 149 -25 q 78 8 104 -14 q 53 65 53 31 q 65 107 53 88 q 107 154 76 126 l 121 167 q 54 422 54 274 q 88 613 54 531 q 179 752 121 696 q 316 838 238 808 q 486 867 394 867 q 622 847 557 867 q 742 789 688 826 l 817 868 q 887 833 861 857 q 913 779 913 808 q 897 734 913 756 q 857 689 881 713 l 847 681 q 901 564 882 628 q 919 422 919 500 m 700 422 q 688 526 700 481 l 364 190 q 486 153 414 153 q 640 221 581 153 q 700 422 700 289 m 272 422 q 283 318 272 367 l 606 654 q 486 690 554 690 q 332 623 392 690 q 272 422 272 556 z "},"Ù":{"ha":918,"x_min":93,"x_max":825,"o":"m 458 -24 q 305 0 372 -24 q 190 67 238 24 q 118 170 143 110 q 93 306 93 231 l 93 844 q 137 851 108 847 q 194 856 165 856 q 284 835 257 856 q 311 753 311 814 l 311 310 q 352 194 311 235 q 458 153 393 153 q 566 194 525 153 q 607 310 607 235 l 607 844 q 651 851 622 847 q 708 856 679 856 q 798 835 771 856 q 825 753 825 814 l 825 306 q 800 170 825 231 q 728 67 775 110 q 613 0 681 24 q 458 -24 544 -24 m 228 1035 q 226 1049 226 1040 q 226 1063 226 1058 q 252 1135 226 1108 q 317 1161 278 1161 q 364 1149 342 1161 q 410 1114 386 1138 l 529 992 q 497 926 524 947 q 440 906 471 906 q 394 915 414 906 q 356 939 375 924 l 228 1035 z "},"Ú":{"ha":918,"x_min":93,"x_max":825,"o":"m 458 -24 q 305 0 372 -24 q 190 67 238 24 q 118 170 143 110 q 93 306 93 231 l 93 844 q 137 851 108 847 q 194 856 165 856 q 284 835 257 856 q 311 753 311 814 l 311 310 q 352 194 311 235 q 458 153 393 153 q 566 194 525 153 q 607 310 607 235 l 607 844 q 651 851 622 847 q 708 856 679 856 q 798 835 771 856 q 825 753 825 814 l 825 306 q 800 170 825 231 q 728 67 775 110 q 613 0 681 24 q 458 -24 544 -24 m 563 1168 q 645 1142 615 1168 q 675 1079 675 1117 q 663 1032 675 1053 q 615 989 650 1011 l 481 904 q 404 926 431 904 q 378 979 378 949 q 383 1010 378 996 q 408 1042 389 1025 l 563 1168 z "},"Û":{"ha":918,"x_min":93,"x_max":825,"o":"m 458 -24 q 305 0 372 -24 q 190 67 238 24 q 118 170 143 110 q 93 306 93 231 l 93 844 q 137 851 108 847 q 194 856 165 856 q 284 835 257 856 q 311 753 311 814 l 311 310 q 352 194 311 235 q 458 153 393 153 q 566 194 525 153 q 607 310 607 235 l 607 844 q 651 851 622 847 q 708 856 679 856 q 798 835 771 856 q 825 753 825 814 l 825 306 q 800 170 825 231 q 728 67 775 110 q 613 0 681 24 q 458 -24 544 -24 m 465 1024 q 401 963 433 994 q 336 904 368 932 q 269 926 296 904 q 243 983 243 949 q 256 1030 243 1011 q 303 1075 269 1049 l 351 1115 q 415 1156 388 1143 q 468 1168 442 1168 q 528 1155 501 1168 q 583 1114 556 1142 l 696 997 q 673 931 696 953 q 610 908 650 908 q 563 924 583 908 q 510 974 542 940 l 465 1024 z "},"Ü":{"ha":918,"x_min":93,"x_max":825,"o":"m 458 -24 q 305 0 372 -24 q 190 67 238 24 q 118 170 143 110 q 93 306 93 231 l 93 844 q 137 851 108 847 q 194 856 165 856 q 284 835 257 856 q 311 753 311 814 l 311 310 q 352 194 311 235 q 458 153 393 153 q 566 194 525 153 q 607 310 607 235 l 607 844 q 651 851 622 847 q 708 856 679 856 q 798 835 771 856 q 825 753 825 814 l 825 306 q 800 170 825 231 q 728 67 775 110 q 613 0 681 24 q 458 -24 544 -24 m 419 1033 q 390 959 419 989 q 311 929 360 929 q 233 959 263 929 q 204 1033 204 989 q 233 1109 204 1078 q 311 1140 263 1140 q 390 1109 360 1140 q 419 1033 419 1078 m 707 1033 q 678 959 707 989 q 600 929 649 929 q 522 959 551 929 q 492 1033 492 989 q 522 1109 492 1078 q 600 1140 551 1140 q 678 1109 649 1140 q 707 1033 707 1078 z "},"Ý":{"ha":790,"x_min":11,"x_max":771,"o":"m 771 756 q 759 708 771 739 q 718 624 747 678 q 640 486 689 569 q 515 282 590 403 l 515 1 q 473 -6 500 -3 q 417 -10 446 -10 q 326 13 351 -10 q 301 90 301 35 l 301 283 q 224 402 265 336 q 142 535 182 468 q 67 668 101 603 q 11 785 32 733 q 55 828 26 808 q 125 847 83 847 q 204 827 174 847 q 263 751 235 807 q 276 726 265 747 q 302 676 288 704 q 333 614 317 647 q 365 552 350 581 q 390 503 379 524 q 404 478 401 482 l 411 478 q 452 565 433 524 q 489 648 471 607 q 526 731 507 689 q 565 824 544 774 q 615 841 588 835 q 665 847 642 847 q 740 824 710 847 q 771 756 771 800 m 488 1168 q 570 1142 540 1168 q 600 1079 600 1117 q 588 1032 600 1053 q 540 989 575 1011 l 406 904 q 329 926 356 904 q 303 979 303 949 q 308 1010 303 996 q 333 1042 314 1025 l 488 1168 z "},"Þ":{"ha":801,"x_min":92,"x_max":758,"o":"m 92 844 q 135 851 107 847 q 192 856 164 856 q 282 834 254 856 q 310 753 310 813 l 310 719 l 422 719 q 570 699 507 719 q 675 639 633 678 q 738 547 717 600 q 758 426 758 493 q 674 213 758 293 q 422 132 590 132 l 310 132 l 310 1 q 267 -6 294 -3 q 208 -10 239 -10 q 117 13 143 -10 q 92 93 92 35 l 92 844 m 308 304 l 396 304 q 500 334 463 304 q 538 426 538 364 q 500 518 538 489 q 396 547 463 547 l 308 547 l 308 304 z "},"ß":{"ha":854,"x_min":82,"x_max":810,"o":"m 294 0 q 255 -7 281 -3 q 200 -11 229 -11 q 110 10 138 -11 q 82 89 82 31 l 82 636 q 108 771 82 714 q 178 865 133 828 q 282 922 222 903 q 411 940 342 940 q 544 919 483 940 q 648 859 604 899 q 716 764 692 819 q 740 638 740 708 q 729 585 740 606 q 692 550 718 564 l 642 526 q 609 503 621 515 q 597 472 597 490 q 609 443 597 456 q 643 419 621 431 q 717 375 686 397 q 769 327 749 353 q 800 270 790 301 q 810 199 810 239 q 790 103 810 144 q 737 33 771 61 q 656 -9 703 6 q 554 -24 610 -24 q 422 2 472 -24 q 372 78 372 28 q 385 128 372 107 q 417 163 397 150 q 460 142 436 150 q 515 133 485 133 q 572 151 551 133 q 592 196 592 168 q 576 241 592 224 q 525 278 561 258 q 417 360 454 317 q 381 475 381 404 q 415 572 381 531 q 508 636 449 613 l 529 644 q 497 733 529 697 q 411 768 464 768 q 327 735 360 768 q 294 636 294 703 l 294 0 l 294 0 z "},"à":{"ha":743,"x_min":43,"x_max":667,"o":"m 356 135 q 416 141 386 135 q 461 157 446 147 l 461 285 l 347 275 q 276 255 303 271 q 249 207 249 239 q 274 154 249 174 q 356 135 299 135 m 347 689 q 478 674 419 689 q 579 629 538 660 q 644 551 621 599 q 667 440 667 504 l 667 126 q 648 69 667 90 q 603 32 629 47 q 497 -8 560 6 q 356 -22 435 -22 q 128 33 213 -22 q 43 200 43 88 q 100 346 43 296 q 275 408 157 396 l 460 428 l 460 443 q 424 508 460 488 q 319 529 388 529 q 216 517 267 529 q 125 488 165 504 q 97 522 108 499 q 85 571 85 544 q 149 658 85 632 q 242 681 189 674 q 347 689 296 689 m 158 894 q 156 909 157 900 q 156 924 156 918 q 182 994 156 968 q 247 1021 208 1021 q 297 1010 272 1021 q 340 975 321 999 l 464 819 q 432 754 458 775 q 375 733 406 733 q 331 741 349 733 q 293 767 313 749 l 158 894 z "},"á":{"ha":743,"x_min":43,"x_max":667,"o":"m 356 135 q 416 141 386 135 q 461 157 446 147 l 461 285 l 347 275 q 276 255 303 271 q 249 207 249 239 q 274 154 249 174 q 356 135 299 135 m 347 689 q 478 674 419 689 q 579 629 538 660 q 644 551 621 599 q 667 440 667 504 l 667 126 q 648 69 667 90 q 603 32 629 47 q 497 -8 560 6 q 356 -22 435 -22 q 128 33 213 -22 q 43 200 43 88 q 100 346 43 296 q 275 408 157 396 l 460 428 l 460 443 q 424 508 460 488 q 319 529 388 529 q 216 517 267 529 q 125 488 165 504 q 97 522 108 499 q 85 571 85 544 q 149 658 85 632 q 242 681 189 674 q 347 689 296 689 m 443 1028 q 540 999 507 1026 q 572 936 572 972 q 560 888 572 907 q 517 842 547 868 l 386 731 q 302 756 331 731 q 274 814 274 782 q 280 843 274 829 q 304 876 286 857 l 443 1028 z "},"â":{"ha":743,"x_min":43,"x_max":667,"o":"m 356 135 q 416 141 386 135 q 461 157 446 147 l 461 285 l 347 275 q 276 255 303 271 q 249 207 249 239 q 274 154 249 174 q 356 135 299 135 m 347 689 q 478 674 419 689 q 579 629 538 660 q 644 551 621 599 q 667 440 667 504 l 667 126 q 648 69 667 90 q 603 32 629 47 q 497 -8 560 6 q 356 -22 435 -22 q 128 33 213 -22 q 43 200 43 88 q 100 346 43 296 q 275 408 157 396 l 460 428 l 460 443 q 424 508 460 488 q 319 529 388 529 q 216 517 267 529 q 125 488 165 504 q 97 522 108 499 q 85 571 85 544 q 149 658 85 632 q 242 681 189 674 q 347 689 296 689 m 368 867 q 335 831 350 847 q 308 800 321 815 q 281 770 294 785 q 254 738 268 756 q 176 760 206 739 q 147 818 147 782 q 161 863 147 844 q 203 908 175 881 l 257 964 q 308 1003 281 988 q 371 1018 335 1018 q 432 1006 404 1018 q 494 950 460 993 l 597 825 q 576 765 597 790 q 514 740 556 740 q 469 754 489 740 q 431 792 450 768 l 368 867 z "},"ã":{"ha":743,"x_min":43,"x_max":667,"o":"m 356 135 q 416 141 386 135 q 461 157 446 147 l 461 285 l 347 275 q 276 255 303 271 q 249 207 249 239 q 274 154 249 174 q 356 135 299 135 m 347 689 q 478 674 419 689 q 579 629 538 660 q 644 551 621 599 q 667 440 667 504 l 667 126 q 648 69 667 90 q 603 32 629 47 q 497 -8 560 6 q 356 -22 435 -22 q 128 33 213 -22 q 43 200 43 88 q 100 346 43 296 q 275 408 157 396 l 460 428 l 460 443 q 424 508 460 488 q 319 529 388 529 q 216 517 267 529 q 125 488 165 504 q 97 522 108 499 q 85 571 85 544 q 149 658 85 632 q 242 681 189 674 q 347 689 296 689 m 250 976 q 306 970 279 976 q 358 956 333 964 q 405 941 383 947 q 443 935 426 935 q 488 952 472 935 q 510 983 503 969 l 517 983 q 587 956 557 983 q 617 883 617 928 q 580 797 617 825 q 488 769 543 769 q 426 776 454 769 q 374 790 399 782 q 330 805 350 799 q 293 811 310 811 q 249 794 264 811 q 226 763 233 778 l 221 763 q 150 790 181 763 q 119 863 119 817 q 131 913 119 892 q 162 949 143 935 q 203 969 181 963 q 250 976 226 976 z "},"ä":{"ha":743,"x_min":43,"x_max":667,"o":"m 356 135 q 416 141 386 135 q 461 157 446 147 l 461 285 l 347 275 q 276 255 303 271 q 249 207 249 239 q 274 154 249 174 q 356 135 299 135 m 347 689 q 478 674 419 689 q 579 629 538 660 q 644 551 621 599 q 667 440 667 504 l 667 126 q 648 69 667 90 q 603 32 629 47 q 497 -8 560 6 q 356 -22 435 -22 q 128 33 213 -22 q 43 200 43 88 q 100 346 43 296 q 275 408 157 396 l 460 428 l 460 443 q 424 508 460 488 q 319 529 388 529 q 216 517 267 529 q 125 488 165 504 q 97 522 108 499 q 85 571 85 544 q 149 658 85 632 q 242 681 189 674 q 347 689 296 689 m 339 867 q 309 792 339 822 q 231 763 279 763 q 153 792 182 763 q 124 867 124 822 q 153 942 124 911 q 231 974 182 974 q 309 942 279 974 q 339 867 339 911 m 626 867 q 597 792 626 822 q 519 763 568 763 q 441 792 471 763 q 411 867 411 822 q 441 942 411 911 q 519 974 471 974 q 597 942 568 974 q 626 867 626 911 z "},"å":{"ha":743,"x_min":43,"x_max":667,"o":"m 356 135 q 416 141 386 135 q 461 157 446 147 l 461 285 l 347 275 q 276 255 303 271 q 249 207 249 239 q 274 154 249 174 q 356 135 299 135 m 347 689 q 478 674 419 689 q 579 629 538 660 q 644 551 621 599 q 667 440 667 504 l 667 126 q 648 69 667 90 q 603 32 629 47 q 497 -8 560 6 q 356 -22 435 -22 q 128 33 213 -22 q 43 200 43 88 q 100 346 43 296 q 275 408 157 396 l 460 428 l 460 443 q 424 508 460 488 q 319 529 388 529 q 216 517 267 529 q 125 488 165 504 q 97 522 108 499 q 85 571 85 544 q 149 658 85 632 q 242 681 189 674 q 347 689 296 689 m 192 882 q 239 990 192 946 q 368 1033 286 1033 q 502 990 454 1033 q 550 882 550 946 q 502 776 550 819 q 368 733 454 733 q 239 776 286 733 q 192 882 192 819 m 321 882 q 335 845 321 858 q 369 832 350 832 q 406 845 392 832 q 419 882 419 858 q 406 919 419 906 q 369 933 392 933 q 335 919 350 933 q 321 882 321 906 z "},"æ":{"ha":1149,"x_min":43,"x_max":1104,"o":"m 347 689 q 568 610 499 689 q 667 669 613 650 q 783 689 722 689 q 913 667 854 689 q 1015 607 972 646 q 1081 514 1057 568 q 1104 396 1104 460 q 1081 329 1104 351 q 1014 300 1057 307 l 653 246 q 721 163 672 188 q 833 139 769 139 q 943 155 892 139 q 1026 190 994 171 q 1061 154 1047 176 q 1075 106 1075 132 q 1056 50 1075 74 q 1002 10 1036 26 q 922 -13 968 -6 q 819 -21 875 -21 q 594 47 683 -21 q 585 39 590 43 q 574 32 579 35 q 482 -7 532 8 q 353 -22 432 -22 q 126 33 210 -22 q 43 200 43 88 q 100 346 43 296 q 275 408 157 396 l 460 428 l 460 443 q 424 508 460 488 q 319 529 388 529 q 216 517 267 529 q 125 488 165 504 q 97 522 108 499 q 85 571 85 544 q 100 623 85 603 q 149 658 115 643 q 242 681 188 674 q 347 689 296 689 m 356 135 q 416 141 386 135 q 461 157 446 147 l 461 285 l 347 275 q 276 255 303 271 q 249 207 249 239 q 274 154 249 174 q 356 135 299 135 m 783 532 q 685 495 725 532 q 639 389 646 458 l 904 432 q 894 468 901 450 q 872 500 886 486 q 835 523 857 514 q 783 532 813 532 z "},"ç":{"ha":676,"x_min":47,"x_max":628,"o":"m 443 521 q 315 473 368 521 q 263 332 263 425 q 313 193 263 239 q 442 147 364 147 q 520 159 486 147 q 578 183 554 171 q 615 145 601 165 q 628 96 628 125 q 593 26 628 56 q 496 -14 558 -3 q 522 -117 522 -58 q 478 -233 522 -187 q 358 -278 435 -278 q 272 -252 304 -278 q 239 -179 239 -226 q 246 -139 239 -160 l 261 -139 q 325 -118 306 -139 q 344 -65 344 -97 q 341 -40 344 -54 q 331 -14 338 -26 q 124 94 200 7 q 47 332 47 181 q 76 489 47 422 q 156 600 106 556 q 272 667 206 644 q 413 689 339 689 q 563 654 508 689 q 618 567 618 619 q 606 521 618 542 q 578 485 594 500 q 519 510 553 499 q 443 521 485 521 z "},"è":{"ha":754,"x_min":47,"x_max":710,"o":"m 258 246 q 326 163 278 188 q 439 139 375 139 q 549 155 497 139 q 632 190 600 171 q 667 154 653 176 q 681 106 681 132 q 661 50 681 74 q 608 10 642 26 q 527 -13 574 -6 q 425 -21 481 -21 q 274 2 343 -21 q 154 70 204 25 q 76 183 104 115 q 47 343 47 251 q 76 497 47 432 q 152 606 104 563 q 262 669 200 649 q 389 689 324 689 q 519 667 460 689 q 620 607 578 646 q 686 514 663 568 q 710 396 710 460 q 686 329 710 351 q 619 300 663 307 l 258 246 m 390 532 q 291 495 331 532 q 244 389 251 458 l 510 432 q 478 500 507 468 q 390 532 449 532 m 167 894 q 165 909 165 900 q 164 924 164 918 q 190 994 164 968 q 256 1021 217 1021 q 305 1010 281 1021 q 349 975 329 999 l 472 819 q 440 754 467 775 q 383 733 414 733 q 339 741 357 733 q 301 767 321 749 l 167 894 z "},"é":{"ha":754,"x_min":47,"x_max":710,"o":"m 258 246 q 326 163 278 188 q 439 139 375 139 q 549 155 497 139 q 632 190 600 171 q 667 154 653 176 q 681 106 681 132 q 661 50 681 74 q 608 10 642 26 q 527 -13 574 -6 q 425 -21 481 -21 q 274 2 343 -21 q 154 70 204 25 q 76 183 104 115 q 47 343 47 251 q 76 497 47 432 q 152 606 104 563 q 262 669 200 649 q 389 689 324 689 q 519 667 460 689 q 620 607 578 646 q 686 514 663 568 q 710 396 710 460 q 686 329 710 351 q 619 300 663 307 l 258 246 m 390 532 q 291 495 331 532 q 244 389 251 458 l 510 432 q 478 500 507 468 q 390 532 449 532 m 467 1028 q 563 999 531 1026 q 596 936 596 972 q 583 888 596 907 q 540 842 571 868 l 410 731 q 326 756 354 731 q 297 814 297 782 q 303 843 297 829 q 328 876 310 857 l 467 1028 z "},"ê":{"ha":754,"x_min":47,"x_max":710,"o":"m 258 246 q 326 163 278 188 q 439 139 375 139 q 549 155 497 139 q 632 190 600 171 q 667 154 653 176 q 681 106 681 132 q 661 50 681 74 q 608 10 642 26 q 527 -13 574 -6 q 425 -21 481 -21 q 274 2 343 -21 q 154 70 204 25 q 76 183 104 115 q 47 343 47 251 q 76 497 47 432 q 152 606 104 563 q 262 669 200 649 q 389 689 324 689 q 519 667 460 689 q 620 607 578 646 q 686 514 663 568 q 710 396 710 460 q 686 329 710 351 q 619 300 663 307 l 258 246 m 390 532 q 291 495 331 532 q 244 389 251 458 l 510 432 q 478 500 507 468 q 390 532 449 532 m 390 867 q 358 831 372 847 q 330 800 343 815 q 303 770 317 785 q 276 738 290 756 q 199 760 228 739 q 169 818 169 782 q 183 863 169 844 q 225 908 197 881 l 279 964 q 330 1003 303 988 q 393 1018 357 1018 q 454 1006 426 1018 q 517 950 482 993 l 619 825 q 599 765 619 790 q 536 740 578 740 q 492 754 511 740 q 453 792 472 768 l 390 867 z "},"ë":{"ha":754,"x_min":47,"x_max":710,"o":"m 258 246 q 326 163 278 188 q 439 139 375 139 q 549 155 497 139 q 632 190 600 171 q 667 154 653 176 q 681 106 681 132 q 661 50 681 74 q 608 10 642 26 q 527 -13 574 -6 q 425 -21 481 -21 q 274 2 343 -21 q 154 70 204 25 q 76 183 104 115 q 47 343 47 251 q 76 497 47 432 q 152 606 104 563 q 262 669 200 649 q 389 689 324 689 q 519 667 460 689 q 620 607 578 646 q 686 514 663 568 q 710 396 710 460 q 686 329 710 351 q 619 300 663 307 l 258 246 m 390 532 q 291 495 331 532 q 244 389 251 458 l 510 432 q 478 500 507 468 q 390 532 449 532 m 340 867 q 310 792 340 822 q 232 763 281 763 q 154 792 183 763 q 125 867 125 822 q 154 942 125 911 q 232 974 183 974 q 310 942 281 974 q 340 867 340 911 m 628 867 q 599 792 628 822 q 521 763 569 763 q 442 792 472 763 q 413 867 413 822 q 442 942 413 911 q 521 974 472 974 q 599 942 569 974 q 628 867 628 911 z "},"ì":{"ha":381,"x_min":-31,"x_max":296,"o":"m 201 -11 q 112 10 139 -11 q 85 89 85 31 l 85 660 q 124 668 99 664 q 179 672 149 672 q 269 651 242 672 q 296 572 296 631 l 296 0 q 257 -7 282 -3 q 201 -11 232 -11 m -28 894 q -30 909 -29 900 q -31 924 -31 918 q -4 994 -31 968 q 61 1021 22 1021 q 110 1010 86 1021 q 154 975 135 999 l 278 819 q 246 754 272 775 q 189 733 219 733 q 144 741 163 733 q 107 767 126 749 l -28 894 z "},"í":{"ha":381,"x_min":85,"x_max":400,"o":"m 201 -11 q 112 10 139 -11 q 85 89 85 31 l 85 660 q 124 668 99 664 q 179 672 149 672 q 269 651 242 672 q 296 572 296 631 l 296 0 q 257 -7 282 -3 q 201 -11 232 -11 m 271 1028 q 367 999 335 1026 q 400 936 400 972 q 388 888 400 907 q 344 842 375 868 l 214 731 q 130 756 158 731 q 101 814 101 782 q 108 843 101 829 q 132 876 114 857 l 271 1028 z "},"î":{"ha":381,"x_min":-31,"x_max":419,"o":"m 201 -11 q 112 10 139 -11 q 85 89 85 31 l 85 660 q 124 668 99 664 q 179 672 149 672 q 269 651 242 672 q 296 572 296 631 l 296 0 q 257 -7 282 -3 q 201 -11 232 -11 m 190 867 q 158 831 172 847 q 130 800 143 815 q 103 770 117 785 q 76 738 90 756 q -1 760 28 739 q -31 818 -31 782 q -17 863 -31 844 q 25 908 -3 881 l 79 964 q 130 1003 103 988 q 193 1018 157 1018 q 254 1006 226 1018 q 317 950 282 993 l 419 825 q 399 765 419 790 q 336 740 378 740 q 292 754 311 740 q 253 792 272 768 l 190 867 z "},"ï":{"ha":381,"x_min":-62,"x_max":440,"o":"m 201 -11 q 112 10 139 -11 q 85 89 85 31 l 85 660 q 124 668 99 664 q 179 672 149 672 q 269 651 242 672 q 296 572 296 631 l 296 0 q 257 -7 282 -3 q 201 -11 232 -11 m 153 867 q 123 792 153 822 q 44 763 93 763 q -33 792 -4 763 q -62 867 -62 822 q -33 942 -62 911 q 44 974 -4 974 q 123 942 93 974 q 153 867 153 911 m 440 867 q 411 792 440 822 q 333 763 382 763 q 255 792 285 763 q 225 867 225 822 q 255 942 225 911 q 333 974 285 974 q 411 942 382 974 q 440 867 440 911 z "},"ð":{"ha":800,"x_min":47,"x_max":750,"o":"m 581 793 q 702 594 654 707 q 750 356 750 482 q 729 203 750 272 q 666 84 708 133 q 558 7 624 35 q 401 -21 492 -21 q 254 2 319 -21 q 143 68 189 25 q 72 172 97 111 q 47 311 47 233 q 74 451 47 392 q 147 551 101 511 q 249 610 192 590 q 367 629 306 629 q 485 607 432 629 q 447 666 467 639 q 399 719 426 693 l 197 646 q 164 683 178 660 q 150 732 150 706 q 193 792 150 775 l 260 819 q 208 840 235 831 q 151 860 181 850 q 183 946 154 918 q 256 974 213 974 q 357 954 304 974 q 461 900 410 935 l 614 963 q 648 926 632 950 q 664 875 664 903 q 651 833 664 847 q 617 808 638 818 l 581 793 m 532 314 q 529 369 532 343 q 521 419 526 396 q 468 456 497 443 q 407 469 439 469 q 301 426 338 469 q 265 311 265 382 q 300 191 265 235 q 403 147 335 147 q 501 192 469 147 q 532 314 532 236 z "},"ñ":{"ha":804,"x_min":81,"x_max":725,"o":"m 513 426 q 483 499 513 475 q 406 522 454 522 q 344 514 372 522 q 293 493 317 506 l 293 1 q 254 -6 279 -3 q 199 -10 229 -10 q 108 10 136 -10 q 81 89 81 31 l 81 518 q 96 576 81 554 q 139 618 111 599 q 253 669 183 650 q 408 689 324 689 q 642 622 560 689 q 725 432 725 556 l 725 1 q 685 -6 710 -3 q 629 -10 660 -10 q 540 10 567 -10 q 513 89 513 31 l 513 426 m 285 976 q 341 970 314 976 q 393 956 368 964 q 440 941 418 947 q 478 935 461 935 q 522 952 507 935 q 544 983 538 969 l 551 983 q 622 956 592 983 q 651 883 651 928 q 615 797 651 825 q 522 769 578 769 q 461 776 489 769 q 409 790 433 782 q 365 805 385 799 q 328 811 344 811 q 283 794 299 811 q 261 763 268 778 l 256 763 q 185 790 215 763 q 154 863 154 817 q 166 913 154 892 q 197 949 178 935 q 238 969 215 963 q 285 976 261 976 z "},"ò":{"ha":806,"x_min":47,"x_max":757,"o":"m 757 335 q 732 187 757 253 q 660 75 707 121 q 549 4 614 29 q 403 -21 483 -21 q 256 3 322 -21 q 144 74 190 28 q 72 185 97 119 q 47 335 47 251 q 73 481 47 415 q 145 593 99 547 q 258 664 192 639 q 403 689 324 689 q 547 664 482 689 q 659 592 613 639 q 731 481 706 546 q 757 335 757 415 m 403 522 q 301 474 338 522 q 265 335 265 425 q 301 194 265 242 q 403 146 336 146 q 505 194 469 146 q 540 335 540 243 q 504 473 540 424 q 403 522 468 522 m 219 894 q 217 909 218 900 q 217 924 217 918 q 243 994 217 968 q 308 1021 269 1021 q 358 1010 333 1021 q 401 975 382 999 l 525 819 q 493 754 519 775 q 436 733 467 733 q 392 741 410 733 q 354 767 374 749 l 219 894 z "},"ó":{"ha":806,"x_min":47,"x_max":757,"o":"m 757 335 q 732 187 757 253 q 660 75 707 121 q 549 4 614 29 q 403 -21 483 -21 q 256 3 322 -21 q 144 74 190 28 q 72 185 97 119 q 47 335 47 251 q 73 481 47 415 q 145 593 99 547 q 258 664 192 639 q 403 689 324 689 q 547 664 482 689 q 659 592 613 639 q 731 481 706 546 q 757 335 757 415 m 403 522 q 301 474 338 522 q 265 335 265 425 q 301 194 265 242 q 403 146 336 146 q 505 194 469 146 q 540 335 540 243 q 504 473 540 424 q 403 522 468 522 m 454 1028 q 551 999 518 1026 q 583 936 583 972 q 571 888 583 907 q 528 842 558 868 l 397 731 q 313 756 342 731 q 285 814 285 782 q 291 843 285 829 q 315 876 297 857 l 454 1028 z "},"ô":{"ha":806,"x_min":47,"x_max":757,"o":"m 757 335 q 732 187 757 253 q 660 75 707 121 q 549 4 614 29 q 403 -21 483 -21 q 256 3 322 -21 q 144 74 190 28 q 72 185 97 119 q 47 335 47 251 q 73 481 47 415 q 145 593 99 547 q 258 664 192 639 q 403 689 324 689 q 547 664 482 689 q 659 592 613 639 q 731 481 706 546 q 757 335 757 415 m 403 522 q 301 474 338 522 q 265 335 265 425 q 301 194 265 242 q 403 146 336 146 q 505 194 469 146 q 540 335 540 243 q 504 473 540 424 q 403 522 468 522 m 400 867 q 367 831 382 847 q 340 800 353 815 q 313 770 326 785 q 286 738 300 756 q 208 760 238 739 q 179 818 179 782 q 193 863 179 844 q 235 908 207 881 l 289 964 q 340 1003 313 988 q 403 1018 367 1018 q 464 1006 436 1018 q 526 950 492 993 l 629 825 q 608 765 629 790 q 546 740 588 740 q 501 754 521 740 q 463 792 482 768 l 400 867 z "},"õ":{"ha":806,"x_min":47,"x_max":757,"o":"m 757 335 q 732 187 757 253 q 660 75 707 121 q 549 4 614 29 q 403 -21 483 -21 q 256 3 322 -21 q 144 74 190 28 q 72 185 97 119 q 47 335 47 251 q 73 481 47 415 q 145 593 99 547 q 258 664 192 639 q 403 689 324 689 q 547 664 482 689 q 659 592 613 639 q 731 481 706 546 q 757 335 757 415 m 403 522 q 301 474 338 522 q 265 335 265 425 q 301 194 265 242 q 403 146 336 146 q 505 194 469 146 q 540 335 540 243 q 504 473 540 424 q 403 522 468 522 m 288 976 q 344 970 317 976 q 396 956 371 964 q 442 941 421 947 q 481 935 464 935 q 525 952 510 935 q 547 983 540 969 l 554 983 q 624 956 594 983 q 654 883 654 928 q 617 797 654 825 q 525 769 581 769 q 464 776 492 769 q 412 790 436 782 q 367 805 388 799 q 331 811 347 811 q 286 794 301 811 q 264 763 271 778 l 258 763 q 188 790 218 763 q 157 863 157 817 q 169 913 157 892 q 199 949 181 935 q 241 969 218 963 q 288 976 264 976 z "},"ö":{"ha":806,"x_min":47,"x_max":757,"o":"m 757 335 q 732 187 757 253 q 660 75 707 121 q 549 4 614 29 q 403 -21 483 -21 q 256 3 322 -21 q 144 74 190 28 q 72 185 97 119 q 47 335 47 251 q 73 481 47 415 q 145 593 99 547 q 258 664 192 639 q 403 689 324 689 q 547 664 482 689 q 659 592 613 639 q 731 481 706 546 q 757 335 757 415 m 403 522 q 301 474 338 522 q 265 335 265 425 q 301 194 265 242 q 403 146 336 146 q 505 194 469 146 q 540 335 540 243 q 504 473 540 424 q 403 522 468 522 m 365 867 q 335 792 365 822 q 257 763 306 763 q 179 792 208 763 q 150 867 150 822 q 179 942 150 911 q 257 974 208 974 q 335 942 306 974 q 365 867 365 911 m 653 867 q 624 792 653 822 q 546 763 594 763 q 467 792 497 763 q 438 867 438 822 q 467 942 438 911 q 546 974 497 974 q 624 942 594 974 q 653 867 653 911 z "},"÷":{"ha":728,"x_min":47,"x_max":681,"o":"m 68 319 q 53 354 60 333 q 47 400 47 375 q 69 467 47 446 q 125 488 90 488 l 660 488 q 674 452 668 475 q 681 404 681 429 q 660 339 681 358 q 603 319 639 319 l 68 319 m 265 171 q 293 245 265 215 q 368 275 321 275 q 442 245 415 275 q 469 171 469 215 q 442 97 469 126 q 368 68 415 68 q 293 97 321 68 q 265 171 265 126 m 265 636 q 293 710 265 681 q 368 740 321 740 q 442 710 415 740 q 469 636 469 681 q 442 563 469 592 q 368 533 415 533 q 293 563 321 533 q 265 636 265 592 z "},"ø":{"ha":806,"x_min":47,"x_max":757,"o":"m 757 335 q 732 187 757 253 q 660 75 707 121 q 549 4 614 29 q 403 -21 483 -21 q 323 -14 361 -21 q 251 4 285 -7 l 190 -85 q 160 -79 175 -85 q 132 -65 144 -74 q 111 -45 119 -57 q 103 -21 103 -33 q 114 8 103 -7 l 153 65 q 74 179 101 111 q 47 335 47 247 q 73 481 47 415 q 145 593 99 547 q 258 664 192 639 q 403 689 324 689 q 483 681 444 689 q 554 660 521 674 l 617 753 q 644 748 629 753 q 673 735 660 743 q 695 715 686 726 q 704 690 704 704 q 694 663 704 676 l 651 600 q 729 485 701 553 q 757 335 757 418 m 554 335 q 536 433 554 390 l 349 153 q 374 146 361 149 q 403 143 388 143 q 512 191 469 143 q 554 335 554 239 m 403 524 q 294 476 338 524 q 251 335 251 429 q 269 233 251 274 l 457 514 q 431 521 444 518 q 403 524 418 524 z "},"ù":{"ha":800,"x_min":78,"x_max":722,"o":"m 722 139 q 665 39 722 74 q 556 -5 621 11 q 411 -21 490 -21 q 275 -5 336 -21 q 170 46 214 11 q 102 133 126 81 q 78 261 78 186 l 78 665 q 118 674 93 669 q 174 678 143 678 q 263 657 236 678 q 290 578 290 636 l 290 263 q 322 173 290 200 q 413 146 354 146 q 473 152 449 146 q 510 165 497 158 l 510 665 q 549 674 524 669 q 604 678 574 678 q 694 657 667 678 q 722 578 722 636 l 722 139 m 169 894 q 167 909 168 900 q 167 924 167 918 q 193 994 167 968 q 258 1021 219 1021 q 308 1010 283 1021 q 351 975 332 999 l 475 819 q 443 754 469 775 q 386 733 417 733 q 342 741 360 733 q 304 767 324 749 l 169 894 z "},"ú":{"ha":800,"x_min":78,"x_max":722,"o":"m 722 139 q 665 39 722 74 q 556 -5 621 11 q 411 -21 490 -21 q 275 -5 336 -21 q 170 46 214 11 q 102 133 126 81 q 78 261 78 186 l 78 665 q 118 674 93 669 q 174 678 143 678 q 263 657 236 678 q 290 578 290 636 l 290 263 q 322 173 290 200 q 413 146 354 146 q 473 152 449 146 q 510 165 497 158 l 510 665 q 549 674 524 669 q 604 678 574 678 q 694 657 667 678 q 722 578 722 636 l 722 139 m 493 1028 q 590 999 557 1026 q 622 936 622 972 q 610 888 622 907 q 567 842 597 868 l 436 731 q 352 756 381 731 q 324 814 324 782 q 330 843 324 829 q 354 876 336 857 l 493 1028 z "},"û":{"ha":800,"x_min":78,"x_max":722,"o":"m 722 139 q 665 39 722 74 q 556 -5 621 11 q 411 -21 490 -21 q 275 -5 336 -21 q 170 46 214 11 q 102 133 126 81 q 78 261 78 186 l 78 665 q 118 674 93 669 q 174 678 143 678 q 263 657 236 678 q 290 578 290 636 l 290 263 q 322 173 290 200 q 413 146 354 146 q 473 152 449 146 q 510 165 497 158 l 510 665 q 549 674 524 669 q 604 678 574 678 q 694 657 667 678 q 722 578 722 636 l 722 139 m 397 867 q 365 831 379 847 q 337 800 350 815 q 310 770 324 785 q 283 738 297 756 q 206 760 235 739 q 176 818 176 782 q 190 863 176 844 q 232 908 204 881 l 286 964 q 337 1003 310 988 q 400 1018 364 1018 q 461 1006 433 1018 q 524 950 489 993 l 626 825 q 606 765 626 790 q 543 740 585 740 q 499 754 518 740 q 460 792 479 768 l 397 867 z "},"ü":{"ha":800,"x_min":78,"x_max":722,"o":"m 722 139 q 665 39 722 74 q 556 -5 621 11 q 411 -21 490 -21 q 275 -5 336 -21 q 170 46 214 11 q 102 133 126 81 q 78 261 78 186 l 78 665 q 118 674 93 669 q 174 678 143 678 q 263 657 236 678 q 290 578 290 636 l 290 263 q 322 173 290 200 q 413 146 354 146 q 473 152 449 146 q 510 165 497 158 l 510 665 q 549 674 524 669 q 604 678 574 678 q 694 657 667 678 q 722 578 722 636 l 722 139 m 360 867 q 330 792 360 822 q 251 763 300 763 q 174 792 203 763 q 144 867 144 822 q 174 942 144 911 q 251 974 203 974 q 330 942 300 974 q 360 867 360 911 m 647 867 q 618 792 647 822 q 540 763 589 763 q 462 792 492 763 q 432 867 432 822 q 462 942 432 911 q 540 974 492 974 q 618 942 589 974 q 647 867 647 911 z "},"ý":{"ha":749,"x_min":31,"x_max":713,"o":"m 189 167 q 116 348 157 236 q 31 638 75 460 q 77 669 47 656 q 142 682 107 682 q 214 663 186 682 q 257 594 242 644 q 319 394 288 493 q 382 196 350 296 l 388 196 q 422 299 404 243 q 457 416 440 356 q 488 538 474 476 q 514 658 503 600 q 604 682 557 682 q 681 663 649 682 q 713 599 713 643 q 695 472 713 549 q 649 310 678 394 q 585 144 621 226 q 513 -1 550 61 q 372 -198 435 -133 q 246 -262 310 -262 q 161 -231 194 -262 q 121 -151 128 -200 q 213 -60 165 -112 q 294 44 261 -8 q 245 76 271 51 q 189 167 219 100 m 431 1028 q 527 999 494 1026 q 560 936 560 972 q 547 888 560 907 q 504 842 535 868 l 374 731 q 290 756 318 731 q 261 814 261 782 q 267 843 261 829 q 292 876 274 857 l 431 1028 z "},"þ":{"ha":807,"x_min":81,"x_max":757,"o":"m 415 -21 q 349 -15 379 -21 q 293 1 318 -8 l 293 -235 q 254 -243 279 -239 q 199 -247 229 -247 q 108 -226 136 -247 q 81 -147 81 -206 l 81 904 q 121 913 96 908 q 176 917 146 917 q 266 896 239 917 q 293 817 293 875 l 293 667 q 351 682 319 675 q 422 689 383 689 q 551 669 490 689 q 658 606 613 649 q 731 496 704 563 q 757 338 757 429 q 731 183 757 250 q 660 70 706 115 q 551 2 614 25 q 415 -21 489 -21 m 383 147 q 499 194 458 147 q 540 338 540 242 q 499 479 540 436 q 390 522 457 522 q 342 517 367 522 q 293 499 318 511 l 293 171 q 335 153 313 160 q 383 147 357 147 z "},"ÿ":{"ha":749,"x_min":31,"x_max":713,"o":"m 189 167 q 116 348 157 236 q 31 638 75 460 q 77 669 47 656 q 142 682 107 682 q 214 663 186 682 q 257 594 242 644 q 319 394 288 493 q 382 196 350 296 l 388 196 q 422 299 404 243 q 457 416 440 356 q 488 538 474 476 q 514 658 503 600 q 604 682 557 682 q 681 663 649 682 q 713 599 713 643 q 695 472 713 549 q 649 310 678 394 q 585 144 621 226 q 513 -1 550 61 q 372 -198 435 -133 q 246 -262 310 -262 q 161 -231 194 -262 q 121 -151 128 -200 q 213 -60 165 -112 q 294 44 261 -8 q 245 76 271 51 q 189 167 219 100 m 333 867 q 303 792 333 822 q 225 763 274 763 q 147 792 176 763 q 118 867 118 822 q 147 942 118 911 q 225 974 176 974 q 303 942 274 974 q 333 867 333 911 m 621 867 q 592 792 621 822 q 514 763 563 763 q 435 792 465 763 q 406 867 406 822 q 435 942 406 911 q 514 974 465 974 q 592 942 563 974 q 621 867 621 911 z "},"Ā":{"ha":861,"x_min":33,"x_max":835,"o":"m 222 961 q 208 996 215 975 q 201 1040 201 1017 q 221 1104 201 1086 q 272 1122 240 1122 l 631 1122 q 647 1089 642 1110 q 651 1044 651 1068 q 633 980 651 999 q 582 961 614 961 l 222 961 m 565 185 l 293 185 q 265 86 278 135 q 242 0 251 38 q 204 -10 224 -6 q 157 -14 185 -14 q 65 8 96 -14 q 33 69 33 29 q 39 107 33 89 q 51 149 44 125 q 79 242 61 186 q 119 362 97 297 q 164 494 140 426 q 210 624 188 563 q 250 738 232 686 q 281 819 268 789 q 345 843 301 832 q 432 854 389 854 q 542 837 494 854 q 604 779 590 819 q 661 608 631 706 q 723 408 692 511 q 783 206 754 306 q 835 26 813 106 q 790 -3 819 8 q 718 -14 760 -14 q 634 7 658 -14 q 599 72 610 28 l 565 185 m 431 660 q 383 517 411 597 q 329 354 354 438 l 528 354 q 480 522 504 442 q 439 660 456 601 l 431 660 z "},"ā":{"ha":743,"x_min":43,"x_max":667,"o":"m 356 135 q 416 141 386 135 q 461 157 446 147 l 461 285 l 347 275 q 276 255 303 271 q 249 207 249 239 q 274 154 249 174 q 356 135 299 135 m 347 689 q 478 674 419 689 q 579 629 538 660 q 644 551 621 599 q 667 440 667 504 l 667 126 q 648 69 667 90 q 603 32 629 47 q 497 -8 560 6 q 356 -22 435 -22 q 128 33 213 -22 q 43 200 43 88 q 100 346 43 296 q 275 408 157 396 l 460 428 l 460 443 q 424 508 460 488 q 319 529 388 529 q 216 517 267 529 q 125 488 165 504 q 97 522 108 499 q 85 571 85 544 q 149 658 85 632 q 242 681 189 674 q 347 689 296 689 m 178 785 q 164 819 171 799 q 157 863 157 840 q 176 927 157 908 q 226 946 194 946 l 585 946 q 601 912 596 932 q 606 868 606 892 q 587 803 606 822 q 536 785 568 785 l 178 785 z "},"Ă":{"ha":861,"x_min":33,"x_max":835,"o":"m 565 185 l 293 185 q 265 86 278 135 q 242 0 251 38 q 204 -10 224 -6 q 157 -14 185 -14 q 65 8 96 -14 q 33 69 33 29 q 39 107 33 89 q 51 149 44 125 q 79 242 61 186 q 119 362 97 297 q 164 494 140 426 q 210 624 188 563 q 250 738 232 686 q 281 819 268 789 q 345 843 301 832 q 432 854 389 854 q 542 837 494 854 q 604 779 590 819 q 661 608 631 706 q 723 408 692 511 q 783 206 754 306 q 835 26 813 106 q 790 -3 819 8 q 718 -14 760 -14 q 634 7 658 -14 q 599 72 610 28 l 565 185 m 431 660 q 383 517 411 597 q 329 354 354 438 l 528 354 q 480 522 504 442 q 439 660 456 601 l 431 660 m 435 1075 q 505 1097 478 1075 q 540 1151 532 1118 q 553 1153 547 1153 q 565 1153 558 1153 q 639 1125 614 1153 q 664 1061 664 1097 q 605 961 664 1003 q 435 919 546 919 q 264 961 322 919 q 206 1061 206 1003 q 230 1125 206 1097 q 304 1153 254 1153 q 317 1153 311 1153 q 329 1151 322 1153 q 364 1097 336 1118 q 435 1075 392 1075 z "},"ă":{"ha":743,"x_min":43,"x_max":667,"o":"m 356 135 q 416 141 386 135 q 461 157 446 147 l 461 285 l 347 275 q 276 255 303 271 q 249 207 249 239 q 274 154 249 174 q 356 135 299 135 m 347 689 q 478 674 419 689 q 579 629 538 660 q 644 551 621 599 q 667 440 667 504 l 667 126 q 648 69 667 90 q 603 32 629 47 q 497 -8 560 6 q 356 -22 435 -22 q 128 33 213 -22 q 43 200 43 88 q 100 346 43 296 q 275 408 157 396 l 460 428 l 460 443 q 424 508 460 488 q 319 529 388 529 q 216 517 267 529 q 125 488 165 504 q 97 522 108 499 q 85 571 85 544 q 149 658 85 632 q 242 681 189 674 q 347 689 296 689 m 372 921 q 442 942 415 921 q 478 997 469 964 q 490 999 485 999 q 503 999 496 999 q 576 971 551 999 q 601 907 601 943 q 542 807 601 849 q 372 765 483 765 q 201 807 260 765 q 143 907 143 849 q 167 971 143 943 q 242 999 192 999 q 254 999 249 999 q 267 997 260 999 q 301 942 274 964 q 372 921 329 921 z "},"Ą":{"ha":861,"x_min":33,"x_max":854,"o":"m 565 185 l 293 185 q 265 86 278 135 q 242 0 251 38 q 204 -10 224 -6 q 157 -14 185 -14 q 65 8 96 -14 q 33 69 33 29 q 39 107 33 89 q 51 149 44 125 q 79 242 61 186 q 119 362 97 297 q 164 494 140 426 q 210 624 188 563 q 250 738 232 686 q 281 819 268 789 q 345 843 301 832 q 432 854 389 854 q 542 837 494 854 q 604 779 590 819 q 661 608 631 706 q 723 408 692 511 q 783 206 754 306 q 835 26 813 106 q 786 -3 815 6 q 765 -31 774 -15 q 757 -67 757 -46 q 835 -131 757 -131 l 844 -131 q 851 -155 849 -142 q 854 -183 854 -168 q 828 -248 854 -219 q 735 -276 803 -276 q 612 -238 660 -276 q 564 -132 564 -200 q 587 -46 564 -82 q 635 6 610 -10 q 612 33 619 17 q 599 72 604 49 l 565 185 m 431 660 q 383 517 411 597 q 329 354 354 438 l 528 354 q 480 522 504 442 q 439 660 456 601 l 431 660 z "},"ą":{"ha":743,"x_min":43,"x_max":667,"o":"m 347 689 q 478 674 419 689 q 579 629 538 660 q 644 551 621 599 q 667 440 667 504 l 667 126 q 651 74 667 94 q 611 38 635 53 q 567 -8 583 14 q 551 -67 551 -31 q 629 -131 551 -131 l 639 -131 q 646 -155 643 -142 q 649 -183 649 -168 q 623 -248 649 -219 q 528 -276 597 -276 q 406 -238 454 -276 q 358 -132 358 -200 q 372 -67 358 -94 q 406 -21 386 -39 q 381 -22 394 -21 q 356 -22 368 -22 q 128 33 213 -22 q 43 200 43 88 q 100 346 43 296 q 275 408 157 396 l 460 428 l 460 443 q 424 508 460 488 q 319 529 388 529 q 216 517 267 529 q 125 488 165 504 q 97 522 108 499 q 85 571 85 544 q 149 658 85 632 q 242 681 189 674 q 347 689 296 689 m 356 135 q 416 141 386 135 q 461 157 446 147 l 461 285 l 347 275 q 276 255 303 271 q 249 207 249 239 q 274 154 249 174 q 356 135 299 135 z "},"Ć":{"ha":797,"x_min":54,"x_max":753,"o":"m 749 725 q 732 669 749 693 q 693 631 715 644 q 615 672 657 654 q 514 690 572 690 q 340 620 403 690 q 278 421 278 550 q 344 220 278 288 q 525 153 410 153 q 627 169 585 153 q 706 207 669 185 q 740 165 726 190 q 753 107 753 139 q 738 55 753 79 q 688 14 724 31 q 613 -12 660 0 q 496 -24 565 -24 q 322 3 403 -24 q 182 83 242 29 q 88 222 122 138 q 54 421 54 306 q 88 613 54 529 q 181 752 122 696 q 317 838 239 808 q 483 867 394 867 q 679 826 610 867 q 749 725 749 786 m 547 1168 q 630 1142 600 1168 q 660 1079 660 1117 q 647 1032 660 1053 q 600 989 635 1011 l 465 904 q 389 926 415 904 q 363 979 363 949 q 368 1010 363 996 q 393 1042 374 1025 l 547 1168 z "},"ć":{"ha":676,"x_min":47,"x_max":628,"o":"m 443 521 q 315 473 368 521 q 263 332 263 425 q 313 193 263 239 q 442 147 364 147 q 520 159 486 147 q 578 183 554 171 q 615 145 601 165 q 628 96 628 125 q 572 11 628 43 q 418 -21 517 -21 q 266 1 335 -21 q 149 68 197 24 q 74 178 100 113 q 47 332 47 244 q 76 489 47 422 q 156 600 106 556 q 272 667 206 644 q 413 689 339 689 q 563 654 508 689 q 618 567 618 619 q 606 521 618 542 q 578 485 594 500 q 519 510 553 499 q 443 521 485 521 m 461 1028 q 558 999 525 1026 q 590 936 590 972 q 578 888 590 907 q 535 842 565 868 l 404 731 q 320 756 349 731 q 292 814 292 782 q 298 843 292 829 q 322 876 304 857 l 461 1028 z "},"Ĉ":{"ha":797,"x_min":54,"x_max":753,"o":"m 749 725 q 732 669 749 693 q 693 631 715 644 q 615 672 657 654 q 514 690 572 690 q 340 620 403 690 q 278 421 278 550 q 344 220 278 288 q 525 153 410 153 q 627 169 585 153 q 706 207 669 185 q 740 165 726 190 q 753 107 753 139 q 738 55 753 79 q 688 14 724 31 q 613 -12 660 0 q 496 -24 565 -24 q 322 3 403 -24 q 182 83 242 29 q 88 222 122 138 q 54 421 54 306 q 88 613 54 529 q 181 752 122 696 q 317 838 239 808 q 483 867 394 867 q 679 826 610 867 q 749 725 749 786 m 467 1024 q 402 963 435 994 q 338 904 369 932 q 271 926 297 904 q 244 983 244 949 q 258 1030 244 1011 q 304 1075 271 1049 l 353 1115 q 416 1156 389 1143 q 469 1168 443 1168 q 530 1155 503 1168 q 585 1114 557 1142 l 697 997 q 674 931 697 953 q 611 908 651 908 q 564 924 585 908 q 511 974 543 940 l 467 1024 z "},"ĉ":{"ha":676,"x_min":47,"x_max":628,"o":"m 443 521 q 315 473 368 521 q 263 332 263 425 q 313 193 263 239 q 442 147 364 147 q 520 159 486 147 q 578 183 554 171 q 615 145 601 165 q 628 96 628 125 q 572 11 628 43 q 418 -21 517 -21 q 266 1 335 -21 q 149 68 197 24 q 74 178 100 113 q 47 332 47 244 q 76 489 47 422 q 156 600 106 556 q 272 667 206 644 q 413 689 339 689 q 563 654 508 689 q 618 567 618 619 q 606 521 618 542 q 578 485 594 500 q 519 510 553 499 q 443 521 485 521 m 382 867 q 349 831 364 847 q 322 800 335 815 q 295 770 308 785 q 268 738 282 756 q 190 760 219 739 q 161 818 161 782 q 175 863 161 844 q 217 908 189 881 l 271 964 q 322 1003 294 988 q 385 1018 349 1018 q 446 1006 418 1018 q 508 950 474 993 l 611 825 q 590 765 611 790 q 528 740 569 740 q 483 754 503 740 q 444 792 464 768 l 382 867 z "},"Ċ":{"ha":797,"x_min":54,"x_max":753,"o":"m 749 725 q 732 669 749 693 q 693 631 715 644 q 615 672 657 654 q 514 690 572 690 q 340 620 403 690 q 278 421 278 550 q 344 220 278 288 q 525 153 410 153 q 627 169 585 153 q 706 207 669 185 q 740 165 726 190 q 753 107 753 139 q 738 55 753 79 q 688 14 724 31 q 613 -12 660 0 q 496 -24 565 -24 q 322 3 403 -24 q 182 83 242 29 q 88 222 122 138 q 54 421 54 306 q 88 613 54 529 q 181 752 122 696 q 317 838 239 808 q 483 867 394 867 q 679 826 610 867 q 749 725 749 786 m 585 1047 q 553 968 585 1000 q 471 936 522 936 q 387 968 418 936 q 356 1047 356 1000 q 387 1127 356 1096 q 471 1158 418 1158 q 553 1127 522 1158 q 585 1047 585 1096 z "},"ċ":{"ha":676,"x_min":47,"x_max":628,"o":"m 443 521 q 315 473 368 521 q 263 332 263 425 q 313 193 263 239 q 442 147 364 147 q 520 159 486 147 q 578 183 554 171 q 615 145 601 165 q 628 96 628 125 q 572 11 628 43 q 418 -21 517 -21 q 266 1 335 -21 q 149 68 197 24 q 74 178 100 113 q 47 332 47 244 q 76 489 47 422 q 156 600 106 556 q 272 667 206 644 q 413 689 339 689 q 563 654 508 689 q 618 567 618 619 q 606 521 618 542 q 578 485 594 500 q 519 510 553 499 q 443 521 485 521 m 499 871 q 467 792 499 824 q 385 760 436 760 q 301 792 332 760 q 269 871 269 824 q 301 951 269 919 q 385 982 332 982 q 467 951 436 982 q 499 871 499 919 z "},"Č":{"ha":797,"x_min":54,"x_max":753,"o":"m 749 725 q 732 669 749 693 q 693 631 715 644 q 615 672 657 654 q 514 690 572 690 q 340 620 403 690 q 278 421 278 550 q 344 220 278 288 q 525 153 410 153 q 627 169 585 153 q 706 207 669 185 q 740 165 726 190 q 753 107 753 139 q 738 55 753 79 q 688 14 724 31 q 613 -12 660 0 q 496 -24 565 -24 q 322 3 403 -24 q 182 83 242 29 q 88 222 122 138 q 54 421 54 306 q 88 613 54 529 q 181 752 122 696 q 317 838 239 808 q 483 867 394 867 q 679 826 610 867 q 749 725 749 786 m 475 1047 q 540 1108 507 1076 q 606 1168 574 1140 q 673 1144 646 1167 q 700 1088 700 1122 q 687 1040 700 1060 q 639 994 674 1021 l 592 954 q 531 916 556 926 q 475 906 506 906 q 409 920 438 906 q 356 958 381 935 l 240 1065 q 263 1138 240 1113 q 325 1164 285 1164 q 373 1150 351 1164 q 431 1097 394 1136 l 475 1047 z "},"č":{"ha":676,"x_min":47,"x_max":628,"o":"m 443 521 q 315 473 368 521 q 263 332 263 425 q 313 193 263 239 q 442 147 364 147 q 520 159 486 147 q 578 183 554 171 q 615 145 601 165 q 628 96 628 125 q 572 11 628 43 q 418 -21 517 -21 q 266 1 335 -21 q 149 68 197 24 q 74 178 100 113 q 47 332 47 244 q 76 489 47 422 q 156 600 106 556 q 272 667 206 644 q 413 689 339 689 q 563 654 508 689 q 618 567 618 619 q 606 521 618 542 q 578 485 594 500 q 519 510 553 499 q 443 521 485 521 m 379 892 l 504 1013 q 582 988 553 1011 q 611 929 611 965 q 597 883 611 901 q 550 838 582 864 l 483 779 q 382 739 435 739 q 351 741 365 739 q 322 751 338 743 q 290 771 307 758 q 250 804 272 783 l 144 900 q 143 908 143 903 q 143 919 143 914 q 163 981 143 953 q 224 1010 182 1010 q 247 1008 236 1010 q 269 999 257 1006 q 294 980 281 992 q 325 950 307 968 l 379 892 z "},"Ď":{"ha":921,"x_min":97,"x_max":868,"o":"m 643 421 q 577 622 643 556 q 406 688 511 688 q 358 686 381 688 q 314 681 336 685 l 314 164 q 358 158 332 160 q 407 156 383 156 q 579 222 515 156 q 643 421 643 288 m 868 424 q 835 229 868 313 q 741 90 801 146 q 595 7 681 35 q 406 -21 510 -21 q 352 -19 382 -21 q 291 -15 322 -18 q 228 -5 260 -11 q 169 11 196 1 q 97 106 97 38 l 97 767 q 112 810 97 794 q 154 835 126 825 q 275 858 211 853 q 392 864 339 864 q 586 838 499 864 q 736 756 674 811 q 833 619 799 701 q 868 424 868 536 m 465 1047 q 531 1108 497 1076 q 596 1168 564 1140 q 663 1144 636 1167 q 690 1088 690 1122 q 677 1040 690 1060 q 629 994 664 1021 l 582 954 q 521 916 546 926 q 465 906 496 906 q 399 920 428 906 q 346 958 371 935 l 231 1065 q 253 1138 231 1113 q 315 1164 275 1164 q 363 1150 342 1164 q 421 1097 385 1136 l 465 1047 z "},"ď":{"ha":1033,"x_min":47,"x_max":1036,"o":"m 397 689 q 458 684 429 689 q 510 671 486 679 l 510 904 q 550 913 525 908 q 606 917 575 917 q 695 896 668 917 q 722 817 722 875 l 722 140 q 708 84 722 107 q 664 42 694 61 q 564 -1 625 18 q 424 -21 503 -21 q 148 67 249 -21 q 47 332 47 156 q 74 490 47 424 q 149 601 101 557 q 260 667 196 646 q 397 689 324 689 m 511 501 q 472 516 493 510 q 426 522 450 522 q 307 476 351 522 q 263 331 263 431 q 305 191 263 235 q 422 147 347 147 q 474 153 451 147 q 511 168 497 160 l 511 501 m 960 690 q 914 658 939 667 q 861 649 889 649 q 781 678 814 649 q 823 789 808 735 q 844 894 838 843 q 891 913 864 906 q 944 919 918 919 q 1010 904 985 919 q 1036 853 1036 889 q 1029 814 1036 836 q 1011 769 1022 792 q 986 725 1000 746 q 960 690 972 704 z "},"Đ":{"ha":969,"x_min":18,"x_max":917,"o":"m 917 424 q 883 229 917 313 q 790 90 850 146 q 644 7 729 35 q 454 -21 558 -21 q 401 -19 431 -21 q 340 -15 371 -18 q 276 -5 308 -11 q 218 11 244 1 q 146 106 146 38 l 146 339 l 42 339 q 25 374 32 353 q 18 422 18 394 q 38 488 18 467 q 94 510 58 510 l 146 510 l 146 767 q 160 810 146 794 q 203 835 175 825 q 324 858 260 853 q 440 864 388 864 q 635 838 547 864 q 785 756 722 811 q 882 619 847 701 q 917 424 917 536 m 692 421 q 626 622 692 556 q 454 688 560 688 q 407 686 429 688 q 363 681 385 685 l 363 510 l 500 510 q 515 475 508 496 q 522 428 522 454 q 502 360 522 382 q 447 339 482 339 l 363 339 l 363 164 q 406 158 381 160 q 456 156 432 156 q 628 222 564 156 q 692 421 692 288 z "},"đ":{"ha":811,"x_min":47,"x_max":813,"o":"m 722 140 q 708 84 722 107 q 664 42 694 61 q 564 -1 625 18 q 424 -21 503 -21 q 148 67 249 -21 q 47 332 47 156 q 74 490 47 424 q 149 601 101 557 q 260 667 196 646 q 397 689 324 689 q 458 684 429 689 q 510 671 486 679 l 510 735 l 403 735 q 392 761 397 746 q 386 794 386 776 q 401 841 386 826 q 440 856 415 856 l 510 856 l 510 939 q 550 947 525 943 q 606 950 575 950 q 694 930 667 950 q 722 856 721 910 l 796 856 q 806 832 800 847 q 813 797 813 817 q 757 735 813 735 l 722 735 l 722 140 m 511 501 q 472 516 493 510 q 426 522 450 522 q 307 476 351 522 q 263 331 263 431 q 305 191 263 235 q 422 147 347 147 q 474 153 451 147 q 511 168 497 160 l 511 501 z "},"Ē":{"ha":760,"x_min":100,"x_max":703,"o":"m 215 -3 q 131 28 163 -3 q 100 113 100 60 l 100 726 q 131 810 100 779 q 215 842 163 842 l 675 842 q 690 807 683 828 q 697 760 697 786 q 677 692 697 714 q 621 669 657 669 l 313 669 l 313 514 l 635 514 q 650 479 643 500 q 657 432 657 458 q 638 365 657 386 q 582 343 618 343 l 313 343 l 313 169 l 681 169 q 696 133 689 156 q 703 85 703 111 q 683 18 703 39 q 628 -3 663 -3 l 215 -3 m 211 961 q 197 996 204 975 q 190 1039 190 1017 q 209 1103 190 1085 q 260 1122 228 1122 l 618 1122 q 634 1088 629 1108 q 639 1044 639 1068 q 620 980 639 999 q 569 961 601 961 l 211 961 z "},"ē":{"ha":754,"x_min":47,"x_max":710,"o":"m 258 246 q 326 163 278 188 q 439 139 375 139 q 549 155 497 139 q 632 190 600 171 q 667 154 653 176 q 681 106 681 132 q 661 50 681 74 q 608 10 642 26 q 527 -13 574 -6 q 425 -21 481 -21 q 274 2 343 -21 q 154 70 204 25 q 76 183 104 115 q 47 343 47 251 q 76 497 47 432 q 152 606 104 563 q 262 669 200 649 q 389 689 324 689 q 519 667 460 689 q 620 607 578 646 q 686 514 663 568 q 710 396 710 460 q 686 329 710 351 q 619 300 663 307 l 258 246 m 390 532 q 291 495 331 532 q 244 389 251 458 l 510 432 q 478 500 507 468 q 390 532 449 532 m 186 785 q 172 819 179 799 q 165 863 165 840 q 184 927 165 908 q 235 946 203 946 l 593 946 q 609 912 604 932 q 614 868 614 892 q 595 803 614 822 q 544 785 576 785 l 186 785 z "},"Ĕ":{"ha":760,"x_min":100,"x_max":703,"o":"m 215 -3 q 131 28 163 -3 q 100 113 100 60 l 100 726 q 131 810 100 779 q 215 842 163 842 l 675 842 q 690 807 683 828 q 697 760 697 786 q 677 692 697 714 q 621 669 657 669 l 313 669 l 313 514 l 635 514 q 650 479 643 500 q 657 432 657 458 q 638 365 657 386 q 582 343 618 343 l 313 343 l 313 169 l 681 169 q 696 133 689 156 q 703 85 703 111 q 683 18 703 39 q 628 -3 663 -3 l 215 -3 m 414 1088 q 484 1109 457 1088 q 519 1164 511 1131 q 532 1165 526 1165 q 544 1165 538 1165 q 618 1138 593 1165 q 643 1074 643 1110 q 584 974 643 1015 q 414 932 525 932 q 243 974 301 932 q 185 1074 185 1015 q 209 1138 185 1110 q 283 1165 233 1165 q 296 1165 290 1165 q 308 1164 301 1165 q 343 1109 315 1131 q 414 1088 371 1088 z "},"ĕ":{"ha":754,"x_min":47,"x_max":710,"o":"m 258 246 q 326 163 278 188 q 439 139 375 139 q 549 155 497 139 q 632 190 600 171 q 667 154 653 176 q 681 106 681 132 q 661 50 681 74 q 608 10 642 26 q 527 -13 574 -6 q 425 -21 481 -21 q 274 2 343 -21 q 154 70 204 25 q 76 183 104 115 q 47 343 47 251 q 76 497 47 432 q 152 606 104 563 q 262 669 200 649 q 389 689 324 689 q 519 667 460 689 q 620 607 578 646 q 686 514 663 568 q 710 396 710 460 q 686 329 710 351 q 619 300 663 307 l 258 246 m 390 532 q 291 495 331 532 q 244 389 251 458 l 510 432 q 478 500 507 468 q 390 532 449 532 m 399 921 q 469 942 442 921 q 504 997 496 964 q 517 999 511 999 q 529 999 522 999 q 603 971 578 999 q 628 907 628 943 q 569 807 628 849 q 399 765 510 765 q 228 807 286 765 q 169 907 169 849 q 194 971 169 943 q 268 999 218 999 q 281 999 275 999 q 293 997 286 999 q 328 942 300 964 q 399 921 356 921 z "},"Ė":{"ha":760,"x_min":100,"x_max":703,"o":"m 215 -3 q 131 28 163 -3 q 100 113 100 60 l 100 726 q 131 810 100 779 q 215 842 163 842 l 675 842 q 690 807 683 828 q 697 760 697 786 q 677 692 697 714 q 621 669 657 669 l 313 669 l 313 514 l 635 514 q 650 479 643 500 q 657 432 657 458 q 638 365 657 386 q 582 343 618 343 l 313 343 l 313 169 l 681 169 q 696 133 689 156 q 703 85 703 111 q 683 18 703 39 q 628 -3 663 -3 l 215 -3 m 531 1047 q 499 968 531 1000 q 417 936 468 936 q 333 968 364 936 q 301 1047 301 1000 q 333 1127 301 1096 q 417 1158 364 1158 q 499 1127 468 1158 q 531 1047 531 1096 z "},"ė":{"ha":754,"x_min":47,"x_max":710,"o":"m 258 246 q 326 163 278 188 q 439 139 375 139 q 549 155 497 139 q 632 190 600 171 q 667 154 653 176 q 681 106 681 132 q 661 50 681 74 q 608 10 642 26 q 527 -13 574 -6 q 425 -21 481 -21 q 274 2 343 -21 q 154 70 204 25 q 76 183 104 115 q 47 343 47 251 q 76 497 47 432 q 152 606 104 563 q 262 669 200 649 q 389 689 324 689 q 519 667 460 689 q 620 607 578 646 q 686 514 663 568 q 710 396 710 460 q 686 329 710 351 q 619 300 663 307 l 258 246 m 390 532 q 291 495 331 532 q 244 389 251 458 l 510 432 q 478 500 507 468 q 390 532 449 532 m 507 871 q 476 792 507 824 q 393 760 444 760 q 309 792 340 760 q 278 871 278 824 q 309 951 278 919 q 393 982 340 982 q 476 951 444 982 q 507 871 507 919 z "},"Ę":{"ha":760,"x_min":100,"x_max":703,"o":"m 215 -3 q 131 28 163 -3 q 100 113 100 60 l 100 726 q 131 810 100 779 q 215 842 163 842 l 675 842 q 690 807 683 828 q 697 760 697 786 q 677 692 697 714 q 621 669 657 669 l 313 669 l 313 514 l 635 514 q 650 479 643 500 q 657 432 657 458 q 638 365 657 386 q 582 343 618 343 l 313 343 l 313 169 l 681 169 q 696 133 689 156 q 703 85 703 111 q 685 20 703 40 q 635 -3 667 0 q 613 -30 621 -14 q 604 -67 604 -46 q 682 -131 604 -131 l 692 -131 q 699 -155 696 -142 q 701 -183 701 -168 q 676 -248 701 -219 q 582 -276 650 -276 q 459 -238 507 -276 q 411 -132 411 -200 q 430 -54 411 -87 q 472 -3 449 -21 l 215 -3 l 215 -3 z "},"ę":{"ha":754,"x_min":47,"x_max":710,"o":"m 258 246 q 326 163 278 188 q 439 139 375 139 q 549 155 497 139 q 632 190 600 171 q 667 154 653 176 q 681 106 681 132 q 651 38 681 65 q 569 -3 621 11 q 549 -31 557 -15 q 540 -67 540 -46 q 618 -131 540 -131 l 628 -131 q 635 -155 632 -142 q 638 -183 638 -168 q 612 -248 638 -219 q 518 -276 586 -276 q 395 -238 443 -276 q 347 -132 347 -200 q 360 -67 347 -96 q 390 -19 372 -39 q 252 10 315 -15 q 144 80 189 35 q 73 191 99 125 q 47 343 47 257 q 76 497 47 432 q 152 606 104 563 q 262 669 200 649 q 389 689 324 689 q 519 667 460 689 q 620 607 578 646 q 686 514 663 568 q 710 396 710 460 q 686 329 710 351 q 619 300 663 307 l 258 246 m 390 532 q 291 495 331 532 q 244 389 251 458 l 510 432 q 478 500 507 468 q 390 532 449 532 z "},"Ě":{"ha":760,"x_min":100,"x_max":703,"o":"m 215 -3 q 131 28 163 -3 q 100 113 100 60 l 100 726 q 131 810 100 779 q 215 842 163 842 l 675 842 q 690 807 683 828 q 697 760 697 786 q 677 692 697 714 q 621 669 657 669 l 313 669 l 313 514 l 635 514 q 650 479 643 500 q 657 432 657 458 q 638 365 657 386 q 582 343 618 343 l 313 343 l 313 169 l 681 169 q 696 133 689 156 q 703 85 703 111 q 683 18 703 39 q 628 -3 663 -3 l 215 -3 m 414 1047 q 479 1108 446 1076 q 544 1168 513 1140 q 612 1144 585 1167 q 639 1088 639 1122 q 626 1040 639 1060 q 578 994 613 1021 l 531 954 q 469 916 494 926 q 414 906 444 906 q 348 920 376 906 q 294 958 319 935 l 179 1065 q 201 1138 179 1113 q 264 1164 224 1164 q 312 1150 290 1164 q 369 1097 333 1136 l 414 1047 z "},"ě":{"ha":754,"x_min":47,"x_max":710,"o":"m 258 246 q 326 163 278 188 q 439 139 375 139 q 549 155 497 139 q 632 190 600 171 q 667 154 653 176 q 681 106 681 132 q 661 50 681 74 q 608 10 642 26 q 527 -13 574 -6 q 425 -21 481 -21 q 274 2 343 -21 q 154 70 204 25 q 76 183 104 115 q 47 343 47 251 q 76 497 47 432 q 152 606 104 563 q 262 669 200 649 q 389 689 324 689 q 519 667 460 689 q 620 607 578 646 q 686 514 663 568 q 710 396 710 460 q 686 329 710 351 q 619 300 663 307 l 258 246 m 390 532 q 291 495 331 532 q 244 389 251 458 l 510 432 q 478 500 507 468 q 390 532 449 532 m 399 892 l 524 1013 q 601 988 572 1011 q 631 929 631 965 q 616 883 631 901 q 569 838 601 864 l 503 779 q 401 739 454 739 q 371 741 385 739 q 342 751 357 743 q 309 771 326 758 q 269 804 292 783 l 164 900 q 163 908 163 903 q 163 919 163 914 q 182 981 163 953 q 243 1010 201 1010 q 266 1008 256 1010 q 288 999 276 1006 q 313 980 300 992 q 344 950 326 968 l 399 892 z "},"Ĝ":{"ha":915,"x_min":54,"x_max":842,"o":"m 842 128 q 826 68 842 88 q 778 29 811 49 q 731 8 758 18 q 669 -8 703 -1 q 598 -19 635 -15 q 525 -24 561 -24 q 340 2 425 -24 q 190 82 254 28 q 90 219 126 136 q 54 419 54 303 q 91 613 54 529 q 191 753 128 697 q 340 838 254 810 q 524 867 425 867 q 729 826 653 867 q 806 724 806 786 q 789 667 806 692 q 750 629 772 643 q 663 671 715 651 q 540 690 611 690 q 434 672 482 690 q 351 618 386 653 q 297 533 317 583 q 278 421 278 483 q 297 302 278 353 q 349 218 315 251 q 428 168 382 185 q 529 151 475 151 q 590 158 563 151 q 632 172 617 165 l 632 329 l 472 329 q 457 365 464 343 q 450 413 450 388 q 471 478 450 457 q 525 499 492 499 l 758 499 q 819 477 797 499 q 842 417 842 456 l 842 128 m 490 1024 q 426 963 458 994 q 361 904 393 932 q 294 926 321 904 q 268 983 268 949 q 281 1030 268 1011 q 328 1075 294 1049 l 376 1115 q 440 1156 413 1143 q 493 1168 467 1168 q 553 1155 526 1168 q 608 1114 581 1142 l 721 997 q 698 931 721 953 q 635 908 675 908 q 588 924 608 908 q 535 974 567 940 l 490 1024 z "},"ĝ":{"ha":779,"x_min":50,"x_max":701,"o":"m 500 54 q 438 34 472 42 q 358 26 403 26 q 240 44 296 26 q 142 100 183 61 q 75 201 100 139 q 50 354 50 264 q 75 499 50 436 q 147 603 100 561 q 258 667 193 646 q 401 689 322 689 q 544 669 479 689 q 644 625 608 649 q 686 584 671 607 q 701 526 701 561 l 701 3 q 675 -122 701 -69 q 602 -209 649 -175 q 493 -260 556 -243 q 358 -276 431 -276 q 228 -264 283 -276 q 142 -232 174 -251 q 94 -143 94 -199 q 107 -90 94 -114 q 135 -54 119 -65 q 224 -92 174 -76 q 332 -108 275 -108 q 455 -81 410 -108 q 500 8 500 -54 l 500 54 m 396 186 q 453 194 429 186 q 497 217 478 203 l 497 501 q 460 515 481 508 q 410 522 440 522 q 302 481 343 522 q 261 353 261 440 q 272 274 261 306 q 300 222 282 242 q 342 194 318 203 q 396 186 367 186 m 400 867 q 367 831 382 847 q 340 800 353 815 q 313 770 326 785 q 286 738 300 756 q 208 760 238 739 q 179 818 179 782 q 193 863 179 844 q 235 908 207 881 l 289 964 q 340 1003 313 988 q 403 1018 367 1018 q 464 1006 436 1018 q 526 950 492 993 l 629 825 q 608 765 629 790 q 546 740 588 740 q 501 754 521 740 q 463 792 482 768 l 400 867 z "},"Ğ":{"ha":915,"x_min":54,"x_max":842,"o":"m 842 128 q 826 68 842 88 q 778 29 811 49 q 731 8 758 18 q 669 -8 703 -1 q 598 -19 635 -15 q 525 -24 561 -24 q 340 2 425 -24 q 190 82 254 28 q 90 219 126 136 q 54 419 54 303 q 91 613 54 529 q 191 753 128 697 q 340 838 254 810 q 524 867 425 867 q 729 826 653 867 q 806 724 806 786 q 789 667 806 692 q 750 629 772 643 q 663 671 715 651 q 540 690 611 690 q 434 672 482 690 q 351 618 386 653 q 297 533 317 583 q 278 421 278 483 q 297 302 278 353 q 349 218 315 251 q 428 168 382 185 q 529 151 475 151 q 590 158 563 151 q 632 172 617 165 l 632 329 l 472 329 q 457 365 464 343 q 450 413 450 388 q 471 478 450 457 q 525 499 492 499 l 758 499 q 819 477 797 499 q 842 417 842 456 l 842 128 m 482 1088 q 552 1109 525 1088 q 588 1164 579 1131 q 600 1165 594 1165 q 613 1165 606 1165 q 686 1138 661 1165 q 711 1074 711 1110 q 652 974 711 1015 q 482 932 593 932 q 311 974 369 932 q 253 1074 253 1015 q 277 1138 253 1110 q 351 1165 301 1165 q 364 1165 358 1165 q 376 1164 369 1165 q 411 1109 383 1131 q 482 1088 439 1088 z "},"ğ":{"ha":779,"x_min":50,"x_max":701,"o":"m 500 54 q 438 34 472 42 q 358 26 403 26 q 240 44 296 26 q 142 100 183 61 q 75 201 100 139 q 50 354 50 264 q 75 499 50 436 q 147 603 100 561 q 258 667 193 646 q 401 689 322 689 q 544 669 479 689 q 644 625 608 649 q 686 584 671 607 q 701 526 701 561 l 701 3 q 675 -122 701 -69 q 602 -209 649 -175 q 493 -260 556 -243 q 358 -276 431 -276 q 228 -264 283 -276 q 142 -232 174 -251 q 94 -143 94 -199 q 107 -90 94 -114 q 135 -54 119 -65 q 224 -92 174 -76 q 332 -108 275 -108 q 455 -81 410 -108 q 500 8 500 -54 l 500 54 m 396 186 q 453 194 429 186 q 497 217 478 203 l 497 501 q 460 515 481 508 q 410 522 440 522 q 302 481 343 522 q 261 353 261 440 q 272 274 261 306 q 300 222 282 242 q 342 194 318 203 q 396 186 367 186 m 392 921 q 462 942 435 921 q 497 997 489 964 q 510 999 504 999 q 522 999 515 999 q 596 971 571 999 q 621 907 621 943 q 562 807 621 849 q 392 765 503 765 q 221 807 279 765 q 163 907 163 849 q 187 971 163 943 q 261 999 211 999 q 274 999 268 999 q 286 997 279 999 q 321 942 293 964 q 392 921 349 921 z "},"Ġ":{"ha":915,"x_min":54,"x_max":842,"o":"m 842 128 q 826 68 842 88 q 778 29 811 49 q 731 8 758 18 q 669 -8 703 -1 q 598 -19 635 -15 q 525 -24 561 -24 q 340 2 425 -24 q 190 82 254 28 q 90 219 126 136 q 54 419 54 303 q 91 613 54 529 q 191 753 128 697 q 340 838 254 810 q 524 867 425 867 q 729 826 653 867 q 806 724 806 786 q 789 667 806 692 q 750 629 772 643 q 663 671 715 651 q 540 690 611 690 q 434 672 482 690 q 351 618 386 653 q 297 533 317 583 q 278 421 278 483 q 297 302 278 353 q 349 218 315 251 q 428 168 382 185 q 529 151 475 151 q 590 158 563 151 q 632 172 617 165 l 632 329 l 472 329 q 457 365 464 343 q 450 413 450 388 q 471 478 450 457 q 525 499 492 499 l 758 499 q 819 477 797 499 q 842 417 842 456 l 842 128 m 625 1047 q 594 968 625 1000 q 511 936 563 936 q 427 968 458 936 q 396 1047 396 1000 q 427 1127 396 1096 q 511 1158 458 1158 q 594 1127 563 1158 q 625 1047 625 1096 z "},"ġ":{"ha":779,"x_min":50,"x_max":701,"o":"m 500 54 q 438 34 472 42 q 358 26 403 26 q 240 44 296 26 q 142 100 183 61 q 75 201 100 139 q 50 354 50 264 q 75 499 50 436 q 147 603 100 561 q 258 667 193 646 q 401 689 322 689 q 544 669 479 689 q 644 625 608 649 q 686 584 671 607 q 701 526 701 561 l 701 3 q 675 -122 701 -69 q 602 -209 649 -175 q 493 -260 556 -243 q 358 -276 431 -276 q 228 -264 283 -276 q 142 -232 174 -251 q 94 -143 94 -199 q 107 -90 94 -114 q 135 -54 119 -65 q 224 -92 174 -76 q 332 -108 275 -108 q 455 -81 410 -108 q 500 8 500 -54 l 500 54 m 396 186 q 453 194 429 186 q 497 217 478 203 l 497 501 q 460 515 481 508 q 410 522 440 522 q 302 481 343 522 q 261 353 261 440 q 272 274 261 306 q 300 222 282 242 q 342 194 318 203 q 396 186 367 186 m 510 871 q 478 792 510 824 q 396 760 447 760 q 312 792 343 760 q 281 871 281 824 q 312 951 281 919 q 396 982 343 982 q 478 951 447 982 q 510 871 510 919 z "},"Ģ":{"ha":915,"x_min":54,"x_max":842,"o":"m 842 128 q 826 68 842 88 q 778 29 811 49 q 731 8 758 18 q 669 -8 703 -1 q 598 -19 635 -15 q 525 -24 561 -24 q 340 2 425 -24 q 190 82 254 28 q 90 219 126 136 q 54 419 54 303 q 91 613 54 529 q 191 753 128 697 q 340 838 254 810 q 524 867 425 867 q 729 826 653 867 q 806 724 806 786 q 789 667 806 692 q 750 629 772 643 q 663 671 715 651 q 540 690 611 690 q 434 672 482 690 q 351 618 386 653 q 297 533 317 583 q 278 421 278 483 q 297 302 278 353 q 349 218 315 251 q 428 168 382 185 q 529 151 475 151 q 590 158 563 151 q 632 172 617 165 l 632 329 l 472 329 q 457 365 464 343 q 450 413 450 388 q 471 478 450 457 q 525 499 492 499 l 758 499 q 819 477 797 499 q 842 417 842 456 l 842 128 m 522 -304 q 476 -337 501 -328 q 424 -346 451 -346 q 343 -317 374 -346 q 385 -206 371 -260 q 407 -100 400 -153 q 453 -82 426 -89 q 507 -75 479 -75 q 573 -90 547 -75 q 599 -142 599 -106 q 592 -181 599 -158 q 574 -226 585 -203 q 549 -269 563 -249 q 522 -304 535 -290 z "},"ģ":{"ha":779,"x_min":50,"x_max":701,"o":"m 378 982 q 420 1012 399 1004 q 467 1019 442 1019 q 515 1011 492 1019 q 556 990 538 1003 q 513 880 528 933 q 490 774 497 826 q 447 755 471 763 q 394 747 422 747 q 326 762 351 747 q 300 807 300 776 q 307 851 300 826 q 324 899 314 875 q 349 946 335 924 q 378 982 363 968 m 500 54 q 438 34 472 42 q 358 26 403 26 q 240 44 296 26 q 142 100 183 61 q 75 201 100 139 q 50 354 50 264 q 75 499 50 436 q 147 603 100 561 q 258 667 193 646 q 401 689 322 689 q 544 669 479 689 q 644 625 608 649 q 686 584 671 607 q 701 526 701 561 l 701 3 q 675 -122 701 -69 q 602 -209 649 -175 q 493 -260 556 -243 q 358 -276 431 -276 q 228 -264 283 -276 q 142 -232 174 -251 q 94 -143 94 -199 q 107 -90 94 -114 q 135 -54 119 -65 q 224 -92 174 -76 q 332 -108 275 -108 q 455 -81 410 -108 q 500 8 500 -54 l 500 54 m 396 186 q 453 194 429 186 q 497 217 478 203 l 497 501 q 460 515 481 508 q 410 522 440 522 q 302 481 343 522 q 261 353 261 440 q 272 274 261 306 q 300 222 282 242 q 342 194 318 203 q 396 186 367 186 z "},"Ĥ":{"ha":926,"x_min":115,"x_max":850,"o":"m 333 1 q 290 -6 318 -3 q 232 -10 263 -10 q 141 13 167 -10 q 115 93 115 35 l 115 844 q 159 851 131 847 q 215 856 188 856 q 306 835 278 856 q 333 753 333 814 l 333 508 l 632 508 l 632 844 q 676 851 647 847 q 733 856 704 856 q 822 833 794 856 q 850 750 850 811 l 850 1 q 807 -6 835 -3 q 749 -10 779 -10 q 658 13 683 -10 q 632 93 632 35 l 632 336 l 333 336 l 333 1 m 467 1024 q 402 963 435 994 q 338 904 369 932 q 271 926 297 904 q 244 983 244 949 q 258 1030 244 1011 q 304 1075 271 1049 l 353 1115 q 416 1156 389 1143 q 469 1168 443 1168 q 530 1155 503 1168 q 585 1114 557 1142 l 697 997 q 674 931 697 953 q 611 908 651 908 q 564 924 585 908 q 511 974 543 940 l 467 1024 z "},"ĥ":{"ha":806,"x_min":-32,"x_max":743,"o":"m 313 1 q 274 -6 299 -3 q 218 -10 249 -10 q 128 10 156 -10 q 100 89 100 31 l 100 904 q 140 913 115 908 q 196 917 165 917 q 285 896 258 917 q 313 817 313 875 l 313 657 q 378 680 342 671 q 458 689 415 689 q 667 622 592 689 q 743 419 743 554 l 743 1 q 704 -6 729 -3 q 649 -10 679 -10 q 558 10 586 -10 q 531 89 531 31 l 531 407 q 499 496 531 469 q 419 522 468 522 q 361 513 388 522 q 313 492 335 504 l 313 1 m 190 1036 q 126 976 158 1007 q 61 917 93 944 q -6 939 21 917 q -32 996 -32 961 q -19 1042 -32 1024 q 28 1088 -6 1061 l 76 1128 q 140 1168 113 1156 q 193 1181 167 1181 q 253 1167 226 1181 q 308 1126 281 1154 l 421 1010 q 398 943 421 965 q 335 921 375 921 q 288 937 308 921 q 235 986 267 953 l 190 1036 z "},"Ħ":{"ha":961,"x_min":29,"x_max":932,"o":"m 333 1 q 290 -6 318 -3 q 232 -10 263 -10 q 141 13 167 -10 q 115 93 115 35 l 115 601 l 46 601 q 34 626 39 611 q 29 661 29 642 q 44 708 29 693 q 83 722 58 722 l 115 722 l 115 844 q 159 851 131 847 q 215 856 188 856 q 306 835 278 856 q 333 753 333 814 l 333 722 l 632 722 l 632 844 q 676 851 647 847 q 733 856 704 856 q 822 833 794 856 q 850 750 850 811 l 850 722 l 915 722 q 926 697 921 713 q 932 664 932 682 q 917 616 932 631 q 878 601 903 601 l 850 601 l 850 1 q 807 -6 835 -3 q 749 -10 779 -10 q 658 13 683 -10 q 632 93 632 35 l 632 336 l 333 336 l 333 1 m 632 508 l 632 601 l 333 601 l 333 508 l 632 508 z "},"ħ":{"ha":813,"x_min":1,"x_max":724,"o":"m 18 735 q 7 760 13 744 q 1 793 1 775 q 16 840 1 825 q 56 856 31 856 l 81 856 l 81 939 q 121 947 96 943 q 176 950 146 950 q 265 930 238 950 q 293 856 292 910 l 410 856 q 422 830 417 846 q 426 796 426 814 q 412 749 426 764 q 372 735 397 735 l 293 735 l 293 657 q 359 680 322 671 q 439 689 396 689 q 648 622 572 689 q 724 419 724 554 l 724 1 q 685 -6 710 -3 q 629 -10 660 -10 q 539 10 567 -10 q 511 89 511 31 l 511 407 q 480 496 511 469 q 400 522 449 522 q 342 513 368 522 q 293 492 315 504 l 293 1 q 254 -6 279 -3 q 199 -10 229 -10 q 108 10 136 -10 q 81 89 81 31 l 81 735 l 18 735 z "},"Ĩ":{"ha":413,"x_min":-54,"x_max":443,"o":"m 214 -10 q 123 13 149 -10 q 97 93 97 35 l 97 844 q 141 851 113 847 q 199 856 169 856 q 288 835 261 856 q 315 753 315 814 l 315 1 q 272 -6 300 -3 q 214 -10 244 -10 m 76 1156 q 133 1149 106 1156 q 185 1135 160 1143 q 231 1120 210 1126 q 269 1114 253 1114 q 314 1131 299 1114 q 336 1163 329 1149 l 343 1163 q 413 1135 383 1163 q 443 1063 443 1107 q 406 976 443 1004 q 314 949 369 949 q 253 955 281 949 q 201 969 225 961 q 156 984 176 978 q 119 990 136 990 q 75 974 90 990 q 53 942 60 957 l 47 942 q -24 969 7 942 q -54 1042 -54 996 q -42 1092 -54 1071 q -12 1128 -31 1114 q 30 1149 7 1142 q 76 1156 53 1156 z "},"ĩ":{"ha":381,"x_min":-65,"x_max":432,"o":"m 201 -11 q 112 10 139 -11 q 85 89 85 31 l 85 660 q 124 668 99 664 q 179 672 149 672 q 269 651 242 672 q 296 572 296 631 l 296 0 q 257 -7 282 -3 q 201 -11 232 -11 m 65 976 q 122 970 94 976 q 174 956 149 964 q 220 941 199 947 q 258 935 242 935 q 303 952 288 935 q 325 983 318 969 l 332 983 q 402 956 372 983 q 432 883 432 928 q 395 797 432 825 q 303 769 358 769 q 242 776 269 769 q 190 790 214 782 q 145 805 165 799 q 108 811 125 811 q 64 794 79 811 q 42 763 49 778 l 36 763 q -35 790 -4 763 q -65 863 -65 817 q -53 913 -65 892 q -23 949 -42 935 q 19 969 -4 963 q 65 976 42 976 z "},"Ī":{"ha":413,"x_min":-22,"x_max":426,"o":"m 214 -10 q 123 13 149 -10 q 97 93 97 35 l 97 844 q 141 851 113 847 q 199 856 169 856 q 288 835 261 856 q 315 753 315 814 l 315 1 q 272 -6 300 -3 q 214 -10 244 -10 m -1 961 q -15 996 -8 975 q -22 1039 -22 1017 q -3 1103 -22 1085 q 47 1122 15 1122 l 406 1122 q 422 1088 417 1108 q 426 1044 426 1068 q 408 980 426 999 q 357 961 389 961 l -1 961 z "},"ī":{"ha":381,"x_min":-35,"x_max":414,"o":"m 201 -11 q 112 10 139 -11 q 85 89 85 31 l 85 660 q 124 668 99 664 q 179 672 149 672 q 269 651 242 672 q 296 572 296 631 l 296 0 q 257 -7 282 -3 q 201 -11 232 -11 m -14 785 q -28 819 -21 799 q -35 863 -35 840 q -16 927 -35 908 q 35 946 3 946 l 393 946 q 409 912 404 932 q 414 868 414 892 q 395 803 414 822 q 344 785 376 785 l -14 785 z "},"Į":{"ha":413,"x_min":88,"x_max":381,"o":"m 88 -124 q 103 -51 88 -81 q 147 -1 119 -21 q 108 31 119 8 q 97 93 97 53 l 97 844 q 141 851 113 847 q 199 856 169 856 q 288 835 261 856 q 315 753 315 814 l 315 1 q 281 -69 281 -31 q 299 -116 281 -99 q 346 -133 318 -133 l 371 -133 q 381 -186 381 -158 q 347 -259 381 -233 q 261 -285 314 -285 q 135 -240 183 -285 q 88 -124 88 -194 z "},"į":{"ha":381,"x_min":65,"x_max":356,"o":"m 296 1 q 271 -24 282 -8 q 260 -67 260 -40 q 336 -131 260 -131 l 346 -131 q 353 -155 350 -142 q 356 -183 356 -168 q 330 -248 356 -219 q 236 -276 304 -276 q 114 -238 163 -276 q 65 -132 65 -200 q 86 -51 65 -85 q 131 0 107 -17 q 96 31 107 10 q 85 89 85 51 l 85 660 q 124 668 99 664 q 179 672 149 672 q 269 651 242 672 q 296 572 296 631 l 296 1 m 72 860 q 105 940 72 907 q 190 974 138 974 q 276 940 243 974 q 308 860 308 907 q 276 778 308 811 q 190 744 243 744 q 105 778 138 744 q 72 860 72 811 z "},"İ":{"ha":413,"x_min":85,"x_max":315,"o":"m 214 -10 q 123 13 149 -10 q 97 93 97 35 l 97 844 q 141 851 113 847 q 199 856 169 856 q 288 835 261 856 q 315 753 315 814 l 315 1 q 272 -6 300 -3 q 214 -10 244 -10 m 314 1047 q 283 968 314 1000 q 200 936 251 936 q 116 968 147 936 q 85 1047 85 1000 q 116 1127 85 1096 q 200 1158 147 1158 q 283 1127 251 1158 q 314 1047 314 1096 z "},"ı":{"ha":381,"x_min":85,"x_max":296,"o":"m 296 1 q 257 -6 282 -3 q 201 -10 232 -10 q 112 11 139 -10 q 85 89 85 32 l 85 667 q 124 674 99 669 q 179 678 149 678 q 269 657 242 678 q 296 578 296 636 l 296 1 l 296 1 z "},"Ĵ":{"ha":561,"x_min":28,"x_max":585,"o":"m 469 242 q 399 49 469 117 q 200 -19 329 -19 q 76 6 125 -19 q 28 93 28 31 q 35 139 28 119 q 53 169 43 158 q 99 160 78 164 q 144 157 121 157 q 251 268 251 157 l 251 844 q 295 851 267 847 q 351 856 324 856 q 442 835 414 856 q 469 753 469 814 l 469 242 m 354 1024 q 290 963 322 994 q 225 904 257 932 q 158 926 185 904 q 132 983 132 949 q 145 1030 132 1011 q 192 1075 158 1049 l 240 1115 q 303 1156 276 1143 q 357 1168 331 1168 q 417 1155 390 1168 q 472 1114 444 1142 l 585 997 q 562 931 585 953 q 499 908 539 908 q 451 924 472 908 q 399 974 431 940 l 354 1024 z "},"ĵ":{"ha":386,"x_min":-40,"x_max":410,"o":"m 31 -111 q 76 -60 63 -92 q 89 17 89 -28 l 89 660 q 129 668 104 664 q 185 672 154 672 q 275 651 247 672 q 303 572 303 631 l 303 -4 q 267 -161 303 -97 q 115 -250 215 -250 q 29 -217 61 -250 q -4 -132 -3 -183 l 31 -111 m 181 867 q 148 831 163 847 q 120 800 133 815 q 94 770 107 785 q 67 738 81 756 q -11 760 18 739 q -40 818 -40 782 q -26 863 -40 844 q 15 908 -12 881 l 69 964 q 120 1003 93 988 q 183 1018 147 1018 q 244 1006 217 1018 q 307 950 272 993 l 410 825 q 389 765 410 790 q 326 740 368 740 q 282 754 301 740 q 243 792 263 768 l 181 867 z "},"Ķ":{"ha":839,"x_min":94,"x_max":810,"o":"m 313 1 q 269 -7 297 -3 q 211 -11 242 -11 q 120 12 146 -11 q 94 93 94 35 l 94 844 q 138 851 110 847 q 194 856 167 856 q 285 835 257 856 q 313 753 313 814 l 313 503 l 619 850 q 739 819 703 850 q 775 743 775 788 q 759 681 775 710 q 707 617 743 653 l 510 419 q 683 233 606 315 q 810 101 760 151 q 773 17 808 47 q 690 -14 738 -14 q 606 12 639 -14 q 543 72 574 38 l 313 333 l 313 1 m 460 -304 q 414 -337 439 -328 q 361 -346 389 -346 q 281 -317 311 -346 q 323 -206 308 -260 q 344 -100 338 -153 q 390 -82 364 -89 q 444 -75 417 -75 q 510 -90 485 -75 q 536 -142 536 -106 q 529 -181 536 -158 q 511 -226 522 -203 q 486 -269 500 -249 q 460 -304 472 -290 z "},"ķ":{"ha":753,"x_min":81,"x_max":714,"o":"m 474 343 l 714 110 q 678 20 707 51 q 597 -11 650 -11 q 526 8 557 -11 q 458 72 496 28 l 293 268 l 293 1 q 254 -6 279 -3 q 199 -10 229 -10 q 108 10 136 -10 q 81 89 81 31 l 81 904 q 121 913 96 908 q 176 917 146 917 q 266 896 239 917 q 293 817 293 875 l 293 424 l 544 679 q 649 650 610 679 q 688 578 688 621 q 662 512 688 540 q 582 436 636 483 l 474 343 m 432 -304 q 386 -337 411 -328 q 333 -346 361 -346 q 253 -317 283 -346 q 295 -206 281 -260 q 317 -100 310 -153 q 363 -82 336 -89 q 417 -75 389 -75 q 483 -90 457 -75 q 508 -142 508 -106 q 501 -181 508 -158 q 483 -226 494 -203 q 458 -269 472 -249 q 432 -304 444 -290 z "},"ĸ":{"ha":753,"x_min":81,"x_max":714,"o":"m 293 422 l 550 679 q 654 650 615 679 q 693 578 693 621 q 687 543 693 558 q 667 512 681 528 q 634 478 654 496 q 586 436 614 460 l 474 342 l 714 110 q 678 20 707 51 q 597 -11 650 -11 q 526 8 557 -11 q 458 72 496 28 l 293 268 l 293 1 q 254 -6 279 -3 q 199 -10 229 -10 q 108 10 136 -10 q 81 89 81 31 l 81 667 q 121 674 96 669 q 176 678 146 678 q 266 657 239 678 q 293 578 293 636 l 293 422 z "},"Ĺ":{"ha":710,"x_min":97,"x_max":672,"o":"m 213 -3 q 128 28 160 -3 q 97 113 97 60 l 97 844 q 141 851 113 847 q 197 856 169 856 q 288 835 260 856 q 315 753 315 814 l 315 174 l 649 174 q 665 138 657 160 q 672 89 672 115 q 652 20 672 43 q 597 -3 632 -3 l 213 -3 m 304 1168 q 387 1142 357 1168 q 417 1079 417 1117 q 404 1032 417 1053 q 357 989 392 1011 l 222 904 q 146 926 172 904 q 119 979 119 949 q 125 1010 119 996 q 150 1042 131 1025 l 304 1168 z "},"ĺ":{"ha":382,"x_min":83,"x_max":413,"o":"m 300 1232 q 383 1206 353 1232 q 413 1143 413 1181 q 400 1096 413 1117 q 353 1053 388 1075 l 218 968 q 142 990 168 968 q 115 1043 115 1013 q 121 1074 115 1060 q 146 1106 126 1089 l 300 1232 m 200 -10 q 110 10 138 -10 q 83 89 83 31 l 83 904 q 123 913 97 908 q 179 917 149 917 q 268 896 240 917 q 296 817 296 875 l 296 1 q 256 -6 281 -3 q 200 -10 231 -10 z "},"Ļ":{"ha":710,"x_min":97,"x_max":672,"o":"m 213 -3 q 128 28 160 -3 q 97 113 97 60 l 97 844 q 141 851 113 847 q 197 856 169 856 q 288 835 260 856 q 315 753 315 814 l 315 174 l 649 174 q 665 138 657 160 q 672 89 672 115 q 652 20 672 43 q 597 -3 632 -3 l 213 -3 m 408 -304 q 363 -337 388 -328 q 310 -346 338 -346 q 229 -317 260 -346 q 272 -206 257 -260 q 293 -100 286 -153 q 339 -82 313 -89 q 393 -75 365 -75 q 459 -90 433 -75 q 485 -142 485 -106 q 478 -181 485 -158 q 460 -226 471 -203 q 435 -269 449 -249 q 408 -304 421 -290 z "},"ļ":{"ha":385,"x_min":43,"x_max":299,"o":"m 203 -10 q 113 10 140 -10 q 86 89 86 31 l 86 904 q 126 913 100 908 q 182 917 151 917 q 271 896 243 917 q 299 817 299 875 l 299 1 q 258 -6 283 -3 q 203 -10 233 -10 m 222 -304 q 176 -337 201 -328 q 124 -346 151 -346 q 43 -317 74 -346 q 85 -206 71 -260 q 107 -100 100 -153 q 153 -82 126 -89 q 207 -75 179 -75 q 273 -90 247 -75 q 299 -142 299 -106 q 292 -181 299 -158 q 274 -226 285 -203 q 249 -269 263 -249 q 222 -304 235 -290 z "},"Ľ":{"ha":710,"x_min":97,"x_max":672,"o":"m 213 -3 q 128 28 160 -3 q 97 113 97 60 l 97 844 q 141 851 113 847 q 197 856 169 856 q 288 835 260 856 q 315 753 315 814 l 315 174 l 649 174 q 665 138 657 160 q 672 89 672 115 q 652 20 672 43 q 597 -3 632 -3 l 213 -3 m 571 625 q 525 592 550 601 q 472 583 500 583 q 392 613 425 583 q 434 724 419 669 q 456 829 449 778 q 502 847 475 840 q 556 854 529 854 q 622 839 596 854 q 647 788 647 824 q 640 749 647 771 q 622 703 633 726 q 597 660 611 681 q 571 625 583 639 z "},"ľ":{"ha":608,"x_min":86,"x_max":613,"o":"m 203 -10 q 113 10 140 -10 q 86 89 86 31 l 86 904 q 126 913 100 908 q 182 917 151 917 q 271 896 243 917 q 299 817 299 875 l 299 1 q 258 -6 283 -3 q 203 -10 233 -10 m 536 690 q 490 658 515 667 q 438 649 465 649 q 357 678 390 649 q 399 789 385 735 q 421 894 414 843 q 467 913 440 906 q 521 919 494 919 q 587 904 561 919 q 613 853 613 889 q 606 814 613 836 q 588 769 599 792 q 563 725 576 746 q 536 690 549 704 z "},"Ŀ":{"ha":710,"x_min":97,"x_max":683,"o":"m 213 -3 q 128 28 160 -3 q 97 113 97 60 l 97 844 q 141 851 113 847 q 197 856 169 856 q 288 835 260 856 q 315 753 315 814 l 315 174 l 649 174 q 665 138 657 160 q 672 89 672 115 q 652 20 672 43 q 597 -3 632 -3 l 213 -3 m 436 481 q 469 569 436 533 q 560 606 501 606 q 650 569 617 606 q 683 481 683 533 q 650 392 683 428 q 560 356 617 356 q 469 392 501 356 q 436 481 436 428 z "},"ŀ":{"ha":599,"x_min":86,"x_max":615,"o":"m 203 -10 q 113 10 140 -10 q 86 89 86 31 l 86 904 q 126 913 100 908 q 182 917 151 917 q 271 896 243 917 q 299 817 299 875 l 299 1 q 258 -6 283 -3 q 203 -10 233 -10 m 368 419 q 401 508 368 472 q 492 544 433 544 q 582 508 549 544 q 615 419 615 472 q 582 331 615 367 q 492 294 549 294 q 401 331 433 294 q 368 419 368 367 z "},"Ł":{"ha":760,"x_min":14,"x_max":725,"o":"m 265 -3 q 181 28 213 -3 q 150 113 150 60 l 150 322 l 74 290 q 35 334 56 306 q 14 397 14 363 q 58 461 14 442 l 150 499 l 150 844 q 194 851 165 847 q 250 856 222 856 q 340 835 313 856 q 368 753 368 814 l 368 590 l 511 651 q 551 607 529 636 q 572 543 572 578 q 560 506 572 521 q 526 482 547 490 l 368 415 l 368 174 l 701 174 q 717 138 710 160 q 725 89 725 115 q 705 20 725 43 q 650 -3 685 -3 l 265 -3 l 265 -3 z "},"ł":{"ha":525,"x_min":14,"x_max":511,"o":"m 274 -10 q 184 10 211 -10 q 157 89 157 31 l 157 340 l 74 306 q 35 349 56 321 q 14 414 14 378 q 58 476 14 457 l 157 517 l 157 904 q 197 913 171 908 q 253 917 222 917 q 342 896 314 917 q 369 817 369 875 l 369 606 l 450 639 q 490 594 468 624 q 511 531 511 565 q 499 493 511 508 q 465 469 486 478 l 369 429 l 369 1 q 329 -6 354 -3 q 274 -10 304 -10 z "},"Ń":{"ha":936,"x_min":97,"x_max":842,"o":"m 842 26 q 789 -1 822 10 q 710 -11 756 -11 q 621 4 663 -11 q 551 74 579 19 l 390 385 q 347 474 367 429 q 307 567 326 518 l 297 564 q 306 405 304 481 q 307 258 307 329 l 307 0 q 266 -6 293 -3 q 210 -10 239 -10 q 122 12 147 -10 q 97 89 97 33 l 97 804 q 151 841 114 828 q 229 854 188 854 q 319 839 278 854 q 388 771 360 824 l 550 458 q 594 369 574 414 q 633 276 614 325 l 639 278 q 631 454 632 371 q 631 614 631 538 l 631 844 q 672 851 644 847 q 729 856 699 856 q 817 834 792 856 q 842 757 842 813 l 842 26 m 582 1168 q 665 1142 635 1168 q 694 1079 694 1117 q 682 1032 694 1053 q 635 989 669 1011 l 500 904 q 424 926 450 904 q 397 979 397 949 q 403 1010 397 996 q 428 1042 408 1025 l 582 1168 z "},"ń":{"ha":801,"x_min":78,"x_max":722,"o":"m 510 426 q 481 499 510 475 q 403 522 451 522 q 342 514 369 522 q 290 493 314 506 l 290 1 q 251 -6 276 -3 q 196 -10 226 -10 q 106 10 133 -10 q 78 89 78 31 l 78 518 q 93 576 78 554 q 136 618 108 599 q 251 669 181 650 q 406 689 321 689 q 640 622 557 689 q 722 432 722 556 l 722 1 q 682 -6 707 -3 q 626 -10 657 -10 q 537 10 564 -10 q 510 89 510 31 l 510 426 m 493 1028 q 590 999 557 1026 q 622 936 622 972 q 610 888 622 907 q 567 842 597 868 l 436 731 q 352 756 381 731 q 324 814 324 782 q 330 843 324 829 q 354 876 336 857 l 493 1028 z "},"Ņ":{"ha":936,"x_min":97,"x_max":842,"o":"m 842 26 q 789 -1 822 10 q 710 -11 756 -11 q 621 4 663 -11 q 551 74 579 19 l 390 385 q 347 474 367 429 q 307 567 326 518 l 297 564 q 306 405 304 481 q 307 258 307 329 l 307 0 q 266 -6 293 -3 q 210 -10 239 -10 q 122 12 147 -10 q 97 89 97 33 l 97 804 q 151 841 114 828 q 229 854 188 854 q 319 839 278 854 q 388 771 360 824 l 550 458 q 594 369 574 414 q 633 276 614 325 l 639 278 q 631 454 632 371 q 631 614 631 538 l 631 844 q 672 851 644 847 q 729 856 699 856 q 817 834 792 856 q 842 757 842 813 l 842 26 m 496 -304 q 450 -337 475 -328 q 397 -346 425 -346 q 317 -317 347 -346 q 359 -206 344 -260 q 381 -100 374 -153 q 426 -82 400 -89 q 481 -75 453 -75 q 547 -90 521 -75 q 572 -142 572 -106 q 565 -181 572 -158 q 547 -226 558 -203 q 522 -269 536 -249 q 496 -304 508 -290 z "},"ņ":{"ha":801,"x_min":78,"x_max":722,"o":"m 510 426 q 481 499 510 475 q 403 522 451 522 q 342 514 369 522 q 290 493 314 506 l 290 1 q 251 -6 276 -3 q 196 -10 226 -10 q 106 10 133 -10 q 78 89 78 31 l 78 518 q 93 576 78 554 q 136 618 108 599 q 251 669 181 650 q 406 689 321 689 q 640 622 557 689 q 722 432 722 556 l 722 1 q 682 -6 707 -3 q 626 -10 657 -10 q 537 10 564 -10 q 510 89 510 31 l 510 426 m 429 -304 q 383 -337 408 -328 q 331 -346 358 -346 q 250 -317 281 -346 q 292 -206 278 -260 q 314 -100 307 -153 q 360 -82 333 -89 q 414 -75 386 -75 q 480 -90 454 -75 q 506 -142 506 -106 q 499 -181 506 -158 q 481 -226 492 -203 q 456 -269 469 -249 q 429 -304 442 -290 z "},"Ň":{"ha":936,"x_min":97,"x_max":842,"o":"m 842 26 q 789 -1 822 10 q 710 -11 756 -11 q 621 4 663 -11 q 551 74 579 19 l 390 385 q 347 474 367 429 q 307 567 326 518 l 297 564 q 306 405 304 481 q 307 258 307 329 l 307 0 q 266 -6 293 -3 q 210 -10 239 -10 q 122 12 147 -10 q 97 89 97 33 l 97 804 q 151 841 114 828 q 229 854 188 854 q 319 839 278 854 q 388 771 360 824 l 550 458 q 594 369 574 414 q 633 276 614 325 l 639 278 q 631 454 632 371 q 631 614 631 538 l 631 844 q 672 851 644 847 q 729 856 699 856 q 817 834 792 856 q 842 757 842 813 l 842 26 m 476 1047 q 542 1108 508 1076 q 607 1168 575 1140 q 674 1144 647 1167 q 701 1088 701 1122 q 688 1040 701 1060 q 640 994 675 1021 l 593 954 q 532 916 557 926 q 476 906 507 906 q 410 920 439 906 q 357 958 382 935 l 242 1065 q 264 1138 242 1113 q 326 1164 286 1164 q 374 1150 353 1164 q 432 1097 396 1136 l 476 1047 z "},"ň":{"ha":801,"x_min":78,"x_max":722,"o":"m 510 426 q 481 499 510 475 q 403 522 451 522 q 342 514 369 522 q 290 493 314 506 l 290 1 q 251 -6 276 -3 q 196 -10 226 -10 q 106 10 133 -10 q 78 89 78 31 l 78 518 q 93 576 78 554 q 136 618 108 599 q 251 669 181 650 q 406 689 321 689 q 640 622 557 689 q 722 432 722 556 l 722 1 q 682 -6 707 -3 q 626 -10 657 -10 q 537 10 564 -10 q 510 89 510 31 l 510 426 m 394 892 l 519 1013 q 597 988 568 1011 q 626 929 626 965 q 612 883 626 901 q 565 838 597 864 l 499 779 q 397 739 450 739 q 367 741 381 739 q 338 751 353 743 q 305 771 322 758 q 265 804 288 783 l 160 900 q 158 908 158 903 q 158 919 158 914 q 178 981 158 953 q 239 1010 197 1010 q 262 1008 251 1010 q 284 999 272 1006 q 309 980 296 992 q 340 950 322 968 l 394 892 z "},"ŉ":{"ha":1001,"x_min":28,"x_max":922,"o":"m 710 426 q 681 499 710 475 q 603 522 651 522 q 542 514 569 522 q 490 493 514 506 l 490 1 q 451 -6 476 -3 q 396 -10 426 -10 q 306 10 333 -10 q 278 89 278 31 l 278 518 q 293 576 278 554 q 336 618 308 599 q 451 669 381 650 q 606 689 521 689 q 840 622 757 689 q 922 432 922 556 l 922 1 q 882 -6 907 -3 q 826 -10 857 -10 q 737 10 764 -10 q 710 89 710 31 l 710 426 m 192 554 q 158 520 176 531 q 110 510 139 510 q 66 515 86 510 q 28 529 46 521 q 42 696 35 608 q 54 854 50 783 q 99 872 72 864 q 154 881 126 881 q 227 863 194 881 q 260 799 260 844 q 254 739 260 772 q 239 671 249 706 q 217 606 229 636 q 192 554 204 575 z "},"Ō":{"ha":972,"x_min":54,"x_max":919,"o":"m 919 422 q 887 231 919 314 q 796 91 854 147 q 658 6 738 35 q 486 -24 579 -24 q 314 6 393 -24 q 177 91 235 35 q 87 231 119 147 q 54 422 54 314 q 88 613 54 531 q 179 752 121 696 q 316 838 238 808 q 486 867 394 867 q 657 838 578 867 q 794 752 736 808 q 886 613 853 696 q 919 422 919 531 m 694 422 q 638 623 694 556 q 486 690 582 690 q 335 623 392 690 q 278 422 278 556 q 334 220 278 288 q 486 153 390 153 q 638 220 582 153 q 694 422 694 288 m 278 961 q 264 996 271 975 q 257 1039 257 1017 q 276 1103 257 1085 q 326 1122 294 1122 l 685 1122 q 701 1088 696 1108 q 706 1044 706 1068 q 687 980 706 999 q 636 961 668 961 l 278 961 z "},"ō":{"ha":806,"x_min":47,"x_max":757,"o":"m 757 335 q 732 187 757 253 q 660 75 707 121 q 549 4 614 29 q 403 -21 483 -21 q 256 3 322 -21 q 144 74 190 28 q 72 185 97 119 q 47 335 47 251 q 73 481 47 415 q 145 593 99 547 q 258 664 192 639 q 403 689 324 689 q 547 664 482 689 q 659 592 613 639 q 731 481 706 546 q 757 335 757 415 m 403 522 q 301 474 338 522 q 265 335 265 425 q 301 194 265 242 q 403 146 336 146 q 505 194 469 146 q 540 335 540 243 q 504 473 540 424 q 403 522 468 522 m 199 785 q 185 819 192 799 q 178 863 178 840 q 197 927 178 908 q 247 946 215 946 l 606 946 q 622 912 617 932 q 626 868 626 892 q 608 803 626 822 q 557 785 589 785 l 199 785 z "},"Ő":{"ha":972,"x_min":54,"x_max":919,"o":"m 919 422 q 887 231 919 314 q 796 91 854 147 q 658 6 738 35 q 486 -24 579 -24 q 314 6 393 -24 q 177 91 235 35 q 87 231 119 147 q 54 422 54 314 q 88 613 54 531 q 179 752 121 696 q 316 838 238 808 q 486 867 394 867 q 657 838 578 867 q 794 752 736 808 q 886 613 853 696 q 919 422 919 531 m 694 422 q 638 623 694 556 q 486 690 582 690 q 335 623 392 690 q 278 422 278 556 q 334 220 278 288 q 486 153 390 153 q 638 220 582 153 q 694 422 694 288 m 364 1168 q 458 1140 428 1167 q 489 1079 489 1114 q 475 1031 489 1050 q 433 982 461 1011 l 361 904 q 278 928 306 904 q 250 983 250 953 q 256 1014 250 999 q 276 1050 261 1029 l 364 1168 m 653 1168 q 747 1140 717 1167 q 778 1079 778 1114 q 764 1030 778 1050 q 722 982 750 1010 l 649 904 q 567 928 594 904 q 539 983 539 953 q 544 1014 539 999 q 565 1050 550 1029 l 653 1168 z "},"ő":{"ha":806,"x_min":47,"x_max":757,"o":"m 757 335 q 732 187 757 253 q 660 75 707 121 q 549 4 614 29 q 403 -21 483 -21 q 256 3 322 -21 q 144 74 190 28 q 72 185 97 119 q 47 335 47 251 q 73 481 47 415 q 145 593 99 547 q 258 664 192 639 q 403 689 324 689 q 547 664 482 689 q 659 592 613 639 q 731 481 706 546 q 757 335 757 415 m 403 522 q 301 474 338 522 q 265 335 265 425 q 301 194 265 242 q 403 146 336 146 q 505 194 469 146 q 540 335 540 243 q 504 473 540 424 q 403 522 468 522 m 297 1028 q 394 999 361 1026 q 426 938 426 972 q 413 890 426 910 q 371 842 399 871 l 268 731 q 184 756 213 731 q 156 813 156 782 q 161 842 156 828 q 182 876 167 856 l 297 1028 m 597 1028 q 694 999 661 1026 q 726 938 726 972 q 711 889 726 910 q 671 842 696 868 l 568 731 q 484 756 513 731 q 456 813 456 782 q 461 842 456 828 q 482 876 467 856 l 597 1028 z "},"Œ":{"ha":1321,"x_min":53,"x_max":1265,"o":"m 789 -3 q 693 42 724 -3 q 600 -7 653 10 q 482 -24 547 -24 q 311 6 390 -24 q 175 91 232 35 q 85 231 118 147 q 53 422 53 314 q 86 613 53 531 q 178 752 119 696 q 315 838 236 808 q 483 867 393 867 q 601 849 549 867 q 694 799 653 831 q 733 830 710 818 q 789 842 757 842 l 1236 842 q 1252 807 1244 828 q 1260 760 1260 786 q 1240 692 1260 714 q 1183 669 1219 669 l 874 669 l 874 514 l 1197 514 q 1213 479 1206 500 q 1219 432 1219 458 q 1199 365 1219 386 q 1144 343 1179 343 l 874 343 l 874 169 l 1242 169 q 1258 133 1250 156 q 1265 85 1265 111 q 1245 18 1265 39 q 1189 -3 1225 -3 l 789 -3 m 661 597 q 483 690 604 690 q 335 623 392 690 q 278 422 278 556 q 334 220 278 288 q 485 153 390 153 q 661 244 604 153 l 661 597 z "},"œ":{"ha":1240,"x_min":47,"x_max":1197,"o":"m 396 689 q 535 661 475 689 q 636 586 594 633 q 740 664 679 639 q 875 689 801 689 q 1006 667 946 689 q 1108 607 1065 646 q 1174 514 1150 568 q 1197 396 1197 460 q 1173 329 1197 351 q 1106 300 1149 307 l 746 246 q 813 163 765 188 q 925 139 861 139 q 1035 155 983 139 q 1118 190 1086 171 q 1153 154 1139 176 q 1168 106 1168 132 q 1149 50 1168 74 q 1094 10 1129 26 q 1013 -13 1060 -6 q 911 -21 967 -21 q 643 85 733 -21 q 541 7 603 35 q 396 -21 479 -21 q 140 73 233 -21 q 47 335 47 167 q 72 481 47 415 q 142 593 96 547 q 252 664 188 639 q 396 689 317 689 m 403 522 q 301 474 338 522 q 265 335 265 425 q 301 194 265 242 q 403 146 336 146 q 505 194 469 146 q 540 335 540 243 q 504 473 540 424 q 403 522 468 522 m 876 532 q 777 495 817 532 q 732 389 738 458 l 997 432 q 987 468 994 450 q 964 500 979 486 q 927 523 949 514 q 876 532 906 532 z "},"Ŕ":{"ha":840,"x_min":97,"x_max":799,"o":"m 769 571 q 727 426 769 490 q 613 325 685 363 q 722 184 669 250 q 799 78 774 118 q 752 10 786 33 q 678 -12 718 -12 q 597 10 625 -12 q 544 74 569 33 l 411 281 l 315 281 l 315 1 q 272 -6 300 -3 q 214 -10 244 -10 q 123 13 149 -10 q 97 93 97 35 l 97 767 q 112 810 97 794 q 154 833 126 825 q 261 857 199 850 q 392 864 324 864 q 675 785 581 864 q 769 571 769 707 m 399 449 q 507 478 465 449 q 549 569 549 508 q 389 689 549 689 q 349 687 367 689 q 313 682 331 685 l 313 449 l 399 449 m 494 1168 q 577 1142 547 1168 q 607 1079 607 1117 q 594 1032 607 1053 q 547 989 582 1011 l 413 904 q 336 926 363 904 q 310 979 310 949 q 315 1010 310 996 q 340 1042 321 1025 l 494 1168 z "},"ŕ":{"ha":563,"x_min":78,"x_max":542,"o":"m 290 1 q 251 -6 276 -3 q 196 -10 226 -10 q 106 10 133 -10 q 78 89 78 31 l 78 513 q 97 579 78 551 q 151 628 117 607 q 262 672 197 656 q 397 688 326 688 q 542 590 542 688 q 535 547 542 567 q 519 514 528 528 q 442 521 488 521 q 361 511 401 521 q 290 485 321 501 l 290 1 m 376 1028 q 473 999 440 1026 q 506 936 506 972 q 493 888 506 907 q 450 842 481 868 l 319 731 q 235 756 264 731 q 207 814 207 782 q 213 843 207 829 q 238 876 219 857 l 376 1028 z "},"Ŗ":{"ha":840,"x_min":97,"x_max":799,"o":"m 769 571 q 727 426 769 490 q 613 325 685 363 q 722 184 669 250 q 799 78 774 118 q 752 10 786 33 q 678 -12 718 -12 q 597 10 625 -12 q 544 74 569 33 l 411 281 l 315 281 l 315 1 q 272 -6 300 -3 q 214 -10 244 -10 q 123 13 149 -10 q 97 93 97 35 l 97 767 q 112 810 97 794 q 154 833 126 825 q 261 857 199 850 q 392 864 324 864 q 675 785 581 864 q 769 571 769 707 m 399 449 q 507 478 465 449 q 549 569 549 508 q 389 689 549 689 q 349 687 367 689 q 313 682 331 685 l 313 449 l 399 449 m 475 -304 q 429 -337 454 -328 q 376 -346 404 -346 q 296 -317 326 -346 q 338 -206 324 -260 q 360 -100 353 -153 q 406 -82 379 -89 q 460 -75 432 -75 q 526 -90 500 -75 q 551 -142 551 -106 q 544 -181 551 -158 q 526 -226 538 -203 q 501 -269 515 -249 q 475 -304 488 -290 z "},"ŗ":{"ha":563,"x_min":35,"x_max":542,"o":"m 290 1 q 251 -6 276 -3 q 196 -10 226 -10 q 106 10 133 -10 q 78 89 78 31 l 78 513 q 97 579 78 551 q 151 628 117 607 q 262 672 197 656 q 397 688 326 688 q 542 590 542 688 q 535 547 542 567 q 519 514 528 528 q 442 521 488 521 q 361 511 401 521 q 290 485 321 501 l 290 1 m 214 -304 q 168 -337 193 -328 q 115 -346 143 -346 q 35 -317 65 -346 q 77 -206 63 -260 q 99 -100 92 -153 q 144 -82 118 -89 q 199 -75 171 -75 q 265 -90 239 -75 q 290 -142 290 -106 q 283 -181 290 -158 q 265 -226 276 -203 q 240 -269 254 -249 q 214 -304 226 -290 z "},"Ř":{"ha":840,"x_min":97,"x_max":799,"o":"m 769 571 q 727 426 769 490 q 613 325 685 363 q 722 184 669 250 q 799 78 774 118 q 752 10 786 33 q 678 -12 718 -12 q 597 10 625 -12 q 544 74 569 33 l 411 281 l 315 281 l 315 1 q 272 -6 300 -3 q 214 -10 244 -10 q 123 13 149 -10 q 97 93 97 35 l 97 767 q 112 810 97 794 q 154 833 126 825 q 261 857 199 850 q 392 864 324 864 q 675 785 581 864 q 769 571 769 707 m 399 449 q 507 478 465 449 q 549 569 549 508 q 389 689 549 689 q 349 687 367 689 q 313 682 331 685 l 313 449 l 399 449 m 426 1047 q 492 1108 458 1076 q 557 1168 525 1140 q 624 1144 597 1167 q 651 1088 651 1122 q 638 1040 651 1060 q 590 994 625 1021 l 543 954 q 482 916 507 926 q 426 906 457 906 q 360 920 389 906 q 307 958 332 935 l 192 1065 q 214 1138 192 1113 q 276 1164 236 1164 q 324 1150 303 1164 q 382 1097 346 1136 l 426 1047 z "},"ř":{"ha":563,"x_min":78,"x_max":553,"o":"m 290 1 q 251 -6 276 -3 q 196 -10 226 -10 q 106 10 133 -10 q 78 89 78 31 l 78 513 q 97 579 78 551 q 151 628 117 607 q 262 672 197 656 q 397 688 326 688 q 542 590 542 688 q 535 547 542 567 q 519 514 528 528 q 442 521 488 521 q 361 511 401 521 q 290 485 321 501 l 290 1 m 321 892 l 446 1013 q 524 988 494 1011 q 553 929 553 965 q 538 883 553 901 q 492 838 524 864 l 425 779 q 324 739 376 739 q 293 741 307 739 q 264 751 279 743 q 231 771 249 758 q 192 804 214 783 l 86 900 q 85 908 85 903 q 85 919 85 914 q 104 981 85 953 q 165 1010 124 1010 q 188 1008 178 1010 q 210 999 199 1006 q 235 980 222 992 q 267 950 249 968 l 321 892 z "},"Ś":{"ha":758,"x_min":60,"x_max":711,"o":"m 350 154 q 455 180 424 154 q 486 242 486 206 q 462 295 486 275 q 389 331 438 315 l 318 353 q 213 392 260 371 q 132 444 165 414 q 80 515 99 474 q 61 614 61 556 q 149 799 61 731 q 394 867 238 867 q 505 858 454 867 q 592 833 556 850 q 649 790 628 815 q 669 732 669 765 q 653 676 669 700 q 617 635 638 651 q 532 672 585 657 q 417 688 479 688 q 318 667 350 688 q 286 614 286 646 q 307 572 286 586 q 372 542 328 557 l 447 517 q 562 469 513 494 q 644 410 611 443 q 694 335 678 378 q 711 239 711 293 q 688 133 711 181 q 620 50 665 85 q 509 -4 575 15 q 357 -24 443 -24 q 239 -13 293 -24 q 145 17 185 -3 q 83 65 106 36 q 60 129 60 93 q 81 192 60 167 q 129 232 103 217 q 223 178 167 201 q 350 154 279 154 m 461 1168 q 544 1142 514 1168 q 574 1079 574 1117 q 561 1032 574 1053 q 514 989 549 1011 l 379 904 q 303 926 329 904 q 276 979 276 949 q 282 1010 276 996 q 307 1042 288 1025 l 461 1168 z "},"ś":{"ha":671,"x_min":58,"x_max":625,"o":"m 625 196 q 549 35 625 93 q 324 -22 472 -22 q 217 -14 265 -22 q 135 11 169 -6 q 81 53 100 28 q 61 111 61 78 q 74 163 61 142 q 106 199 86 185 q 197 157 146 175 q 317 139 249 139 q 415 194 415 139 q 398 231 415 218 q 339 253 381 243 l 283 265 q 114 338 169 289 q 58 476 58 388 q 138 633 58 575 q 353 690 218 690 q 447 683 403 690 q 524 660 492 675 q 574 622 556 644 q 593 568 593 599 q 582 519 593 540 q 553 483 571 497 q 520 499 542 490 q 474 514 499 507 q 421 525 449 521 q 369 529 393 529 q 294 516 321 529 q 267 476 267 503 q 282 446 267 457 q 338 425 297 435 l 390 413 q 571 332 517 385 q 625 196 625 279 m 417 1028 q 513 999 481 1026 q 546 936 546 972 q 533 888 546 907 q 490 842 521 868 l 360 731 q 276 756 304 731 q 247 814 247 782 q 253 843 247 829 q 278 876 260 857 l 417 1028 z "},"Ŝ":{"ha":758,"x_min":60,"x_max":711,"o":"m 350 154 q 455 180 424 154 q 486 242 486 206 q 462 295 486 275 q 389 331 438 315 l 318 353 q 213 392 260 371 q 132 444 165 414 q 80 515 99 474 q 61 614 61 556 q 149 799 61 731 q 394 867 238 867 q 505 858 454 867 q 592 833 556 850 q 649 790 628 815 q 669 732 669 765 q 653 676 669 700 q 617 635 638 651 q 532 672 585 657 q 417 688 479 688 q 318 667 350 688 q 286 614 286 646 q 307 572 286 586 q 372 542 328 557 l 447 517 q 562 469 513 494 q 644 410 611 443 q 694 335 678 378 q 711 239 711 293 q 688 133 711 181 q 620 50 665 85 q 509 -4 575 15 q 357 -24 443 -24 q 239 -13 293 -24 q 145 17 185 -3 q 83 65 106 36 q 60 129 60 93 q 81 192 60 167 q 129 232 103 217 q 223 178 167 201 q 350 154 279 154 m 383 1024 q 319 963 351 994 q 254 904 286 932 q 188 926 214 904 q 161 983 161 949 q 174 1030 161 1011 q 221 1075 188 1049 l 269 1115 q 333 1156 306 1143 q 386 1168 360 1168 q 447 1155 419 1168 q 501 1114 474 1142 l 614 997 q 591 931 614 953 q 528 908 568 908 q 481 924 501 908 q 428 974 460 940 l 383 1024 z "},"ŝ":{"ha":671,"x_min":58,"x_max":625,"o":"m 625 196 q 549 35 625 93 q 324 -22 472 -22 q 217 -14 265 -22 q 135 11 169 -6 q 81 53 100 28 q 61 111 61 78 q 74 163 61 142 q 106 199 86 185 q 197 157 146 175 q 317 139 249 139 q 415 194 415 139 q 398 231 415 218 q 339 253 381 243 l 283 265 q 114 338 169 289 q 58 476 58 388 q 138 633 58 575 q 353 690 218 690 q 447 683 403 690 q 524 660 492 675 q 574 622 556 644 q 593 568 593 599 q 582 519 593 540 q 553 483 571 497 q 520 499 542 490 q 474 514 499 507 q 421 525 449 521 q 369 529 393 529 q 294 516 321 529 q 267 476 267 503 q 282 446 267 457 q 338 425 297 435 l 390 413 q 571 332 517 385 q 625 196 625 279 m 329 867 q 297 831 311 847 q 269 800 282 815 q 242 770 256 785 q 215 738 229 756 q 138 760 167 739 q 108 818 108 782 q 122 863 108 844 q 164 908 136 881 l 218 964 q 269 1003 242 988 q 332 1018 296 1018 q 393 1006 365 1018 q 456 950 421 993 l 558 825 q 538 765 558 790 q 475 740 517 740 q 431 754 450 740 q 392 792 411 768 l 329 867 z "},"Ş":{"ha":758,"x_min":60,"x_max":711,"o":"m 350 154 q 455 180 424 154 q 486 242 486 206 q 462 295 486 275 q 389 331 438 315 l 318 353 q 213 392 260 371 q 132 444 165 414 q 80 515 99 474 q 61 614 61 556 q 149 799 61 731 q 394 867 238 867 q 505 858 454 867 q 592 833 556 850 q 649 790 628 815 q 669 732 669 765 q 653 676 669 700 q 617 635 638 651 q 532 672 585 657 q 417 688 479 688 q 318 667 350 688 q 286 614 286 646 q 307 572 286 586 q 372 542 328 557 l 447 517 q 562 469 513 494 q 644 410 611 443 q 694 335 678 378 q 711 239 711 293 q 650 76 711 143 q 471 -12 589 10 q 497 -117 497 -57 q 453 -233 497 -187 q 333 -278 410 -278 q 247 -252 279 -278 q 214 -179 214 -226 q 221 -139 214 -160 l 236 -139 q 300 -118 281 -139 q 319 -65 319 -97 q 317 -44 319 -56 q 310 -22 315 -33 q 210 -6 256 -18 q 131 24 164 6 q 78 69 97 43 q 60 129 60 96 q 81 192 60 167 q 129 232 103 217 q 223 178 167 201 q 350 154 279 154 z "},"ş":{"ha":671,"x_min":58,"x_max":625,"o":"m 625 196 q 579 63 625 117 q 442 -10 533 10 q 464 -60 457 -33 q 471 -117 471 -87 q 427 -233 471 -187 q 307 -278 383 -278 q 220 -252 253 -278 q 188 -179 188 -226 q 194 -139 188 -160 l 210 -139 q 274 -118 254 -139 q 293 -65 293 -97 q 291 -44 293 -56 q 283 -21 289 -32 q 122 17 183 -15 q 61 111 61 49 q 74 163 61 142 q 106 199 86 185 q 197 157 146 175 q 317 139 249 139 q 415 194 415 139 q 398 231 415 218 q 339 253 381 243 l 283 265 q 114 338 169 289 q 58 476 58 388 q 138 633 58 575 q 353 690 218 690 q 447 683 403 690 q 524 660 492 675 q 574 622 556 644 q 593 568 593 599 q 582 519 593 540 q 553 483 571 497 q 520 499 542 490 q 474 514 499 507 q 421 525 449 521 q 369 529 393 529 q 294 516 321 529 q 267 476 267 503 q 282 446 267 457 q 338 425 297 435 l 390 413 q 571 332 517 385 q 625 196 625 279 z "},"Š":{"ha":758,"x_min":60,"x_max":711,"o":"m 350 154 q 455 180 424 154 q 486 242 486 206 q 462 295 486 275 q 389 331 438 315 l 318 353 q 213 392 260 371 q 132 444 165 414 q 80 515 99 474 q 61 614 61 556 q 149 799 61 731 q 394 867 238 867 q 505 858 454 867 q 592 833 556 850 q 649 790 628 815 q 669 732 669 765 q 653 676 669 700 q 617 635 638 651 q 532 672 585 657 q 417 688 479 688 q 318 667 350 688 q 286 614 286 646 q 307 572 286 586 q 372 542 328 557 l 447 517 q 562 469 513 494 q 644 410 611 443 q 694 335 678 378 q 711 239 711 293 q 688 133 711 181 q 620 50 665 85 q 509 -4 575 15 q 357 -24 443 -24 q 239 -13 293 -24 q 145 17 185 -3 q 83 65 106 36 q 60 129 60 93 q 81 192 60 167 q 129 232 103 217 q 223 178 167 201 q 350 154 279 154 m 385 1047 q 450 1108 417 1076 q 515 1168 483 1140 q 583 1144 556 1167 q 610 1088 610 1122 q 597 1040 610 1060 q 549 994 583 1021 l 501 954 q 440 916 465 926 q 385 906 415 906 q 319 920 347 906 q 265 958 290 935 l 150 1065 q 172 1138 150 1113 q 235 1164 194 1164 q 283 1150 261 1164 q 340 1097 304 1136 l 385 1047 z "},"š":{"ha":671,"x_min":58,"x_max":625,"o":"m 625 196 q 549 35 625 93 q 324 -22 472 -22 q 217 -14 265 -22 q 135 11 169 -6 q 81 53 100 28 q 61 111 61 78 q 74 163 61 142 q 106 199 86 185 q 197 157 146 175 q 317 139 249 139 q 415 194 415 139 q 398 231 415 218 q 339 253 381 243 l 283 265 q 114 338 169 289 q 58 476 58 388 q 138 633 58 575 q 353 690 218 690 q 447 683 403 690 q 524 660 492 675 q 574 622 556 644 q 593 568 593 599 q 582 519 593 540 q 553 483 571 497 q 520 499 542 490 q 474 514 499 507 q 421 525 449 521 q 369 529 393 529 q 294 516 321 529 q 267 476 267 503 q 282 446 267 457 q 338 425 297 435 l 390 413 q 571 332 517 385 q 625 196 625 279 m 329 892 l 454 1013 q 532 988 503 1011 q 561 929 561 965 q 547 883 561 901 q 500 838 532 864 l 433 779 q 332 739 385 739 q 301 741 315 739 q 272 751 288 743 q 240 771 257 758 q 200 804 222 783 l 94 900 q 93 908 93 903 q 93 919 93 914 q 113 981 93 953 q 174 1010 132 1010 q 197 1008 186 1010 q 219 999 207 1006 q 244 980 231 992 q 275 950 257 968 l 329 892 z "},"Ț":{"ha":764,"x_min":26,"x_max":735,"o":"m 488 667 l 488 1 q 444 -6 472 -3 q 386 -10 417 -10 q 294 13 321 -10 q 268 93 268 35 l 268 667 l 50 667 q 34 703 42 681 q 26 751 26 725 q 47 820 26 799 q 104 842 68 842 l 711 842 q 728 806 721 828 q 735 757 735 783 q 714 689 735 711 q 657 667 693 667 l 488 667 m 407 -304 q 361 -337 386 -328 q 308 -346 336 -346 q 228 -317 258 -346 q 270 -206 256 -260 q 292 -100 285 -153 q 338 -82 311 -89 q 392 -75 364 -75 q 458 -90 432 -75 q 483 -142 483 -106 q 476 -181 483 -158 q 458 -226 469 -203 q 433 -269 447 -249 q 407 -304 419 -290 z "},"ț":{"ha":544,"x_min":81,"x_max":503,"o":"m 290 221 q 315 165 290 182 q 385 147 340 147 q 429 152 406 147 q 469 164 453 157 q 490 132 482 150 q 499 90 499 114 q 460 10 499 42 q 328 -21 422 -21 q 146 33 211 -21 q 81 207 81 86 l 81 831 q 121 840 96 835 q 175 844 146 844 q 263 823 236 844 q 290 744 290 801 l 290 654 l 482 654 q 496 619 489 640 q 503 574 503 597 q 483 510 503 529 q 431 490 463 490 l 290 490 l 290 221 m 322 -304 q 276 -337 301 -328 q 224 -346 251 -346 q 143 -317 174 -346 q 185 -206 171 -260 q 207 -100 200 -153 q 253 -82 226 -89 q 307 -75 279 -75 q 373 -90 347 -75 q 399 -142 399 -106 q 392 -181 399 -158 q 374 -226 385 -203 q 349 -269 363 -249 q 322 -304 335 -290 z "},"Ť":{"ha":764,"x_min":26,"x_max":735,"o":"m 488 667 l 488 1 q 444 -6 472 -3 q 386 -10 417 -10 q 294 13 321 -10 q 268 93 268 35 l 268 667 l 50 667 q 34 703 42 681 q 26 751 26 725 q 47 820 26 799 q 104 842 68 842 l 711 842 q 728 806 721 828 q 735 757 735 783 q 714 689 735 711 q 657 667 693 667 l 488 667 m 388 1047 q 453 1108 419 1076 q 518 1168 486 1140 q 585 1144 558 1167 q 613 1088 613 1122 q 599 1040 613 1060 q 551 994 586 1021 l 504 954 q 443 916 468 926 q 388 906 418 906 q 322 920 350 906 q 268 958 293 935 l 153 1065 q 175 1138 153 1113 q 238 1164 197 1164 q 285 1150 264 1164 q 343 1097 307 1136 l 388 1047 z "},"ť":{"ha":779,"x_min":81,"x_max":796,"o":"m 290 221 q 315 165 290 182 q 385 147 340 147 q 429 152 406 147 q 469 164 453 157 q 490 132 482 150 q 499 90 499 114 q 460 10 499 42 q 328 -21 422 -21 q 146 33 211 -21 q 81 207 81 86 l 81 831 q 121 840 96 835 q 175 844 146 844 q 263 823 236 844 q 290 744 290 801 l 290 654 l 482 654 q 496 619 489 640 q 503 574 503 597 q 483 510 503 529 q 431 490 463 490 l 290 490 l 290 221 m 719 690 q 674 658 699 667 q 621 649 649 649 q 540 678 574 649 q 583 789 568 735 q 604 894 597 843 q 651 913 624 906 q 704 919 678 919 q 770 904 744 919 q 796 853 796 889 q 789 814 796 836 q 771 769 782 792 q 746 725 760 746 q 719 690 732 704 z "},"Ũ":{"ha":918,"x_min":93,"x_max":825,"o":"m 458 -24 q 305 0 372 -24 q 190 67 238 24 q 118 170 143 110 q 93 306 93 231 l 93 844 q 137 851 108 847 q 194 856 165 856 q 284 835 257 856 q 311 753 311 814 l 311 310 q 352 194 311 235 q 458 153 393 153 q 566 194 525 153 q 607 310 607 235 l 607 844 q 651 851 622 847 q 708 856 679 856 q 798 835 771 856 q 825 753 825 814 l 825 306 q 800 170 825 231 q 728 67 775 110 q 613 0 681 24 q 458 -24 544 -24 m 339 1156 q 395 1149 368 1156 q 447 1135 422 1143 q 494 1120 472 1126 q 532 1114 515 1114 q 576 1131 561 1114 q 599 1163 592 1149 l 606 1163 q 676 1135 646 1163 q 706 1063 706 1107 q 669 976 706 1004 q 576 949 632 949 q 515 955 543 949 q 463 969 488 961 q 419 984 439 978 q 382 990 399 990 q 338 974 353 990 q 315 942 322 957 l 310 942 q 239 969 269 942 q 208 1042 208 996 q 220 1092 208 1071 q 251 1128 232 1114 q 292 1149 269 1142 q 339 1156 315 1156 z "},"ũ":{"ha":800,"x_min":78,"x_max":722,"o":"m 722 139 q 665 39 722 74 q 556 -5 621 11 q 411 -21 490 -21 q 275 -5 336 -21 q 170 46 214 11 q 102 133 126 81 q 78 261 78 186 l 78 665 q 118 674 93 669 q 174 678 143 678 q 263 657 236 678 q 290 578 290 636 l 290 263 q 322 173 290 200 q 413 146 354 146 q 473 152 449 146 q 510 165 497 158 l 510 665 q 549 674 524 669 q 604 678 574 678 q 694 657 667 678 q 722 578 722 636 l 722 139 m 278 976 q 334 970 307 976 q 386 956 361 964 q 433 941 411 947 q 471 935 454 935 q 515 952 500 935 q 538 983 531 969 l 544 983 q 615 956 585 983 q 644 883 644 928 q 608 797 644 825 q 515 769 571 769 q 454 776 482 769 q 402 790 426 782 q 358 805 378 799 q 321 811 338 811 q 276 794 292 811 q 254 763 261 778 l 249 763 q 178 790 208 763 q 147 863 147 817 q 159 913 147 892 q 190 949 171 935 q 231 969 208 963 q 278 976 254 976 z "},"Ū":{"ha":918,"x_min":93,"x_max":825,"o":"m 458 -24 q 305 0 372 -24 q 190 67 238 24 q 118 170 143 110 q 93 306 93 231 l 93 844 q 137 851 108 847 q 194 856 165 856 q 284 835 257 856 q 311 753 311 814 l 311 310 q 352 194 311 235 q 458 153 393 153 q 566 194 525 153 q 607 310 607 235 l 607 844 q 651 851 622 847 q 708 856 679 856 q 798 835 771 856 q 825 753 825 814 l 825 306 q 800 170 825 231 q 728 67 775 110 q 613 0 681 24 q 458 -24 544 -24 m 247 961 q 233 996 240 975 q 226 1039 226 1017 q 245 1103 226 1085 q 296 1122 264 1122 l 654 1122 q 670 1088 665 1108 q 675 1044 675 1068 q 656 980 675 999 q 606 961 638 961 l 247 961 z "},"ū":{"ha":800,"x_min":78,"x_max":722,"o":"m 722 139 q 665 39 722 74 q 556 -5 621 11 q 411 -21 490 -21 q 275 -5 336 -21 q 170 46 214 11 q 102 133 126 81 q 78 261 78 186 l 78 665 q 118 674 93 669 q 174 678 143 678 q 263 657 236 678 q 290 578 290 636 l 290 263 q 322 173 290 200 q 413 146 354 146 q 473 152 449 146 q 510 165 497 158 l 510 665 q 549 674 524 669 q 604 678 574 678 q 694 657 667 678 q 722 578 722 636 l 722 139 m 201 785 q 188 819 194 799 q 181 863 181 840 q 199 927 181 908 q 250 946 218 946 l 608 946 q 624 912 619 932 q 629 868 629 892 q 610 803 629 822 q 560 785 592 785 l 201 785 z "},"Ŭ":{"ha":918,"x_min":93,"x_max":825,"o":"m 458 -24 q 305 0 372 -24 q 190 67 238 24 q 118 170 143 110 q 93 306 93 231 l 93 844 q 137 851 108 847 q 194 856 165 856 q 284 835 257 856 q 311 753 311 814 l 311 310 q 352 194 311 235 q 458 153 393 153 q 566 194 525 153 q 607 310 607 235 l 607 844 q 651 851 622 847 q 708 856 679 856 q 798 835 771 856 q 825 753 825 814 l 825 306 q 800 170 825 231 q 728 67 775 110 q 613 0 681 24 q 458 -24 544 -24 m 451 1074 q 522 1095 494 1074 q 557 1150 549 1117 q 569 1151 564 1151 q 582 1151 575 1151 q 656 1124 631 1151 q 681 1060 681 1096 q 622 960 681 1001 q 451 918 563 918 q 281 960 339 918 q 222 1060 222 1001 q 247 1124 222 1096 q 321 1151 271 1151 q 333 1151 328 1151 q 346 1150 339 1151 q 381 1095 353 1117 q 451 1074 408 1074 z "},"ŭ":{"ha":800,"x_min":78,"x_max":722,"o":"m 722 139 q 665 39 722 74 q 556 -5 621 11 q 411 -21 490 -21 q 275 -5 336 -21 q 170 46 214 11 q 102 133 126 81 q 78 261 78 186 l 78 665 q 118 674 93 669 q 174 678 143 678 q 263 657 236 678 q 290 578 290 636 l 290 263 q 322 173 290 200 q 413 146 354 146 q 473 152 449 146 q 510 165 497 158 l 510 665 q 549 674 524 669 q 604 678 574 678 q 694 657 667 678 q 722 578 722 636 l 722 139 m 401 921 q 472 942 444 921 q 507 997 499 964 q 519 999 514 999 q 532 999 525 999 q 606 971 581 999 q 631 907 631 943 q 572 807 631 849 q 401 765 513 765 q 231 807 289 765 q 172 907 172 849 q 197 971 172 943 q 271 999 221 999 q 283 999 278 999 q 296 997 289 999 q 331 942 303 964 q 401 921 358 921 z "},"Ů":{"ha":918,"x_min":93,"x_max":825,"o":"m 458 -24 q 305 0 372 -24 q 190 67 238 24 q 118 170 143 110 q 93 306 93 231 l 93 844 q 137 851 108 847 q 194 856 165 856 q 284 835 257 856 q 311 753 311 814 l 311 310 q 352 194 311 235 q 458 153 393 153 q 566 194 525 153 q 607 310 607 235 l 607 844 q 651 851 622 847 q 708 856 679 856 q 798 835 771 856 q 825 753 825 814 l 825 306 q 800 170 825 231 q 728 67 775 110 q 613 0 681 24 q 458 -24 544 -24 m 286 1044 q 333 1149 286 1107 q 463 1192 381 1192 q 598 1149 550 1192 q 646 1044 646 1107 q 598 941 646 982 q 463 900 550 900 q 333 941 381 900 q 286 1044 286 982 m 417 1044 q 431 1011 417 1024 q 464 999 444 999 q 501 1011 488 999 q 515 1044 515 1024 q 501 1078 515 1065 q 464 1090 488 1090 q 431 1078 444 1090 q 417 1044 417 1065 z "},"ů":{"ha":800,"x_min":78,"x_max":722,"o":"m 722 139 q 665 39 722 74 q 556 -5 621 11 q 411 -21 490 -21 q 275 -5 336 -21 q 170 46 214 11 q 102 133 126 81 q 78 261 78 186 l 78 665 q 118 674 93 669 q 174 678 143 678 q 263 657 236 678 q 290 578 290 636 l 290 263 q 322 173 290 200 q 413 146 354 146 q 473 152 449 146 q 510 165 497 158 l 510 665 q 549 674 524 669 q 604 678 574 678 q 694 657 667 678 q 722 578 722 636 l 722 139 m 215 882 q 263 990 215 946 q 392 1033 310 1033 q 526 990 478 1033 q 574 882 574 946 q 526 776 574 819 q 392 733 478 733 q 263 776 310 733 q 215 882 215 819 m 344 882 q 359 845 344 858 q 393 832 374 832 q 429 845 415 832 q 443 882 443 858 q 429 919 443 906 q 393 933 415 933 q 359 919 374 933 q 344 882 344 906 z "},"Ű":{"ha":918,"x_min":93,"x_max":825,"o":"m 458 -24 q 305 0 372 -24 q 190 67 238 24 q 118 170 143 110 q 93 306 93 231 l 93 844 q 137 851 108 847 q 194 856 165 856 q 284 835 257 856 q 311 753 311 814 l 311 310 q 352 194 311 235 q 458 153 393 153 q 566 194 525 153 q 607 310 607 235 l 607 844 q 651 851 622 847 q 708 856 679 856 q 798 835 771 856 q 825 753 825 814 l 825 306 q 800 170 825 231 q 728 67 775 110 q 613 0 681 24 q 458 -24 544 -24 m 325 1168 q 419 1140 389 1167 q 450 1079 450 1114 q 436 1031 450 1050 q 394 982 422 1011 l 322 904 q 239 928 267 904 q 211 983 211 953 q 217 1014 211 999 q 238 1050 222 1029 l 325 1168 m 614 1168 q 708 1140 678 1167 q 739 1079 739 1114 q 725 1030 739 1050 q 683 982 711 1010 l 610 904 q 528 928 556 904 q 500 983 500 953 q 506 1014 500 999 q 526 1050 511 1029 l 614 1168 z "},"ű":{"ha":800,"x_min":78,"x_max":722,"o":"m 722 139 q 665 39 722 74 q 556 -5 621 11 q 411 -21 490 -21 q 275 -5 336 -21 q 170 46 214 11 q 102 133 126 81 q 78 261 78 186 l 78 665 q 118 674 93 669 q 174 678 143 678 q 263 657 236 678 q 290 578 290 636 l 290 263 q 322 173 290 200 q 413 146 354 146 q 473 152 449 146 q 510 165 497 158 l 510 665 q 549 674 524 669 q 604 678 574 678 q 694 657 667 678 q 722 578 722 636 l 722 139 m 288 1028 q 384 999 351 1026 q 417 938 417 972 q 403 890 417 910 q 361 842 389 871 l 258 731 q 174 756 203 731 q 146 813 146 782 q 151 842 146 828 q 172 876 157 856 l 288 1028 m 588 1028 q 684 999 651 1026 q 717 938 717 972 q 701 889 717 910 q 661 842 686 868 l 558 731 q 474 756 503 731 q 446 813 446 782 q 451 842 446 828 q 472 876 457 856 l 588 1028 z "},"Ų":{"ha":918,"x_min":93,"x_max":825,"o":"m 825 306 q 751 90 825 175 q 543 -17 678 6 q 526 -67 526 -36 q 604 -131 526 -131 l 614 -131 q 621 -155 618 -142 q 624 -183 624 -168 q 598 -248 624 -219 q 504 -276 572 -276 q 381 -238 429 -276 q 333 -132 333 -200 q 347 -65 333 -94 q 379 -17 360 -36 q 168 88 243 3 q 93 306 93 174 l 93 844 q 137 851 108 847 q 194 856 165 856 q 284 835 257 856 q 311 753 311 814 l 311 310 q 352 194 311 235 q 458 153 393 153 q 566 194 525 153 q 607 310 607 235 l 607 844 q 651 851 622 847 q 708 856 679 856 q 798 835 771 856 q 825 753 825 814 l 825 306 l 825 306 z "},"ų":{"ha":800,"x_min":78,"x_max":722,"o":"m 78 665 q 118 674 93 669 q 174 678 143 678 q 263 657 236 678 q 290 578 290 636 l 290 263 q 322 173 290 200 q 413 146 354 146 q 473 152 449 146 q 510 165 497 158 l 510 665 q 549 674 524 669 q 604 678 574 678 q 694 657 667 678 q 722 578 722 636 l 722 139 q 667 40 722 75 q 622 -7 639 17 q 604 -67 604 -31 q 682 -131 604 -131 l 692 -131 q 699 -155 696 -142 q 701 -183 701 -168 q 675 -248 701 -219 q 581 -276 649 -276 q 459 -238 507 -276 q 411 -132 411 -200 q 426 -65 411 -93 q 461 -18 442 -37 q 436 -20 449 -19 q 411 -21 424 -21 q 275 -5 336 -21 q 170 46 214 11 q 102 133 126 81 q 78 261 78 186 l 78 665 z "},"Ŵ":{"ha":1182,"x_min":38,"x_max":1135,"o":"m 482 636 q 526 651 497 643 q 586 658 554 658 q 674 643 639 658 q 717 597 708 628 q 749 484 733 536 q 778 383 764 432 q 805 288 792 335 q 831 189 818 240 l 838 189 q 863 355 851 275 q 884 512 874 435 q 904 665 894 589 q 924 822 914 742 q 1022 849 968 849 q 1101 828 1068 849 q 1135 761 1135 808 q 1128 676 1135 732 q 1111 549 1122 619 q 1085 403 1100 479 q 1055 255 1071 326 q 1022 124 1039 183 q 990 31 1006 65 q 929 2 971 14 q 843 -10 888 -10 q 744 6 785 -10 q 693 51 703 22 q 648 198 674 110 q 594 388 622 286 q 571 288 583 338 q 546 190 558 238 q 522 102 533 143 q 500 29 510 61 q 444 2 481 14 q 361 -10 407 -10 q 260 7 306 -10 q 201 51 215 24 q 175 128 190 78 q 144 242 160 178 q 112 381 128 307 q 81 530 96 456 q 56 675 67 604 q 38 804 44 746 q 86 834 56 819 q 154 849 117 849 q 231 827 201 849 q 269 757 261 806 q 306 535 292 626 q 331 378 321 443 q 349 268 342 313 q 364 189 357 224 l 371 189 q 397 294 385 246 q 423 394 410 343 q 451 502 436 444 q 482 636 465 560 m 592 1022 q 559 987 574 1003 q 531 956 544 971 q 505 926 518 940 q 478 893 492 911 q 400 916 429 894 q 371 974 371 938 q 385 1018 371 1000 q 426 1064 399 1036 l 481 1119 q 531 1158 504 1143 q 594 1174 558 1174 q 656 1161 628 1174 q 718 1106 683 1149 l 821 981 q 800 921 821 946 q 738 896 779 896 q 693 910 713 896 q 654 947 674 924 l 592 1022 z "},"ŵ":{"ha":1078,"x_min":33,"x_max":1040,"o":"m 544 397 q 517 292 532 346 q 486 186 501 238 q 457 92 471 135 q 435 21 443 49 q 315 -12 397 -12 q 228 1 265 -12 q 178 43 190 15 q 142 149 163 76 q 101 307 121 221 q 63 482 81 393 q 33 638 44 571 q 80 669 50 656 q 144 682 110 682 q 217 662 189 682 q 251 593 244 642 q 276 426 265 496 q 294 308 286 357 q 309 230 303 260 q 318 183 315 200 l 324 183 q 340 250 329 206 q 367 351 351 294 q 399 472 382 407 q 433 601 417 536 q 483 623 457 615 q 544 631 508 631 q 620 616 589 631 q 660 572 651 601 q 694 449 678 510 q 725 338 711 389 q 749 246 739 286 q 765 183 760 206 l 772 183 q 810 413 792 293 q 843 657 828 533 q 890 676 865 669 q 940 682 915 682 q 1012 663 983 682 q 1040 599 1040 644 q 1033 533 1040 578 q 1013 433 1025 489 q 986 316 1001 378 q 956 197 971 254 q 926 93 940 140 q 901 21 911 46 q 850 -3 886 6 q 772 -12 814 -12 q 649 39 667 -12 q 625 107 639 67 q 597 195 611 147 q 568 295 582 243 q 544 397 554 347 m 542 867 q 509 831 524 847 q 481 800 494 815 q 455 770 468 785 q 428 738 442 756 q 350 760 379 739 q 321 818 321 782 q 335 863 321 844 q 376 908 349 881 l 431 964 q 481 1003 454 988 q 544 1018 508 1018 q 606 1006 578 1018 q 668 950 633 993 l 771 825 q 750 765 771 790 q 688 740 729 740 q 643 754 663 740 q 604 792 624 768 l 542 867 z "},"Ŷ":{"ha":790,"x_min":11,"x_max":771,"o":"m 771 756 q 759 708 771 739 q 718 624 747 678 q 640 486 689 569 q 515 282 590 403 l 515 1 q 473 -6 500 -3 q 417 -10 446 -10 q 326 13 351 -10 q 301 90 301 35 l 301 283 q 224 402 265 336 q 142 535 182 468 q 67 668 101 603 q 11 785 32 733 q 55 828 26 808 q 125 847 83 847 q 204 827 174 847 q 263 751 235 807 q 276 726 265 747 q 302 676 288 704 q 333 614 317 647 q 365 552 350 581 q 390 503 379 524 q 404 478 401 482 l 411 478 q 452 565 433 524 q 489 648 471 607 q 526 731 507 689 q 565 824 544 774 q 615 841 588 835 q 665 847 642 847 q 740 824 710 847 q 771 756 771 800 m 403 1024 q 338 963 371 994 q 274 904 306 932 q 207 926 233 904 q 181 983 181 949 q 194 1030 181 1011 q 240 1075 207 1049 l 289 1115 q 352 1156 325 1143 q 406 1168 379 1168 q 466 1155 439 1168 q 521 1114 493 1142 l 633 997 q 610 931 633 953 q 547 908 588 908 q 500 924 521 908 q 447 974 479 940 l 403 1024 z "},"ŷ":{"ha":749,"x_min":31,"x_max":713,"o":"m 189 167 q 116 348 157 236 q 31 638 75 460 q 77 669 47 656 q 142 682 107 682 q 214 663 186 682 q 257 594 242 644 q 319 394 288 493 q 382 196 350 296 l 388 196 q 422 299 404 243 q 457 416 440 356 q 488 538 474 476 q 514 658 503 600 q 604 682 557 682 q 681 663 649 682 q 713 599 713 643 q 695 472 713 549 q 649 310 678 394 q 585 144 621 226 q 513 -1 550 61 q 372 -198 435 -133 q 246 -262 310 -262 q 161 -231 194 -262 q 121 -151 128 -200 q 213 -60 165 -112 q 294 44 261 -8 q 245 76 271 51 q 189 167 219 100 m 382 867 q 349 831 364 847 q 322 800 335 815 q 295 770 308 785 q 268 738 282 756 q 190 760 219 739 q 161 818 161 782 q 175 863 161 844 q 217 908 189 881 l 271 964 q 322 1003 294 988 q 385 1018 349 1018 q 446 1006 418 1018 q 508 950 474 993 l 611 825 q 590 765 611 790 q 528 740 569 740 q 483 754 503 740 q 444 792 464 768 l 382 867 z "},"Ÿ":{"ha":790,"x_min":11,"x_max":771,"o":"m 771 756 q 759 708 771 739 q 718 624 747 678 q 640 486 689 569 q 515 282 590 403 l 515 1 q 473 -6 500 -3 q 417 -10 446 -10 q 326 13 351 -10 q 301 90 301 35 l 301 283 q 224 402 265 336 q 142 535 182 468 q 67 668 101 603 q 11 785 32 733 q 55 828 26 808 q 125 847 83 847 q 204 827 174 847 q 263 751 235 807 q 276 726 265 747 q 302 676 288 704 q 333 614 317 647 q 365 552 350 581 q 390 503 379 524 q 404 478 401 482 l 411 478 q 452 565 433 524 q 489 648 471 607 q 526 731 507 689 q 565 824 544 774 q 615 841 588 835 q 665 847 642 847 q 740 824 710 847 q 771 756 771 800 m 364 1033 q 334 959 364 989 q 256 929 304 929 q 178 959 207 929 q 149 1033 149 989 q 178 1109 149 1078 q 256 1140 207 1140 q 334 1109 304 1140 q 364 1033 364 1078 m 651 1033 q 622 959 651 989 q 544 929 593 929 q 466 959 496 929 q 436 1033 436 989 q 466 1109 436 1078 q 544 1140 496 1140 q 622 1109 593 1140 q 651 1033 651 1078 z "},"Ź":{"ha":776,"x_min":51,"x_max":731,"o":"m 456 667 l 88 667 q 71 703 78 682 q 64 753 64 725 q 85 824 64 801 q 143 846 106 846 l 667 846 q 721 728 721 800 q 707 665 721 696 q 669 607 693 635 l 322 179 l 707 179 q 723 142 715 164 q 731 92 731 119 q 710 22 731 43 q 653 0 689 0 l 100 0 q 65 47 79 18 q 51 115 51 76 q 67 179 51 147 q 107 239 83 211 l 456 667 m 504 1168 q 587 1142 557 1168 q 617 1079 617 1117 q 604 1032 617 1053 q 557 989 592 1011 l 422 904 q 346 926 372 904 q 319 979 319 949 q 325 1010 319 996 q 350 1042 331 1025 l 504 1168 z "},"ź":{"ha":665,"x_min":50,"x_max":626,"o":"m 93 0 q 62 42 74 18 q 50 94 50 65 q 62 145 50 121 q 92 192 74 169 l 353 503 l 78 503 q 63 538 71 517 q 56 585 56 560 q 76 649 56 629 q 128 668 96 668 l 567 668 q 599 626 586 650 q 611 572 611 603 q 599 523 611 547 q 569 476 588 499 l 313 164 l 604 164 q 619 129 613 151 q 626 83 626 107 q 606 19 626 39 q 554 0 586 0 l 93 0 m 429 1028 q 526 999 493 1026 q 558 936 558 972 q 546 888 558 907 q 503 842 533 868 l 372 731 q 288 756 317 731 q 260 814 260 782 q 266 843 260 829 q 290 876 272 857 l 429 1028 z "},"Ż":{"ha":776,"x_min":51,"x_max":731,"o":"m 456 667 l 88 667 q 71 703 78 682 q 64 753 64 725 q 85 824 64 801 q 143 846 106 846 l 667 846 q 721 728 721 800 q 707 665 721 696 q 669 607 693 635 l 322 179 l 707 179 q 723 142 715 164 q 731 92 731 119 q 710 22 731 43 q 653 0 689 0 l 100 0 q 65 47 79 18 q 51 115 51 76 q 67 179 51 147 q 107 239 83 211 l 456 667 m 510 1047 q 478 968 510 1000 q 396 936 447 936 q 312 968 343 936 q 281 1047 281 1000 q 312 1127 281 1096 q 396 1158 343 1158 q 478 1127 447 1158 q 510 1047 510 1096 z "},"ż":{"ha":665,"x_min":50,"x_max":626,"o":"m 93 0 q 62 42 74 18 q 50 94 50 65 q 62 145 50 121 q 92 192 74 169 l 353 503 l 78 503 q 63 538 71 517 q 56 585 56 560 q 76 649 56 629 q 128 668 96 668 l 567 668 q 599 626 586 650 q 611 572 611 603 q 599 523 611 547 q 569 476 588 499 l 313 164 l 604 164 q 619 129 613 151 q 626 83 626 107 q 606 19 626 39 q 554 0 586 0 l 93 0 m 453 871 q 422 792 453 824 q 339 760 390 760 q 255 792 286 760 q 224 871 224 824 q 255 951 224 919 q 339 982 286 982 q 422 951 390 982 q 453 871 453 919 z "},"Ž":{"ha":776,"x_min":51,"x_max":731,"o":"m 456 667 l 88 667 q 71 703 78 682 q 64 753 64 725 q 85 824 64 801 q 143 846 106 846 l 667 846 q 721 728 721 800 q 707 665 721 696 q 669 607 693 635 l 322 179 l 707 179 q 723 142 715 164 q 731 92 731 119 q 710 22 731 43 q 653 0 689 0 l 100 0 q 65 47 79 18 q 51 115 51 76 q 67 179 51 147 q 107 239 83 211 l 456 667 m 408 1047 q 474 1108 440 1076 q 539 1168 507 1140 q 606 1144 579 1167 q 633 1088 633 1122 q 620 1040 633 1060 q 572 994 607 1021 l 525 954 q 464 916 489 926 q 408 906 439 906 q 342 920 371 906 q 289 958 314 935 l 174 1065 q 196 1138 174 1113 q 258 1164 218 1164 q 306 1150 285 1164 q 364 1097 328 1136 l 408 1047 z "},"ž":{"ha":665,"x_min":50,"x_max":626,"o":"m 93 0 q 62 42 74 18 q 50 94 50 65 q 62 145 50 121 q 92 192 74 169 l 353 503 l 78 503 q 63 538 71 517 q 56 585 56 560 q 76 649 56 629 q 128 668 96 668 l 567 668 q 599 626 586 650 q 611 572 611 603 q 599 523 611 547 q 569 476 588 499 l 313 164 l 604 164 q 619 129 613 151 q 626 83 626 107 q 606 19 626 39 q 554 0 586 0 l 93 0 m 335 892 l 460 1013 q 538 988 508 1011 q 567 929 567 965 q 552 883 567 901 q 506 838 538 864 l 439 779 q 338 739 390 739 q 307 741 321 739 q 278 751 293 743 q 245 771 263 758 q 206 804 228 783 l 100 900 q 99 908 99 903 q 99 919 99 914 q 118 981 99 953 q 179 1010 138 1010 q 202 1008 192 1010 q 224 999 213 1006 q 249 980 236 992 q 281 950 263 968 l 335 892 z "},"Ə":{"ha":918,"x_min":47,"x_max":865,"o":"m 47 349 q 78 427 47 400 q 160 461 110 454 l 631 533 q 540 652 603 614 q 394 690 478 690 q 258 665 318 690 q 161 608 199 639 q 117 651 133 628 q 101 707 101 674 q 119 765 101 739 q 168 810 136 792 q 276 852 214 838 q 415 867 339 867 q 588 838 507 867 q 731 750 669 808 q 829 605 793 692 q 865 403 865 518 q 835 217 865 296 q 749 84 804 138 q 619 4 694 31 q 453 -22 543 -22 q 277 8 353 -22 q 151 88 201 38 q 74 206 100 139 q 47 349 47 274 m 449 153 q 606 211 560 153 q 656 374 653 269 l 265 313 q 281 253 267 282 q 318 203 294 225 q 375 167 342 181 q 449 153 408 153 z "},"ƒ":{"ha":736,"x_min":-18,"x_max":733,"o":"m 438 435 l 404 110 q 324 -86 390 -25 q 151 -147 258 -147 q 25 -120 68 -147 q -18 -37 -18 -93 q -8 9 -18 -11 q 15 40 3 29 q 52 28 33 33 q 103 22 71 22 q 167 44 146 22 q 193 118 188 65 l 249 676 q 343 875 263 813 q 546 938 424 938 q 688 913 642 938 q 733 828 733 888 q 724 782 733 803 q 700 750 714 761 q 647 764 674 758 q 581 769 619 769 q 493 745 522 769 q 457 668 464 721 l 449 599 l 661 599 q 676 564 669 585 q 683 518 683 543 q 663 454 683 474 q 611 435 643 435 l 438 435 z "},"Ơ":{"ha":1047,"x_min":54,"x_max":1058,"o":"m 919 422 q 887 231 919 314 q 796 91 854 147 q 658 6 738 35 q 486 -24 579 -24 q 314 6 393 -24 q 177 91 235 35 q 87 231 119 147 q 54 422 54 314 q 88 613 54 531 q 179 752 121 696 q 316 838 238 808 q 486 867 394 867 q 675 831 589 867 q 821 724 761 794 q 866 768 849 738 q 883 851 883 799 l 883 899 q 919 912 901 907 q 961 917 936 917 q 1030 898 1001 917 q 1058 833 1058 879 l 1058 824 q 1011 673 1058 732 q 893 593 964 614 q 913 512 906 554 q 919 422 919 469 m 694 422 q 638 623 694 556 q 486 690 582 690 q 335 623 392 690 q 278 422 278 556 q 334 220 278 288 q 486 153 390 153 q 638 220 582 153 q 694 422 694 288 z "},"ơ":{"ha":888,"x_min":49,"x_max":892,"o":"m 758 335 q 733 187 758 253 q 662 75 708 121 q 550 4 615 29 q 404 -21 485 -21 q 258 3 324 -21 q 145 74 192 28 q 74 185 99 119 q 49 335 49 251 q 74 481 49 415 q 147 593 100 547 q 259 664 193 639 q 404 689 325 689 q 559 659 490 689 q 675 576 628 629 q 706 622 694 593 q 717 692 717 650 l 717 739 q 752 752 735 747 q 794 757 769 757 q 863 738 835 757 q 892 674 892 719 l 892 664 q 851 520 892 576 q 746 439 810 464 q 758 335 758 390 m 404 522 q 303 474 339 522 q 267 335 267 425 q 302 194 267 242 q 404 146 338 146 q 506 194 471 146 q 542 335 542 243 q 506 473 542 424 q 404 522 469 522 z "},"Ư":{"ha":1044,"x_min":89,"x_max":1075,"o":"m 821 582 l 821 306 q 796 170 821 231 q 724 67 771 110 q 608 0 676 24 q 454 -24 540 -24 q 301 0 368 -24 q 186 67 233 24 q 114 170 139 110 q 89 306 89 231 l 89 844 q 133 851 104 847 q 190 856 161 856 q 280 835 253 856 q 307 753 307 814 l 307 310 q 348 194 307 235 q 454 153 389 153 q 562 194 521 153 q 603 310 603 235 l 603 844 q 647 851 618 847 q 704 856 675 856 q 794 835 767 856 q 821 753 821 814 l 821 717 q 878 760 857 728 q 900 851 900 792 l 900 899 q 935 912 918 907 q 978 917 953 917 q 1047 898 1018 917 q 1075 833 1075 879 l 1075 824 q 1056 721 1075 765 q 1003 645 1036 676 q 926 598 969 614 q 833 582 882 582 l 821 582 z "},"ư":{"ha":968,"x_min":78,"x_max":960,"o":"m 722 139 q 665 39 722 74 q 556 -5 621 11 q 411 -21 490 -21 q 275 -5 336 -21 q 170 46 214 11 q 102 133 126 81 q 78 261 78 186 l 78 665 q 118 674 93 669 q 174 678 143 678 q 263 657 236 678 q 290 578 290 636 l 290 263 q 322 173 290 200 q 413 146 354 146 q 473 152 449 146 q 510 165 497 158 l 510 665 q 549 674 524 669 q 604 678 574 678 q 694 657 667 678 q 722 578 722 636 l 722 564 q 767 608 750 578 q 785 692 785 639 l 785 739 q 820 752 803 747 q 863 757 838 757 q 931 738 903 757 q 960 674 960 719 l 960 664 q 940 562 960 607 q 889 486 921 517 q 813 439 857 456 q 722 422 769 422 l 722 139 l 722 139 z "},"Ǧ":{"ha":915,"x_min":54,"x_max":842,"o":"m 842 128 q 826 68 842 88 q 778 29 811 49 q 731 8 758 18 q 669 -8 703 -1 q 598 -19 635 -15 q 525 -24 561 -24 q 340 2 425 -24 q 190 82 254 28 q 90 219 126 136 q 54 419 54 303 q 91 613 54 529 q 191 753 128 697 q 340 838 254 810 q 524 867 425 867 q 729 826 653 867 q 806 724 806 786 q 789 667 806 692 q 750 629 772 643 q 663 671 715 651 q 540 690 611 690 q 434 672 482 690 q 351 618 386 653 q 297 533 317 583 q 278 421 278 483 q 297 302 278 353 q 349 218 315 251 q 428 168 382 185 q 529 151 475 151 q 590 158 563 151 q 632 172 617 165 l 632 329 l 472 329 q 457 365 464 343 q 450 413 450 388 q 471 478 450 457 q 525 499 492 499 l 758 499 q 819 477 797 499 q 842 417 842 456 l 842 128 m 496 1047 q 561 1108 528 1076 q 626 1168 594 1140 q 694 1144 667 1167 q 721 1088 721 1122 q 708 1040 721 1060 q 660 994 694 1021 l 613 954 q 551 916 576 926 q 496 906 526 906 q 430 920 458 906 q 376 958 401 935 l 261 1065 q 283 1138 261 1113 q 346 1164 306 1164 q 394 1150 372 1164 q 451 1097 415 1136 l 496 1047 z "}}}
